<?xml version="1.0" encoding="UTF-8" standalone="no"?>
<svg width="2976.38px" height="4209.45px" viewBox="0 0 2976.38 4209.45"
 xmlns="http://www.w3.org/2000/svg" xmlns:xlink="http://www.w3.org/1999/xlink" version="1.2" baseProfile="tiny">
<title>brille_petite_etoile</title>
<desc>Generated by MuseScore 3.2.3</desc>
<polyline class="StaffLines" fill="none" stroke="#000000" stroke-width="2.00" stroke-linejoin="bevel" points="141.732,316.732 2834.65,316.732"/>
<polyline class="StaffLines" fill="none" stroke="#000000" stroke-width="2.00" stroke-linejoin="bevel" points="141.732,341.732 2834.65,341.732"/>
<polyline class="StaffLines" fill="none" stroke="#000000" stroke-width="2.00" stroke-linejoin="bevel" points="141.732,366.732 2834.65,366.732"/>
<polyline class="StaffLines" fill="none" stroke="#000000" stroke-width="2.00" stroke-linejoin="bevel" points="141.732,391.732 2834.65,391.732"/>
<polyline class="StaffLines" fill="none" stroke="#000000" stroke-width="2.00" stroke-linejoin="bevel" points="141.732,416.732 2834.65,416.732"/>
<polyline class="BarLine" fill="none" stroke="#000000" stroke-width="4.00" stroke-linejoin="bevel" points="673.744,315.732 673.744,417.732"/>
<polyline class="BarLine" fill="none" stroke="#000000" stroke-width="4.00" stroke-linejoin="bevel" points="958.566,315.732 958.566,417.732"/>
<polyline class="BarLine" fill="none" stroke="#000000" stroke-width="4.00" stroke-linejoin="bevel" points="1287.14,315.732 1287.14,417.732"/>
<polyline class="BarLine" fill="none" stroke="#000000" stroke-width="4.00" stroke-linejoin="bevel" points="1583.36,315.732 1583.36,417.732"/>
<polyline class="BarLine" fill="none" stroke="#000000" stroke-width="4.00" stroke-linejoin="bevel" points="1911.93,315.732 1911.93,417.732"/>
<polyline class="BarLine" fill="none" stroke="#000000" stroke-width="4.00" stroke-linejoin="bevel" points="2196.75,315.732 2196.75,417.732"/>
<polyline class="BarLine" fill="none" stroke="#000000" stroke-width="4.00" stroke-linejoin="bevel" points="2525.32,315.732 2525.32,417.732"/>
<polyline class="BarLine" fill="none" stroke="#000000" stroke-width="4.00" stroke-linejoin="bevel" points="2810.15,315.732 2810.15,417.732"/>
<polyline class="BarLine" fill="none" stroke="#000000" stroke-width="12.50" stroke-linejoin="bevel" points="2828.4,315.732 2828.4,417.732"/>
<polyline class="LedgerLine" fill="none" stroke="#000000" stroke-width="4.00" stroke-linecap="square" stroke-linejoin="bevel" points="341.873,441.732 389.787,441.732"/>
<polyline class="LedgerLine" fill="none" stroke="#000000" stroke-width="4.00" stroke-linecap="square" stroke-linejoin="bevel" points="422.466,441.732 470.38,441.732"/>
<polyline class="LedgerLine" fill="none" stroke="#000000" stroke-width="4.00" stroke-linecap="square" stroke-linejoin="bevel" points="1454.19,441.732 1503.91,441.732"/>
<polyline class="Stem" fill="none" stroke="#000000" stroke-width="3.25" stroke-linecap="round" stroke-linejoin="bevel" points="380.662,437.037 380.662,354.232"/>
<polyline class="Stem" fill="none" stroke="#000000" stroke-width="3.25" stroke-linecap="round" stroke-linejoin="bevel" points="461.255,437.037 461.255,354.232"/>
<polyline class="Stem" fill="none" stroke="#000000" stroke-width="3.25" stroke-linecap="round" stroke-linejoin="bevel" points="541.847,387.037 541.847,307.357"/>
<polyline class="Stem" fill="none" stroke="#000000" stroke-width="3.25" stroke-linecap="round" stroke-linejoin="bevel" points="622.44,387.037 622.44,307.357"/>
<polyline class="Stem" fill="none" stroke="#000000" stroke-width="3.25" stroke-linecap="round" stroke-linejoin="bevel" points="732.033,374.537 732.033,297.982"/>
<polyline class="Stem" fill="none" stroke="#000000" stroke-width="3.25" stroke-linecap="round" stroke-linejoin="bevel" points="803.095,374.537 803.095,297.982"/>
<polyline class="Stem" fill="none" stroke="#000000" stroke-width="3.25" stroke-linecap="round" stroke-linejoin="bevel" points="875.059,387.892 875.059,307.357"/>
<polyline class="Stem" fill="none" stroke="#000000" stroke-width="3.25" stroke-linecap="round" stroke-linejoin="bevel" points="1016.86,399.537 1016.86,316.732"/>
<polyline class="Stem" fill="none" stroke="#000000" stroke-width="3.25" stroke-linecap="round" stroke-linejoin="bevel" points="1091.75,399.537 1091.75,316.732"/>
<polyline class="Stem" fill="none" stroke="#000000" stroke-width="3.25" stroke-linecap="round" stroke-linejoin="bevel" points="1166.64,412.037 1166.64,329.232"/>
<polyline class="Stem" fill="none" stroke="#000000" stroke-width="3.25" stroke-linecap="round" stroke-linejoin="bevel" points="1241.53,412.037 1241.53,329.232"/>
<polyline class="Stem" fill="none" stroke="#000000" stroke-width="3.25" stroke-linecap="round" stroke-linejoin="bevel" points="1345.43,424.537 1345.43,341.732"/>
<polyline class="Stem" fill="none" stroke="#000000" stroke-width="3.25" stroke-linecap="round" stroke-linejoin="bevel" points="1419.65,424.537 1419.65,341.732"/>
<polyline class="Stem" fill="none" stroke="#000000" stroke-width="3.25" stroke-linecap="round" stroke-linejoin="bevel" points="1494.79,437.892 1494.79,354.232"/>
<polyline class="Stem" fill="none" stroke="#000000" stroke-width="3.25" stroke-linecap="round" stroke-linejoin="bevel" points="1641.65,387.037 1641.65,307.357"/>
<polyline class="Stem" fill="none" stroke="#000000" stroke-width="3.25" stroke-linecap="round" stroke-linejoin="bevel" points="1716.54,387.037 1716.54,307.357"/>
<polyline class="Stem" fill="none" stroke="#000000" stroke-width="3.25" stroke-linecap="round" stroke-linejoin="bevel" points="1791.43,399.537 1791.43,316.732"/>
<polyline class="Stem" fill="none" stroke="#000000" stroke-width="3.25" stroke-linecap="round" stroke-linejoin="bevel" points="1866.33,399.537 1866.33,316.732"/>
<polyline class="Stem" fill="none" stroke="#000000" stroke-width="3.25" stroke-linecap="round" stroke-linejoin="bevel" points="1970.22,412.037 1970.22,329.232"/>
<polyline class="Stem" fill="none" stroke="#000000" stroke-width="3.25" stroke-linecap="round" stroke-linejoin="bevel" points="2041.28,412.037 2041.28,329.232"/>
<polyline class="Stem" fill="none" stroke="#000000" stroke-width="3.25" stroke-linecap="round" stroke-linejoin="bevel" points="2113.25,425.392 2113.25,341.732"/>
<polyline class="Stem" fill="none" stroke="#000000" stroke-width="3.25" stroke-linecap="round" stroke-linejoin="bevel" points="2255.04,387.037 2255.04,307.357"/>
<polyline class="Stem" fill="none" stroke="#000000" stroke-width="3.25" stroke-linecap="round" stroke-linejoin="bevel" points="2329.93,387.037 2329.93,307.357"/>
<polyline class="Stem" fill="none" stroke="#000000" stroke-width="3.25" stroke-linecap="round" stroke-linejoin="bevel" points="2404.83,399.537 2404.83,316.732"/>
<polyline class="Stem" fill="none" stroke="#000000" stroke-width="3.25" stroke-linecap="round" stroke-linejoin="bevel" points="2479.72,399.537 2479.72,316.732"/>
<polyline class="Stem" fill="none" stroke="#000000" stroke-width="3.25" stroke-linecap="round" stroke-linejoin="bevel" points="2583.61,412.037 2583.61,329.232"/>
<polyline class="Stem" fill="none" stroke="#000000" stroke-width="3.25" stroke-linecap="round" stroke-linejoin="bevel" points="2654.67,412.037 2654.67,329.232"/>
<polyline class="Stem" fill="none" stroke="#000000" stroke-width="3.25" stroke-linecap="round" stroke-linejoin="bevel" points="2726.64,425.392 2726.64,341.732"/>
<path class="Note" d="M371.342,427.967 C374.467,427.967 377.071,428.748 379.154,430.31 C381.237,431.873 382.279,434.118 382.279,437.045 C382.279,441.534 379.954,445.732 375.303,449.639 C370.652,453.545 365.654,455.498 360.31,455.498 C357.185,455.498 354.55,454.685 352.404,453.06 C350.383,451.3 349.373,449.086 349.373,446.42 C349.373,442.055 351.685,437.889 356.31,433.92 C360.935,429.951 365.946,427.967 371.342,427.967"/>
<path class="Note" d="M451.934,427.967 C455.059,427.967 457.664,428.748 459.747,430.31 C461.83,431.873 462.872,434.118 462.872,437.045 C462.872,441.534 460.546,445.732 455.895,449.639 C451.244,453.545 446.247,455.498 440.903,455.498 C437.778,455.498 435.143,454.685 432.997,453.06 C430.976,451.3 429.966,449.086 429.966,446.42 C429.966,442.055 432.278,437.889 436.903,433.92 C441.528,429.951 446.539,427.967 451.934,427.967"/>
<path class="Note" d="M532.527,377.967 C535.652,377.967 538.256,378.748 540.34,380.31 C542.423,381.873 543.465,384.118 543.465,387.045 C543.465,391.534 541.139,395.732 536.488,399.639 C531.837,403.545 526.84,405.498 521.496,405.498 C518.371,405.498 515.735,404.685 513.59,403.06 C511.569,401.3 510.558,399.086 510.558,396.42 C510.558,392.055 512.871,387.889 517.496,383.92 C522.121,379.951 527.131,377.967 532.527,377.967"/>
<path class="Note" d="M613.12,377.967 C616.245,377.967 618.849,378.748 620.932,380.31 C623.016,381.873 624.057,384.118 624.057,387.045 C624.057,391.534 621.732,395.732 617.081,399.639 C612.43,403.545 607.432,405.498 602.089,405.498 C598.964,405.498 596.328,404.685 594.182,403.06 C592.161,401.3 591.151,399.086 591.151,396.42 C591.151,392.055 593.464,387.889 598.089,383.92 C602.714,379.951 607.724,377.967 613.12,377.967"/>
<path class="Note" d="M722.712,365.467 C725.837,365.467 728.442,366.248 730.525,367.81 C732.608,369.373 733.65,371.618 733.65,374.545 C733.65,379.034 731.324,383.232 726.673,387.139 C722.022,391.045 717.025,392.998 711.681,392.998 C708.556,392.998 705.921,392.185 703.775,390.56 C701.754,388.8 700.744,386.586 700.744,383.92 C700.744,379.555 703.056,375.389 707.681,371.42 C712.306,367.451 717.317,365.467 722.712,365.467"/>
<path class="Note" d="M793.774,365.467 C796.899,365.467 799.503,366.248 801.587,367.81 C803.67,369.373 804.712,371.618 804.712,374.545 C804.712,379.034 802.386,383.232 797.735,387.139 C793.084,391.045 788.087,392.998 782.743,392.998 C779.618,392.998 776.983,392.185 774.837,390.56 C772.816,388.8 771.805,386.586 771.805,383.92 C771.805,379.555 774.118,375.389 778.743,371.42 C783.368,367.451 788.378,365.467 793.774,365.467"/>
<path class="Note" d="M849.387,402.373 C851.272,402.373 855.228,400.42 861.254,396.514 C867.28,392.607 870.83,389.987 871.902,388.654 C872.975,387.321 873.512,386.133 873.512,385.092 C873.512,384.05 873.087,383.123 872.238,382.31 C871.389,381.498 870.413,381.092 869.309,381.092 C867.361,381.092 863.374,383.06 857.348,386.998 C851.322,390.935 847.788,393.555 846.746,394.857 C845.705,396.159 845.184,397.331 845.184,398.373 C845.184,399.415 845.593,400.342 846.41,401.154 C847.228,401.967 848.22,402.373 849.387,402.373 M868.34,377.967 C873.934,377.967 876.731,380.373 876.731,385.185 C876.731,387.529 876.048,390.248 874.684,393.342 C873.319,396.435 871.496,398.795 869.215,400.42 C864.205,403.805 857.923,405.498 850.371,405.498 C844.767,405.498 841.965,403.092 841.965,398.279 C841.965,396.133 842.632,393.464 843.965,390.271 C845.298,387.079 847.137,384.67 849.481,383.045 C854.501,379.659 860.788,377.967 868.34,377.967"/>
<path class="Note" d="M1007.53,390.467 C1010.66,390.467 1013.26,391.248 1015.35,392.81 C1017.43,394.373 1018.47,396.618 1018.47,399.545 C1018.47,404.034 1016.15,408.232 1011.5,412.139 C1006.84,416.045 1001.85,417.998 996.504,417.998 C993.379,417.998 990.743,417.185 988.597,415.56 C986.577,413.8 985.566,411.586 985.566,408.92 C985.566,404.555 987.879,400.389 992.504,396.42 C997.129,392.451 1002.14,390.467 1007.53,390.467"/>
<path class="Note" d="M1082.43,390.467 C1085.55,390.467 1088.16,391.248 1090.24,392.81 C1092.32,394.373 1093.37,396.618 1093.37,399.545 C1093.37,404.034 1091.04,408.232 1086.39,412.139 C1081.74,416.045 1076.74,417.998 1071.4,417.998 C1068.27,417.998 1065.64,417.185 1063.49,415.56 C1061.47,413.8 1060.46,411.586 1060.46,408.92 C1060.46,404.555 1062.77,400.389 1067.4,396.42 C1072.02,392.451 1077.03,390.467 1082.43,390.467"/>
<path class="Note" d="M1157.32,402.967 C1160.45,402.967 1163.05,403.748 1165.13,405.31 C1167.22,406.873 1168.26,409.118 1168.26,412.045 C1168.26,416.534 1165.93,420.732 1161.28,424.639 C1156.63,428.545 1151.63,430.498 1146.29,430.498 C1143.16,430.498 1140.53,429.685 1138.38,428.06 C1136.36,426.3 1135.35,424.086 1135.35,421.42 C1135.35,417.055 1137.66,412.889 1142.29,408.92 C1146.91,404.951 1151.92,402.967 1157.32,402.967"/>
<path class="Note" d="M1232.21,402.967 C1235.34,402.967 1237.94,403.748 1240.03,405.31 C1242.11,406.873 1243.15,409.118 1243.15,412.045 C1243.15,416.534 1240.82,420.732 1236.17,424.639 C1231.52,428.545 1226.53,430.498 1221.18,430.498 C1218.06,430.498 1215.42,429.685 1213.28,428.06 C1211.25,426.3 1210.24,424.086 1210.24,421.42 C1210.24,417.055 1212.56,412.889 1217.18,408.92 C1221.81,404.951 1226.82,402.967 1232.21,402.967"/>
<path class="Note" d="M1336.11,415.467 C1339.23,415.467 1341.83,416.248 1343.92,417.81 C1346,419.373 1347.04,421.618 1347.04,424.545 C1347.04,429.034 1344.72,433.232 1340.07,437.139 C1335.42,441.045 1330.42,442.998 1325.07,442.998 C1321.95,442.998 1319.31,442.185 1317.17,440.56 C1315.15,438.8 1314.14,436.586 1314.14,433.92 C1314.14,429.555 1316.45,425.389 1321.07,421.42 C1325.7,417.451 1330.71,415.467 1336.11,415.467"/>
<path class="Note" d="M1410.33,415.467 C1413.46,415.467 1416.06,416.248 1418.15,417.81 C1420.23,419.373 1421.27,421.618 1421.27,424.545 C1421.27,429.034 1418.95,433.232 1414.3,437.139 C1409.64,441.045 1404.65,442.998 1399.3,442.998 C1396.18,442.998 1393.54,442.185 1391.4,440.56 C1389.38,438.8 1388.37,436.586 1388.37,433.92 C1388.37,429.555 1390.68,425.389 1395.3,421.42 C1399.93,417.451 1404.94,415.467 1410.33,415.467"/>
<path class="Note" d="M1469.11,452.373 C1471,452.373 1474.95,450.42 1480.98,446.514 C1487.01,442.607 1490.56,439.987 1491.63,438.654 C1492.7,437.321 1493.24,436.133 1493.24,435.092 C1493.24,434.05 1492.81,433.123 1491.96,432.31 C1491.12,431.498 1490.14,431.092 1489.04,431.092 C1487.09,431.092 1483.1,433.06 1477.07,436.998 C1471.05,440.935 1467.51,443.555 1466.47,444.857 C1465.43,446.159 1464.91,447.331 1464.91,448.373 C1464.91,449.415 1465.32,450.342 1466.14,451.154 C1466.95,451.967 1467.95,452.373 1469.11,452.373 M1488.07,427.967 C1493.66,427.967 1496.46,430.373 1496.46,435.185 C1496.46,437.529 1495.77,440.248 1494.41,443.342 C1493.05,446.435 1491.22,448.795 1488.94,450.42 C1483.93,453.805 1477.65,455.498 1470.1,455.498 C1464.49,455.498 1461.69,453.092 1461.69,448.279 C1461.69,446.133 1462.36,443.464 1463.69,440.271 C1465.02,437.079 1466.86,434.67 1469.21,433.045 C1474.23,429.659 1480.51,427.967 1488.07,427.967"/>
<path class="Note" d="M1632.33,377.967 C1635.45,377.967 1638.06,378.748 1640.14,380.31 C1642.22,381.873 1643.27,384.118 1643.27,387.045 C1643.27,391.534 1640.94,395.732 1636.29,399.639 C1631.64,403.545 1626.64,405.498 1621.3,405.498 C1618.17,405.498 1615.54,404.685 1613.39,403.06 C1611.37,401.3 1610.36,399.086 1610.36,396.42 C1610.36,392.055 1612.67,387.889 1617.3,383.92 C1621.92,379.951 1626.93,377.967 1632.33,377.967"/>
<path class="Note" d="M1707.22,377.967 C1710.35,377.967 1712.95,378.748 1715.03,380.31 C1717.12,381.873 1718.16,384.118 1718.16,387.045 C1718.16,391.534 1715.83,395.732 1711.18,399.639 C1706.53,403.545 1701.53,405.498 1696.19,405.498 C1693.06,405.498 1690.43,404.685 1688.28,403.06 C1686.26,401.3 1685.25,399.086 1685.25,396.42 C1685.25,392.055 1687.56,387.889 1692.19,383.92 C1696.81,379.951 1701.82,377.967 1707.22,377.967"/>
<path class="Note" d="M1782.11,390.467 C1785.24,390.467 1787.84,391.248 1789.93,392.81 C1792.01,394.373 1793.05,396.618 1793.05,399.545 C1793.05,404.034 1790.73,408.232 1786.07,412.139 C1781.42,416.045 1776.43,417.998 1771.08,417.998 C1767.96,417.998 1765.32,417.185 1763.18,415.56 C1761.16,413.8 1760.14,411.586 1760.14,408.92 C1760.14,404.555 1762.46,400.389 1767.08,396.42 C1771.71,392.451 1776.72,390.467 1782.11,390.467"/>
<path class="Note" d="M1857.01,390.467 C1860.13,390.467 1862.74,391.248 1864.82,392.81 C1866.9,394.373 1867.94,396.618 1867.94,399.545 C1867.94,404.034 1865.62,408.232 1860.97,412.139 C1856.32,416.045 1851.32,417.998 1845.97,417.998 C1842.85,417.998 1840.21,417.185 1838.07,415.56 C1836.05,413.8 1835.04,411.586 1835.04,408.92 C1835.04,404.555 1837.35,400.389 1841.97,396.42 C1846.6,392.451 1851.61,390.467 1857.01,390.467"/>
<path class="Note" d="M1960.9,402.967 C1964.02,402.967 1966.63,403.748 1968.71,405.31 C1970.79,406.873 1971.84,409.118 1971.84,412.045 C1971.84,416.534 1969.51,420.732 1964.86,424.639 C1960.21,428.545 1955.21,430.498 1949.87,430.498 C1946.74,430.498 1944.11,429.685 1941.96,428.06 C1939.94,426.3 1938.93,424.086 1938.93,421.42 C1938.93,417.055 1941.24,412.889 1945.87,408.92 C1950.49,404.951 1955.5,402.967 1960.9,402.967"/>
<path class="Note" d="M2031.96,402.967 C2035.09,402.967 2037.69,403.748 2039.77,405.31 C2041.86,406.873 2042.9,409.118 2042.9,412.045 C2042.9,416.534 2040.57,420.732 2035.92,424.639 C2031.27,428.545 2026.27,430.498 2020.93,430.498 C2017.8,430.498 2015.17,429.685 2013.02,428.06 C2011,426.3 2009.99,424.086 2009.99,421.42 C2009.99,417.055 2012.3,412.889 2016.93,408.92 C2021.55,404.951 2026.56,402.967 2031.96,402.967"/>
<path class="Note" d="M2087.57,439.873 C2089.46,439.873 2093.41,437.92 2099.44,434.014 C2105.47,430.107 2109.02,427.487 2110.09,426.154 C2111.16,424.821 2111.7,423.633 2111.7,422.592 C2111.7,421.55 2111.27,420.623 2110.42,419.81 C2109.58,418.998 2108.6,418.592 2107.5,418.592 C2105.55,418.592 2101.56,420.56 2095.53,424.498 C2089.51,428.435 2085.97,431.055 2084.93,432.357 C2083.89,433.659 2083.37,434.831 2083.37,435.873 C2083.37,436.915 2083.78,437.842 2084.6,438.654 C2085.41,439.467 2086.41,439.873 2087.57,439.873 M2106.53,415.467 C2112.12,415.467 2114.92,417.873 2114.92,422.685 C2114.92,425.029 2114.23,427.748 2112.87,430.842 C2111.51,433.935 2109.68,436.295 2107.4,437.92 C2102.39,441.305 2096.11,442.998 2088.56,442.998 C2082.95,442.998 2080.15,440.592 2080.15,435.779 C2080.15,433.633 2080.82,430.964 2082.15,427.771 C2083.48,424.579 2085.32,422.17 2087.67,420.545 C2092.69,417.159 2098.97,415.467 2106.53,415.467"/>
<path class="Note" d="M2245.72,377.967 C2248.85,377.967 2251.45,378.748 2253.53,380.31 C2255.62,381.873 2256.66,384.118 2256.66,387.045 C2256.66,391.534 2254.33,395.732 2249.68,399.639 C2245.03,403.545 2240.03,405.498 2234.69,405.498 C2231.56,405.498 2228.93,404.685 2226.78,403.06 C2224.76,401.3 2223.75,399.086 2223.75,396.42 C2223.75,392.055 2226.06,387.889 2230.69,383.92 C2235.31,379.951 2240.33,377.967 2245.72,377.967"/>
<path class="Note" d="M2320.61,377.967 C2323.74,377.967 2326.34,378.748 2328.43,380.31 C2330.51,381.873 2331.55,384.118 2331.55,387.045 C2331.55,391.534 2329.23,395.732 2324.57,399.639 C2319.92,403.545 2314.93,405.498 2309.58,405.498 C2306.46,405.498 2303.82,404.685 2301.68,403.06 C2299.66,401.3 2298.65,399.086 2298.65,396.42 C2298.65,392.055 2300.96,387.889 2305.58,383.92 C2310.21,379.951 2315.22,377.967 2320.61,377.967"/>
<path class="Note" d="M2395.51,390.467 C2398.63,390.467 2401.24,391.248 2403.32,392.81 C2405.4,394.373 2406.44,396.618 2406.44,399.545 C2406.44,404.034 2404.12,408.232 2399.47,412.139 C2394.82,416.045 2389.82,417.998 2384.48,417.998 C2381.35,417.998 2378.71,417.185 2376.57,415.56 C2374.55,413.8 2373.54,411.586 2373.54,408.92 C2373.54,404.555 2375.85,400.389 2380.48,396.42 C2385.1,392.451 2390.11,390.467 2395.51,390.467"/>
<path class="Note" d="M2470.4,390.467 C2473.52,390.467 2476.13,391.248 2478.21,392.81 C2480.3,394.373 2481.34,396.618 2481.34,399.545 C2481.34,404.034 2479.01,408.232 2474.36,412.139 C2469.71,416.045 2464.71,417.998 2459.37,417.998 C2456.24,417.998 2453.61,417.185 2451.46,415.56 C2449.44,413.8 2448.43,411.586 2448.43,408.92 C2448.43,404.555 2450.74,400.389 2455.37,396.42 C2459.99,392.451 2465,390.467 2470.4,390.467"/>
<path class="Note" d="M2574.29,402.967 C2577.42,402.967 2580.02,403.748 2582.1,405.31 C2584.19,406.873 2585.23,409.118 2585.23,412.045 C2585.23,416.534 2582.9,420.732 2578.25,424.639 C2573.6,428.545 2568.6,430.498 2563.26,430.498 C2560.14,430.498 2557.5,429.685 2555.35,428.06 C2553.33,426.3 2552.32,424.086 2552.32,421.42 C2552.32,417.055 2554.64,412.889 2559.26,408.92 C2563.89,404.951 2568.9,402.967 2574.29,402.967"/>
<path class="Note" d="M2645.35,402.967 C2648.48,402.967 2651.08,403.748 2653.17,405.31 C2655.25,406.873 2656.29,409.118 2656.29,412.045 C2656.29,416.534 2653.97,420.732 2649.31,424.639 C2644.66,428.545 2639.67,430.498 2634.32,430.498 C2631.2,430.498 2628.56,429.685 2626.42,428.06 C2624.4,426.3 2623.39,424.086 2623.39,421.42 C2623.39,417.055 2625.7,412.889 2630.32,408.92 C2634.95,404.951 2639.96,402.967 2645.35,402.967"/>
<path class="Note" d="M2700.97,439.873 C2702.85,439.873 2706.81,437.92 2712.83,434.014 C2718.86,430.107 2722.41,427.487 2723.48,426.154 C2724.55,424.821 2725.09,423.633 2725.09,422.592 C2725.09,421.55 2724.67,420.623 2723.82,419.81 C2722.97,418.998 2721.99,418.592 2720.89,418.592 C2718.94,418.592 2714.95,420.56 2708.93,424.498 C2702.9,428.435 2699.37,431.055 2698.33,432.357 C2697.28,433.659 2696.76,434.831 2696.76,435.873 C2696.76,436.915 2697.17,437.842 2697.99,438.654 C2698.81,439.467 2699.8,439.873 2700.97,439.873 M2719.92,415.467 C2725.51,415.467 2728.31,417.873 2728.31,422.685 C2728.31,425.029 2727.63,427.748 2726.26,430.842 C2724.9,433.935 2723.08,436.295 2720.79,437.92 C2715.78,441.305 2709.5,442.998 2701.95,442.998 C2696.35,442.998 2693.54,440.592 2693.54,435.779 C2693.54,433.633 2694.21,430.964 2695.54,427.771 C2696.88,424.579 2698.72,422.17 2701.06,420.545 C2706.08,417.159 2712.37,415.467 2719.92,415.467"/>
<path class="Clef" d="M203.623,423.857 L203.623,421.717 C203.56,420.612 203.399,418.889 203.139,416.545 C199.889,417.066 196.993,417.326 194.451,417.326 C185.336,417.326 177.605,413.727 171.256,406.529 C164.907,399.331 161.732,390.753 161.732,380.795 C161.732,378.128 162.253,374.922 163.295,371.178 C164.336,367.433 165.297,364.925 166.178,363.654 C167.058,362.383 168.378,360.154 170.139,356.967 C170.659,355.987 172.352,353.836 175.217,350.514 C175.737,349.805 176.193,349.222 176.584,348.764 C176.974,348.305 177.607,347.49 178.482,346.318 C179.357,345.146 180.3,344.055 181.31,343.045 C182.321,342.034 183.217,341.058 183.998,340.115 C184.779,339.172 185.498,338.378 186.154,337.732 C183.81,329.982 182.378,324.024 181.857,319.857 C181.336,315.691 181.076,310.579 181.076,304.521 C181.076,298.464 182.378,292.961 184.982,288.014 C187.514,282.878 191.06,278.68 195.623,275.42 C195.883,275.222 196.224,275.123 196.646,275.123 C197.068,275.123 197.378,275.222 197.576,275.42 C201.086,279.649 204.128,285.149 206.701,291.92 C209.274,298.691 210.56,305.024 210.56,310.92 C210.56,316.816 209.066,322.498 206.076,327.967 C202.691,333.758 198.326,339.748 192.982,345.935 C194.347,350.227 196.17,356.961 198.451,366.139 L199.045,366.139 C199.305,366.076 199.529,366.045 199.717,366.045 C207.081,366.045 213.089,368.633 217.74,373.81 C222.391,378.987 224.717,384.961 224.717,391.732 C224.717,400.128 221.237,406.899 214.279,412.045 C212.258,413.545 209.878,414.717 207.139,415.56 C207.472,419.79 207.639,422.605 207.639,424.006 C207.639,425.407 207.571,427.899 207.435,431.482 C207.373,437.597 205.29,442.836 201.185,447.201 C197.081,451.566 192.394,453.748 187.123,453.748 C181.852,453.748 177.36,451.876 173.646,448.131 C169.933,444.386 168.076,439.847 168.076,434.514 C168.076,431.711 169.154,429.331 171.31,427.373 C173.519,425.425 176.006,424.451 178.771,424.451 C181.537,424.451 183.8,425.461 185.56,427.482 C187.383,429.368 188.295,431.644 188.295,434.31 C188.295,436.977 187.383,439.222 185.56,441.045 C183.737,442.868 181.555,443.779 179.014,443.779 C177.972,443.779 176.967,443.586 175.998,443.201 C178.862,447.43 182.54,449.545 187.029,449.545 C191.519,449.545 195.36,447.691 198.553,443.982 C201.745,440.274 203.342,435.909 203.342,430.889 L203.623,423.857 M206.748,411.56 C210.133,410.321 212.821,408.123 214.81,404.967 C216.8,401.81 217.795,398.67 217.795,395.545 C217.795,390.92 216.198,386.784 213.006,383.139 C209.813,379.493 205.774,377.441 200.889,376.982 C203.691,390.722 205.644,402.248 206.748,411.56 M168.967,388.998 C168.967,395.446 171.537,401.079 176.678,405.896 C181.818,410.714 187.842,413.123 194.748,413.123 C197.477,413.123 200.144,412.925 202.748,412.529 C201.706,402.633 199.654,390.784 196.592,376.982 C192.758,377.378 189.782,378.698 187.662,380.943 C185.542,383.188 184.482,385.743 184.482,388.607 C184.482,393.555 187.123,397.56 192.404,400.623 C192.852,400.883 193.076,401.323 193.076,401.943 C193.076,402.563 192.865,403.099 192.443,403.553 C192.021,404.006 191.649,404.232 191.326,404.232 C191.003,404.232 190.581,404.17 190.06,404.045 C182.435,399.878 178.623,393.592 178.623,385.185 C178.623,381.217 180.024,377.409 182.826,373.764 C185.753,370.118 189.56,367.774 194.248,366.732 C192.425,359.441 190.93,353.743 189.764,349.639 C180.847,359.67 175.31,367.092 173.154,371.904 C170.362,378.154 168.967,383.852 168.967,388.998 M201.576,289.685 C196.691,292.092 192.834,295.573 190.006,300.131 C187.178,304.688 185.764,309.472 185.764,314.482 C185.764,319.493 186.935,325.972 189.279,333.92 C193.967,328.253 197.514,322.946 199.92,317.998 C202.326,313.05 203.529,308.152 203.529,303.303 C203.529,298.454 202.878,293.915 201.576,289.685"/>
<path class="TimeSig" d="M273.021,317.912 C274.516,317.912 275.948,317.685 277.318,317.232 C278.688,316.779 279.665,316.553 280.248,316.553 C280.831,316.553 281.222,316.907 281.42,317.615 C281.42,317.688 281.352,317.886 281.217,318.209 L252.81,351.224 L269.498,351.224 L269.498,338.131 C269.498,336.506 270.446,335.334 272.342,334.615 C274.29,333.896 276.503,331.001 278.982,325.928 C279.17,325.532 279.461,325.334 279.857,325.334 C280.639,325.334 281.092,325.792 281.217,326.709 L281.217,351.224 L288.357,351.224 C289.264,351.224 289.751,351.711 289.818,352.685 C289.886,353.659 289.399,354.146 288.357,354.146 L281.217,354.146 L281.217,354.928 C281.217,357.532 281.868,359.745 283.17,361.568 C284.67,363.391 286.43,364.303 288.451,364.303 C289.232,364.303 289.623,364.693 289.623,365.474 C289.623,366.256 289.086,366.646 288.014,366.646 C286.941,366.646 284.938,366.435 282.006,366.014 C279.073,365.592 276.81,365.381 275.217,365.381 C273.623,365.381 271.409,365.592 268.576,366.014 C265.743,366.435 263.612,366.646 262.185,366.646 C261.404,366.646 261.014,366.256 261.014,365.474 C261.014,364.693 261.404,364.303 262.185,364.303 C264.196,364.303 265.951,363.391 267.451,361.568 C268.816,359.683 269.498,357.469 269.498,354.928 L269.498,354.146 L252.81,354.146 C251.956,354.146 251.219,353.92 250.599,353.467 C249.98,353.014 249.67,352.592 249.67,352.201 C249.67,351.81 250.485,350.639 252.115,348.685 C253.745,346.732 256.073,342.972 259.099,337.404 C262.126,331.836 263.639,325.438 263.639,318.209 C263.639,317.167 264.097,316.646 265.014,316.646 C265.211,316.646 265.521,316.711 265.943,316.842 C266.365,316.972 267.277,317.183 268.678,317.474 C270.079,317.766 271.527,317.912 273.021,317.912"/>
<path class="TimeSig" d="M273.021,368.084 C274.516,368.084 275.948,367.857 277.318,367.404 C278.688,366.951 279.665,366.724 280.248,366.724 C280.831,366.724 281.222,367.079 281.42,367.787 C281.42,367.86 281.352,368.058 281.217,368.381 L252.81,401.396 L269.498,401.396 L269.498,388.303 C269.498,386.678 270.446,385.506 272.342,384.787 C274.29,384.068 276.503,381.172 278.982,376.099 C279.17,375.704 279.461,375.506 279.857,375.506 C280.639,375.506 281.092,375.964 281.217,376.881 L281.217,401.396 L288.357,401.396 C289.264,401.396 289.751,401.883 289.818,402.857 C289.886,403.831 289.399,404.318 288.357,404.318 L281.217,404.318 L281.217,405.099 C281.217,407.704 281.868,409.917 283.17,411.74 C284.67,413.563 286.43,414.474 288.451,414.474 C289.232,414.474 289.623,414.865 289.623,415.646 C289.623,416.428 289.086,416.818 288.014,416.818 C286.941,416.818 284.938,416.607 282.006,416.185 C279.073,415.764 276.81,415.553 275.217,415.553 C273.623,415.553 271.409,415.764 268.576,416.185 C265.743,416.607 263.612,416.818 262.185,416.818 C261.404,416.818 261.014,416.428 261.014,415.646 C261.014,414.865 261.404,414.474 262.185,414.474 C264.196,414.474 265.951,413.563 267.451,411.74 C268.816,409.855 269.498,407.641 269.498,405.099 L269.498,404.318 L252.81,404.318 C251.956,404.318 251.219,404.092 250.599,403.639 C249.98,403.185 249.67,402.764 249.67,402.373 C249.67,401.982 250.485,400.81 252.115,398.857 C253.745,396.904 256.073,393.144 259.099,387.576 C262.126,382.008 263.639,375.61 263.639,368.381 C263.639,367.339 264.097,366.818 265.014,366.818 C265.211,366.818 265.521,366.883 265.943,367.014 C266.365,367.144 267.277,367.355 268.678,367.646 C270.079,367.938 271.527,368.084 273.021,368.084"/>
<path class="Tempo" d="M264.389,254.014 C263.435,253.17 262.107,252.748 260.545,252.748 C254.607,252.748 249.873,257.139 249.873,261.81 C249.873,264.639 252.154,266.31 255.092,266.31 C259.889,266.31 265.826,261.81 265.826,257.248 L265.826,226.529 L264.389,226.529 L264.389,254.014 "/>
<path class="Tempo" d="M317.654,248.076 L284.529,248.076 L284.529,242.31 L317.654,242.31 L317.654,248.076 M317.654,260.795 L284.529,260.795 L284.529,255.029 L317.654,255.029 L317.654,260.795 M345.342,232.06 C344.862,232.06 344.292,232.159 343.631,232.357 C342.969,232.555 342.269,232.795 341.529,233.076 C340.79,233.357 340.362,233.519 340.248,233.56 L340.248,231.998 L355.357,225.451 L356.389,225.451 L356.389,259.654 C356.389,261.977 356.787,263.487 357.584,264.185 C358.381,264.883 360.139,265.253 362.857,265.295 L362.857,266.732 L340.357,266.732 L340.357,265.295 C343.316,265.253 345.245,264.862 346.146,264.123 C347.047,263.383 347.498,261.774 347.498,259.295 L347.498,236.201 C347.498,233.441 346.779,232.06 345.342,232.06 M368.185,237.701 C371.227,229.534 375.628,225.451 381.389,225.451 C384.628,225.451 387.287,226.482 389.365,228.545 C391.443,230.607 392.482,233.237 392.482,236.435 C392.482,240.831 390.201,245.191 385.639,249.514 L375.92,258.748 L384.982,258.748 C388.066,258.748 390.047,258.508 390.928,258.029 C391.808,257.55 392.685,256.232 393.56,254.076 L394.998,254.076 L392.31,266.732 L367.342,266.732 L367.342,265.357 C374.185,258.076 378.727,252.706 380.967,249.248 C383.206,245.79 384.326,242.68 384.326,239.92 C384.326,237.878 383.667,236.097 382.349,234.576 C381.032,233.055 379.31,232.295 377.185,232.295 C374.102,232.295 371.665,234.097 369.873,237.701 L368.185,237.701 M397.748,246.326 C397.748,240.451 399.047,235.503 401.646,231.482 C404.245,227.461 407.467,225.451 411.31,225.451 C415.185,225.451 418.415,227.461 420.998,231.482 C423.581,235.503 424.873,240.514 424.873,246.514 C424.873,252.555 423.592,257.566 421.029,261.545 C418.467,265.524 415.248,267.514 411.373,267.514 C407.373,267.514 404.102,265.534 401.56,261.576 C399.019,257.618 397.748,252.534 397.748,246.326 M411.373,265.826 C412.696,265.826 413.696,264.928 414.373,263.131 C415.05,261.334 415.389,258.097 415.389,253.42 L415.389,239.67 C415.389,235.232 415.068,232.034 414.428,230.076 C413.787,228.118 412.727,227.139 411.248,227.139 C409.81,227.139 408.782,228.097 408.162,230.014 C407.542,231.93 407.232,235.149 407.232,239.67 L407.232,253.42 C407.232,257.857 407.553,261.034 408.193,262.951 C408.834,264.868 409.894,265.826 411.373,265.826"/>
</svg>
