<?xml version="1.0" encoding="UTF-8" standalone="no"?>
<svg width="2976.38px" height="4209.45px" viewBox="0 0 2976.38 4209.45"
 xmlns="http://www.w3.org/2000/svg" xmlns:xlink="http://www.w3.org/1999/xlink" version="1.2" baseProfile="tiny">
<title>demo_octaves</title>
<desc>Generated by MuseScore 3.2.3</desc>
<polyline class="StaffLines" fill="none" stroke="#000000" stroke-width="2.00" stroke-linejoin="bevel" points="141.732,316.732 2834.65,316.732"/>
<polyline class="StaffLines" fill="none" stroke="#000000" stroke-width="2.00" stroke-linejoin="bevel" points="141.732,341.732 2834.65,341.732"/>
<polyline class="StaffLines" fill="none" stroke="#000000" stroke-width="2.00" stroke-linejoin="bevel" points="141.732,366.732 2834.65,366.732"/>
<polyline class="StaffLines" fill="none" stroke="#000000" stroke-width="2.00" stroke-linejoin="bevel" points="141.732,391.732 2834.65,391.732"/>
<polyline class="StaffLines" fill="none" stroke="#000000" stroke-width="2.00" stroke-linejoin="bevel" points="141.732,416.732 2834.65,416.732"/>
<polyline class="BarLine" fill="none" stroke="#000000" stroke-width="4.00" stroke-linejoin="bevel" points="892.793,315.732 892.793,417.732"/>
<polyline class="BarLine" fill="none" stroke="#000000" stroke-width="4.00" stroke-linejoin="bevel" points="1580.26,315.732 1580.26,417.732"/>
<polyline class="BarLine" fill="none" stroke="#000000" stroke-width="4.00" stroke-linejoin="bevel" points="2156.25,315.732 2156.25,417.732"/>
<polyline class="BarLine" fill="none" stroke="#000000" stroke-width="4.00" stroke-linejoin="bevel" points="2810.15,315.732 2810.15,417.732"/>
<polyline class="BarLine" fill="none" stroke="#000000" stroke-width="12.50" stroke-linejoin="bevel" points="2828.4,315.732 2828.4,417.732"/>
<polyline class="LedgerLine" fill="none" stroke="#000000" stroke-width="4.00" stroke-linecap="square" stroke-linejoin="bevel" points="921.793,291.732 969.707,291.732"/>
<polyline class="LedgerLine" fill="none" stroke="#000000" stroke-width="4.00" stroke-linecap="square" stroke-linejoin="bevel" points="2185.25,291.732 2233.17,291.732"/>
<polyline class="LedgerLine" fill="none" stroke="#000000" stroke-width="4.00" stroke-linecap="square" stroke-linejoin="bevel" points="2185.25,266.732 2233.17,266.732"/>
<polyline class="LedgerLine" fill="none" stroke="#000000" stroke-width="4.00" stroke-linecap="square" stroke-linejoin="bevel" points="2339.1,291.732 2387.02,291.732"/>
<polyline class="LedgerLine" fill="none" stroke="#000000" stroke-width="4.00" stroke-linecap="square" stroke-linejoin="bevel" points="2339.1,266.732 2387.02,266.732"/>
<polyline class="LedgerLine" fill="none" stroke="#000000" stroke-width="4.00" stroke-linecap="square" stroke-linejoin="bevel" points="2492.95,291.732 2540.86,291.732"/>
<polyline class="LedgerLine" fill="none" stroke="#000000" stroke-width="4.00" stroke-linecap="square" stroke-linejoin="bevel" points="2492.95,266.732 2540.86,266.732"/>
<polyline class="LedgerLine" fill="none" stroke="#000000" stroke-width="4.00" stroke-linecap="square" stroke-linejoin="bevel" points="2492.95,241.732 2540.86,241.732"/>
<polyline class="LedgerLine" fill="none" stroke="#000000" stroke-width="4.00" stroke-linecap="square" stroke-linejoin="bevel" points="2646.8,291.732 2694.71,291.732"/>
<polyline class="LedgerLine" fill="none" stroke="#000000" stroke-width="4.00" stroke-linecap="square" stroke-linejoin="bevel" points="2646.8,266.732 2694.71,266.732"/>
<polyline class="LedgerLine" fill="none" stroke="#000000" stroke-width="4.00" stroke-linecap="square" stroke-linejoin="bevel" points="2646.8,241.732 2694.71,241.732"/>
<polyline class="Stem" fill="none" stroke="#000000" stroke-width="3.25" stroke-linecap="round" stroke-linejoin="bevel" points="375.092,374.537 375.092,297.982"/>
<polyline class="Stem" fill="none" stroke="#000000" stroke-width="3.25" stroke-linecap="round" stroke-linejoin="bevel" points="482.175,371.428 482.175,444.857"/>
<polyline class="Stem" fill="none" stroke="#000000" stroke-width="3.25" stroke-linecap="round" stroke-linejoin="bevel" points="618.923,358.928 618.923,435.482"/>
<polyline class="Stem" fill="none" stroke="#000000" stroke-width="3.25" stroke-linecap="round" stroke-linejoin="bevel" points="755.671,346.428 755.671,426.107"/>
<polyline class="Stem" fill="none" stroke="#000000" stroke-width="3.25" stroke-linecap="round" stroke-linejoin="bevel" points="930.918,296.428 930.918,379.232"/>
<polyline class="Stem" fill="none" stroke="#000000" stroke-width="3.25" stroke-linecap="round" stroke-linejoin="bevel" points="1141.58,424.537 1141.58,341.732"/>
<polyline class="Stem" fill="none" stroke="#000000" stroke-width="3.25" stroke-linecap="round" stroke-linejoin="bevel" points="1297.57,412.037 1297.57,329.232"/>
<polyline class="Stem" fill="none" stroke="#000000" stroke-width="3.25" stroke-linecap="round" stroke-linejoin="bevel" points="1453.56,399.537 1453.56,316.732"/>
<polyline class="Stem" fill="none" stroke="#000000" stroke-width="3.25" stroke-linecap="round" stroke-linejoin="bevel" points="1608.89,358.928 1608.89,435.482"/>
<polyline class="Stem" fill="none" stroke="#000000" stroke-width="3.25" stroke-linecap="round" stroke-linejoin="bevel" points="1745.64,346.428 1745.64,426.107"/>
<polyline class="Stem" fill="none" stroke="#000000" stroke-width="3.25" stroke-linecap="round" stroke-linejoin="bevel" points="1882.38,333.928 1882.38,416.732"/>
<polyline class="Stem" fill="none" stroke="#000000" stroke-width="3.25" stroke-linecap="round" stroke-linejoin="bevel" points="2019.13,321.428 2019.13,404.232"/>
<polyline class="Stem" fill="none" stroke="#000000" stroke-width="3.25" stroke-linecap="round" stroke-linejoin="bevel" points="2194.38,271.428 2194.38,366.732"/>
<polyline class="Stem" fill="none" stroke="#000000" stroke-width="3.25" stroke-linecap="round" stroke-linejoin="bevel" points="2348.23,258.928 2348.23,366.732"/>
<polyline class="Stem" fill="none" stroke="#000000" stroke-width="3.25" stroke-linecap="round" stroke-linejoin="bevel" points="2502.08,246.428 2502.08,366.732"/>
<polyline class="Stem" fill="none" stroke="#000000" stroke-width="3.25" stroke-linecap="round" stroke-linejoin="bevel" points="2655.92,233.928 2655.92,366.732"/>
<path class="Note" d="M365.771,365.467 C368.896,365.467 371.501,366.248 373.584,367.81 C375.667,369.373 376.709,371.618 376.709,374.545 C376.709,379.034 374.383,383.232 369.732,387.139 C365.081,391.045 360.084,392.998 354.74,392.998 C351.615,392.998 348.98,392.185 346.834,390.56 C344.813,388.8 343.803,386.586 343.803,383.92 C343.803,379.555 346.115,375.389 350.74,371.42 C355.365,367.451 360.376,365.467 365.771,365.467"/>
<path class="Note" d="M502.519,352.967 C505.644,352.967 508.248,353.748 510.332,355.31 C512.415,356.873 513.457,359.118 513.457,362.045 C513.457,366.534 511.131,370.732 506.48,374.639 C501.829,378.545 496.832,380.498 491.488,380.498 C488.363,380.498 485.727,379.685 483.582,378.06 C481.561,376.3 480.55,374.086 480.55,371.42 C480.55,367.055 482.863,362.889 487.488,358.92 C492.113,354.951 497.123,352.967 502.519,352.967"/>
<path class="Note" d="M639.267,340.467 C642.392,340.467 644.996,341.248 647.079,342.81 C649.163,344.373 650.204,346.618 650.204,349.545 C650.204,354.034 647.879,358.232 643.228,362.139 C638.577,366.045 633.579,367.998 628.235,367.998 C625.11,367.998 622.475,367.185 620.329,365.56 C618.308,363.8 617.298,361.586 617.298,358.92 C617.298,354.555 619.61,350.389 624.235,346.42 C628.86,342.451 633.871,340.467 639.267,340.467"/>
<path class="Note" d="M776.014,327.967 C779.139,327.967 781.744,328.748 783.827,330.31 C785.91,331.873 786.952,334.118 786.952,337.045 C786.952,341.534 784.626,345.732 779.975,349.639 C775.324,353.545 770.327,355.498 764.983,355.498 C761.858,355.498 759.223,354.685 757.077,353.06 C755.056,351.3 754.046,349.086 754.046,346.42 C754.046,342.055 756.358,337.889 760.983,333.92 C765.608,329.951 770.619,327.967 776.014,327.967"/>
<path class="Note" d="M951.262,277.967 C954.387,277.967 956.991,278.748 959.075,280.31 C961.158,281.873 962.2,284.118 962.2,287.045 C962.2,291.534 959.874,295.732 955.223,299.639 C950.572,303.545 945.575,305.498 940.231,305.498 C937.106,305.498 934.47,304.685 932.325,303.06 C930.304,301.3 929.293,299.086 929.293,296.42 C929.293,292.055 931.606,287.889 936.231,283.92 C940.856,279.951 945.866,277.967 951.262,277.967"/>
<path class="Note" d="M1132.25,415.467 C1135.38,415.467 1137.98,416.248 1140.07,417.81 C1142.15,419.373 1143.19,421.618 1143.19,424.545 C1143.19,429.034 1140.87,433.232 1136.22,437.139 C1131.56,441.045 1126.57,442.998 1121.22,442.998 C1118.1,442.998 1115.46,442.185 1113.32,440.56 C1111.3,438.8 1110.29,436.586 1110.29,433.92 C1110.29,429.555 1112.6,425.389 1117.22,421.42 C1121.85,417.451 1126.86,415.467 1132.25,415.467"/>
<path class="Note" d="M1288.25,402.967 C1291.37,402.967 1293.98,403.748 1296.06,405.31 C1298.14,406.873 1299.18,409.118 1299.18,412.045 C1299.18,416.534 1296.86,420.732 1292.21,424.639 C1287.56,428.545 1282.56,430.498 1277.22,430.498 C1274.09,430.498 1271.46,429.685 1269.31,428.06 C1267.29,426.3 1266.28,424.086 1266.28,421.42 C1266.28,417.055 1268.59,412.889 1273.22,408.92 C1277.84,404.951 1282.85,402.967 1288.25,402.967"/>
<path class="Note" d="M1444.24,390.467 C1447.37,390.467 1449.97,391.248 1452.05,392.81 C1454.14,394.373 1455.18,396.618 1455.18,399.545 C1455.18,404.034 1452.85,408.232 1448.2,412.139 C1443.55,416.045 1438.55,417.998 1433.21,417.998 C1430.08,417.998 1427.45,417.185 1425.3,415.56 C1423.28,413.8 1422.27,411.586 1422.27,408.92 C1422.27,404.555 1424.58,400.389 1429.21,396.42 C1433.83,392.451 1438.84,390.467 1444.24,390.467"/>
<path class="Note" d="M1629.23,340.467 C1632.36,340.467 1634.96,341.248 1637.05,342.81 C1639.13,344.373 1640.17,346.618 1640.17,349.545 C1640.17,354.034 1637.84,358.232 1633.19,362.139 C1628.54,366.045 1623.55,367.998 1618.2,367.998 C1615.08,367.998 1612.44,367.185 1610.3,365.56 C1608.27,363.8 1607.26,361.586 1607.26,358.92 C1607.26,354.555 1609.58,350.389 1614.2,346.42 C1618.83,342.451 1623.84,340.467 1629.23,340.467"/>
<path class="Note" d="M1765.98,327.967 C1769.11,327.967 1771.71,328.748 1773.79,330.31 C1775.88,331.873 1776.92,334.118 1776.92,337.045 C1776.92,341.534 1774.59,345.732 1769.94,349.639 C1765.29,353.545 1760.29,355.498 1754.95,355.498 C1751.82,355.498 1749.19,354.685 1747.04,353.06 C1745.02,351.3 1744.01,349.086 1744.01,346.42 C1744.01,342.055 1746.32,337.889 1750.95,333.92 C1755.57,329.951 1760.58,327.967 1765.98,327.967"/>
<path class="Note" d="M1902.73,315.467 C1905.85,315.467 1908.46,316.248 1910.54,317.81 C1912.62,319.373 1913.67,321.618 1913.67,324.545 C1913.67,329.034 1911.34,333.232 1906.69,337.139 C1902.04,341.045 1897.04,342.998 1891.7,342.998 C1888.57,342.998 1885.94,342.185 1883.79,340.56 C1881.77,338.8 1880.76,336.586 1880.76,333.92 C1880.76,329.555 1883.07,325.389 1887.7,321.42 C1892.32,317.451 1897.33,315.467 1902.73,315.467"/>
<path class="Note" d="M2039.48,302.967 C2042.6,302.967 2045.21,303.748 2047.29,305.31 C2049.37,306.873 2050.41,309.118 2050.41,312.045 C2050.41,316.534 2048.09,320.732 2043.44,324.639 C2038.79,328.545 2033.79,330.498 2028.44,330.498 C2025.32,330.498 2022.68,329.685 2020.54,328.06 C2018.52,326.3 2017.51,324.086 2017.51,321.42 C2017.51,317.055 2019.82,312.889 2024.44,308.92 C2029.07,304.951 2034.08,302.967 2039.48,302.967"/>
<path class="Note" d="M2214.72,252.967 C2217.85,252.967 2220.45,253.748 2222.54,255.31 C2224.62,256.873 2225.66,259.118 2225.66,262.045 C2225.66,266.534 2223.34,270.732 2218.68,274.639 C2214.03,278.545 2209.04,280.498 2203.69,280.498 C2200.57,280.498 2197.93,279.685 2195.79,278.06 C2193.77,276.3 2192.75,274.086 2192.75,271.42 C2192.75,267.055 2195.07,262.889 2199.69,258.92 C2204.32,254.951 2209.33,252.967 2214.72,252.967"/>
<path class="Note" d="M2368.57,240.467 C2371.7,240.467 2374.3,241.248 2376.38,242.81 C2378.47,244.373 2379.51,246.618 2379.51,249.545 C2379.51,254.034 2377.18,258.232 2372.53,262.139 C2367.88,266.045 2362.88,267.998 2357.54,267.998 C2354.42,267.998 2351.78,267.185 2349.63,265.56 C2347.61,263.8 2346.6,261.586 2346.6,258.92 C2346.6,254.555 2348.92,250.389 2353.54,246.42 C2358.17,242.451 2363.18,240.467 2368.57,240.467"/>
<path class="Note" d="M2522.42,227.967 C2525.54,227.967 2528.15,228.748 2530.23,230.31 C2532.31,231.873 2533.36,234.118 2533.36,237.045 C2533.36,241.534 2531.03,245.732 2526.38,249.639 C2521.73,253.545 2516.73,255.498 2511.39,255.498 C2508.26,255.498 2505.63,254.685 2503.48,253.06 C2501.46,251.3 2500.45,249.086 2500.45,246.42 C2500.45,242.055 2502.76,237.889 2507.39,233.92 C2512.01,229.951 2517.02,227.967 2522.42,227.967"/>
<path class="Note" d="M2676.27,215.467 C2679.39,215.467 2682,216.248 2684.08,217.81 C2686.16,219.373 2687.2,221.618 2687.2,224.545 C2687.2,229.034 2684.88,233.232 2680.23,237.139 C2675.58,241.045 2670.58,242.998 2665.24,242.998 C2662.11,242.998 2659.48,242.185 2657.33,240.56 C2655.31,238.8 2654.3,236.586 2654.3,233.92 C2654.3,229.555 2656.61,225.389 2661.24,221.42 C2665.86,217.451 2670.87,215.467 2676.27,215.467"/>
<path class="Clef" d="M220.139,332.842 C219.165,331.862 218.678,330.657 218.678,329.224 C218.678,327.792 219.165,326.589 220.139,325.615 C221.112,324.641 222.316,324.154 223.748,324.154 C225.18,324.154 226.386,324.641 227.365,325.615 C228.344,326.589 228.834,327.792 228.834,329.224 C228.834,330.657 228.344,331.862 227.365,332.842 C226.386,333.821 225.18,334.31 223.748,334.31 C222.316,334.31 221.112,333.821 220.139,332.842 M220.139,357.849 C219.165,356.876 218.678,355.672 218.678,354.24 C218.678,352.808 219.165,351.602 220.139,350.623 C221.112,349.644 222.316,349.154 223.748,349.154 C225.18,349.154 226.386,349.644 227.365,350.623 C228.344,351.602 228.834,352.808 228.834,354.24 C228.834,355.672 228.344,356.876 227.365,357.849 C226.386,358.823 225.18,359.31 223.748,359.31 C222.316,359.31 221.112,358.823 220.139,357.849 M186.256,315.467 C194.912,315.467 202.006,317.644 207.537,321.998 C212.881,326.56 215.553,332.748 215.553,340.56 C215.553,345.31 214.542,350.047 212.521,354.771 C210.501,359.495 207.865,363.612 204.615,367.123 C198.688,373.696 190.597,379.652 180.342,384.99 C170.086,390.329 164.422,392.998 163.349,392.998 C162.277,392.998 161.74,392.576 161.74,391.732 C161.74,391.409 161.87,391.118 162.131,390.857 C165.454,388.899 169.099,386.652 173.068,384.115 C177.037,381.579 181.073,378.568 185.178,375.084 C189.282,371.599 192.456,368.376 194.701,365.412 C196.946,362.448 199.011,358.79 200.896,354.435 C202.521,350.071 203.334,345.769 203.334,341.529 C203.334,335.217 201.771,329.717 198.646,325.029 C195.521,320.342 191.391,317.998 186.256,317.998 C182.61,317.998 179.42,319.219 176.685,321.662 C173.951,324.105 171.995,327.081 170.818,330.592 C172.058,330.071 173.198,329.81 174.24,329.81 C176.969,329.81 179.31,330.821 181.264,332.842 C183.217,334.862 184.193,337.24 184.193,339.974 C184.193,342.709 183.251,345.185 181.365,347.404 C179.344,349.415 176.92,350.42 174.092,350.42 C171.264,350.42 168.678,349.415 166.334,347.404 C164.115,345.185 163.006,342.675 163.006,339.873 C163.006,333.165 165.269,327.42 169.795,322.639 C174.321,317.857 179.808,315.467 186.256,315.467"/>
<path class="Clef" transform="matrix(0.8,0,0,0.8,1034.89,391.732)" d="M41.8906,32.125 L41.8906,29.9844 C41.8281,28.8802 41.6667,27.1563 41.4063,24.8125 C38.1563,25.3333 35.2604,25.5938 32.7188,25.5938 C23.6042,25.5938 15.8724,21.9948 9.52344,14.7969 C3.17448,7.59896 0,-0.979167 0,-10.9375 C0,-13.6042 0.520833,-16.8099 1.5625,-20.5547 C2.60417,-24.2995 3.5651,-26.8073 4.44531,-28.0781 C5.32552,-29.349 6.64583,-31.5781 8.40625,-34.7656 C8.92708,-35.7448 10.6198,-37.8958 13.4844,-41.2188 C14.0052,-41.9271 14.4609,-42.5104 14.8516,-42.9688 C15.2422,-43.4271 15.875,-44.2422 16.75,-45.4141 C17.625,-46.5859 18.5677,-47.6771 19.5781,-48.6875 C20.5885,-49.6979 21.4844,-50.6745 22.2656,-51.6172 C23.0469,-52.5599 23.7656,-53.3542 24.4219,-54 C22.0781,-61.75 20.6458,-67.7083 20.125,-71.875 C19.6042,-76.0417 19.3438,-81.1536 19.3438,-87.2109 C19.3438,-93.2682 20.6458,-98.7708 23.25,-103.719 C25.7813,-108.854 29.3281,-113.052 33.8906,-116.313 C34.151,-116.51 34.4922,-116.609 34.9141,-116.609 C35.3359,-116.609 35.6458,-116.51 35.8438,-116.313 C39.3542,-112.083 42.3958,-106.583 44.9688,-99.8125 C47.5417,-93.0417 48.8281,-86.7083 48.8281,-80.8125 C48.8281,-74.9167 47.3333,-69.2344 44.3438,-63.7656 C40.9583,-57.974 36.5938,-51.9844 31.25,-45.7969 C32.6146,-41.5052 34.4375,-34.7708 36.7188,-25.5938 L37.3125,-25.5938 C37.5729,-25.6563 37.7969,-25.6875 37.9844,-25.6875 C45.349,-25.6875 51.3568,-23.099 56.0078,-17.9219 C60.6589,-12.7448 62.9844,-6.77083 62.9844,0 C62.9844,8.39583 59.5052,15.1667 52.5469,20.3125 C50.526,21.8125 48.1458,22.9844 45.4063,23.8281 C45.7396,28.0573 45.9063,30.8724 45.9063,32.2734 C45.9063,33.6745 45.8385,36.1667 45.7031,39.75 C45.6406,45.8646 43.5573,51.1042 39.4531,55.4688 C35.349,59.8333 30.6615,62.0156 25.3906,62.0156 C20.1198,62.0156 15.6276,60.1432 11.9141,56.3984 C8.20052,52.6536 6.34375,48.1146 6.34375,42.7813 C6.34375,39.9792 7.42188,37.599 9.57813,35.6406 C11.7865,33.6927 14.2734,32.7188 17.0391,32.7188 C19.8047,32.7188 22.0677,33.7292 23.8281,35.75 C25.651,37.6354 26.5625,39.9115 26.5625,42.5781 C26.5625,45.2448 25.651,47.4896 23.8281,49.3125 C22.0052,51.1354 19.8229,52.0469 17.2813,52.0469 C16.2396,52.0469 15.2344,51.8542 14.2656,51.4688 C17.1302,55.6979 20.8073,57.8125 25.2969,57.8125 C29.7865,57.8125 33.6276,55.9583 36.8203,52.25 C40.013,48.5417 41.6094,44.1771 41.6094,39.1563 L41.8906,32.125 M45.0156,19.8281 C48.401,18.5885 51.0885,16.3906 53.0781,13.2344 C55.0677,10.0781 56.0625,6.9375 56.0625,3.8125 C56.0625,-0.8125 54.4661,-4.94792 51.2734,-8.59375 C48.0807,-12.2396 44.0417,-14.2917 39.1563,-14.75 C41.9583,-1.01042 43.9115,10.5156 45.0156,19.8281 M7.23438,-2.73438 C7.23438,3.71354 9.80469,9.34635 14.9453,14.1641 C20.0859,18.9818 26.1094,21.3906 33.0156,21.3906 C35.7448,21.3906 38.4115,21.1927 41.0156,20.7969 C39.974,10.901 37.9219,-0.947917 34.8594,-14.75 C31.026,-14.3542 28.0495,-13.0339 25.9297,-10.7891 C23.8099,-8.54427 22.75,-5.98958 22.75,-3.125 C22.75,1.82292 25.3906,5.82813 30.6719,8.89063 C31.1198,9.15104 31.3438,9.59115 31.3438,10.2109 C31.3438,10.8307 31.1328,11.3672 30.7109,11.8203 C30.2891,12.2734 29.9167,12.5 29.5938,12.5 C29.2708,12.5 28.849,12.4375 28.3281,12.3125 C20.7031,8.14583 16.8906,1.85938 16.8906,-6.54688 C16.8906,-10.5156 18.2917,-14.3229 21.0938,-17.9688 C24.0208,-21.6146 27.8281,-23.9583 32.5156,-25 C30.6927,-32.2917 29.1979,-37.9896 28.0313,-42.0938 C19.1146,-32.0625 13.5781,-24.6406 11.4219,-19.8281 C8.63021,-13.5781 7.23438,-7.88021 7.23438,-2.73438 M39.8438,-102.047 C34.9583,-99.6406 31.1016,-96.1589 28.2734,-91.6016 C25.4453,-87.0443 24.0313,-82.2604 24.0313,-77.25 C24.0313,-72.2396 25.2031,-65.7604 27.5469,-57.8125 C32.2344,-63.4792 35.7813,-68.7865 38.1875,-73.7344 C40.5938,-78.6823 41.7969,-83.5807 41.7969,-88.4297 C41.7969,-93.2786 41.1458,-97.8177 39.8438,-102.047"/>
<path class="TimeSig" d="M276.951,317.912 C278.446,317.912 279.878,317.685 281.248,317.232 C282.618,316.779 283.594,316.553 284.178,316.553 C284.761,316.553 285.152,316.907 285.349,317.615 C285.349,317.688 285.282,317.886 285.146,318.209 L256.74,351.224 L273.428,351.224 L273.428,338.131 C273.428,336.506 274.376,335.334 276.271,334.615 C278.219,333.896 280.433,331.001 282.912,325.928 C283.099,325.532 283.391,325.334 283.787,325.334 C284.568,325.334 285.021,325.792 285.146,326.709 L285.146,351.224 L292.287,351.224 C293.193,351.224 293.68,351.711 293.748,352.685 C293.816,353.659 293.329,354.146 292.287,354.146 L285.146,354.146 L285.146,354.928 C285.146,357.532 285.797,359.745 287.099,361.568 C288.599,363.391 290.36,364.303 292.381,364.303 C293.162,364.303 293.553,364.693 293.553,365.474 C293.553,366.256 293.016,366.646 291.943,366.646 C290.87,366.646 288.868,366.435 285.935,366.014 C283.003,365.592 280.74,365.381 279.146,365.381 C277.553,365.381 275.339,365.592 272.506,366.014 C269.672,366.435 267.542,366.646 266.115,366.646 C265.334,366.646 264.943,366.256 264.943,365.474 C264.943,364.693 265.334,364.303 266.115,364.303 C268.126,364.303 269.881,363.391 271.381,361.568 C272.745,359.683 273.428,357.469 273.428,354.928 L273.428,354.146 L256.74,354.146 C255.886,354.146 255.149,353.92 254.529,353.467 C253.909,353.014 253.599,352.592 253.599,352.201 C253.599,351.81 254.415,350.639 256.045,348.685 C257.675,346.732 260.003,342.972 263.029,337.404 C266.055,331.836 267.568,325.438 267.568,318.209 C267.568,317.167 268.027,316.646 268.943,316.646 C269.141,316.646 269.451,316.711 269.873,316.842 C270.295,316.972 271.206,317.183 272.607,317.474 C274.008,317.766 275.456,317.912 276.951,317.912"/>
<path class="TimeSig" d="M276.951,368.084 C278.446,368.084 279.878,367.857 281.248,367.404 C282.618,366.951 283.594,366.724 284.178,366.724 C284.761,366.724 285.152,367.079 285.349,367.787 C285.349,367.86 285.282,368.058 285.146,368.381 L256.74,401.396 L273.428,401.396 L273.428,388.303 C273.428,386.678 274.376,385.506 276.271,384.787 C278.219,384.068 280.433,381.172 282.912,376.099 C283.099,375.704 283.391,375.506 283.787,375.506 C284.568,375.506 285.021,375.964 285.146,376.881 L285.146,401.396 L292.287,401.396 C293.193,401.396 293.68,401.883 293.748,402.857 C293.816,403.831 293.329,404.318 292.287,404.318 L285.146,404.318 L285.146,405.099 C285.146,407.704 285.797,409.917 287.099,411.74 C288.599,413.563 290.36,414.474 292.381,414.474 C293.162,414.474 293.553,414.865 293.553,415.646 C293.553,416.428 293.016,416.818 291.943,416.818 C290.87,416.818 288.868,416.607 285.935,416.185 C283.003,415.764 280.74,415.553 279.146,415.553 C277.553,415.553 275.339,415.764 272.506,416.185 C269.672,416.607 267.542,416.818 266.115,416.818 C265.334,416.818 264.943,416.428 264.943,415.646 C264.943,414.865 265.334,414.474 266.115,414.474 C268.126,414.474 269.881,413.563 271.381,411.74 C272.745,409.855 273.428,407.641 273.428,405.099 L273.428,404.318 L256.74,404.318 C255.886,404.318 255.149,404.092 254.529,403.639 C253.909,403.185 253.599,402.764 253.599,402.373 C253.599,401.982 254.415,400.81 256.045,398.857 C257.675,396.904 260.003,393.144 263.029,387.576 C266.055,382.008 267.568,375.61 267.568,368.381 C267.568,367.339 268.027,366.818 268.943,366.818 C269.141,366.818 269.451,366.883 269.873,367.014 C270.295,367.144 271.206,367.355 272.607,367.646 C274.008,367.938 275.456,368.084 276.951,368.084"/>
<path class="Tempo" d="M268.318,254.014 C267.365,253.17 266.037,252.748 264.474,252.748 C258.537,252.748 253.803,257.139 253.803,261.81 C253.803,264.639 256.084,266.31 259.021,266.31 C263.818,266.31 269.756,261.81 269.756,257.248 L269.756,226.529 L268.318,226.529 L268.318,254.014 "/>
<path class="Tempo" d="M321.584,248.076 L288.459,248.076 L288.459,242.31 L321.584,242.31 L321.584,248.076 M321.584,260.795 L288.459,260.795 L288.459,255.029 L321.584,255.029 L321.584,260.795 M349.271,232.06 C348.792,232.06 348.222,232.159 347.56,232.357 C346.899,232.555 346.198,232.795 345.459,233.076 C344.719,233.357 344.292,233.519 344.178,233.56 L344.178,231.998 L359.287,225.451 L360.318,225.451 L360.318,259.654 C360.318,261.977 360.717,263.487 361.514,264.185 C362.31,264.883 364.068,265.253 366.787,265.295 L366.787,266.732 L344.287,266.732 L344.287,265.295 C347.245,265.253 349.175,264.862 350.076,264.123 C350.977,263.383 351.428,261.774 351.428,259.295 L351.428,236.201 C351.428,233.441 350.709,232.06 349.271,232.06 M372.115,237.701 C375.157,229.534 379.558,225.451 385.318,225.451 C388.558,225.451 391.217,226.482 393.295,228.545 C395.373,230.607 396.412,233.237 396.412,236.435 C396.412,240.831 394.131,245.191 389.568,249.514 L379.849,258.748 L388.912,258.748 C391.995,258.748 393.977,258.508 394.857,258.029 C395.737,257.55 396.615,256.232 397.49,254.076 L398.928,254.076 L396.24,266.732 L371.271,266.732 L371.271,265.357 C378.115,258.076 382.657,252.706 384.896,249.248 C387.136,245.79 388.256,242.68 388.256,239.92 C388.256,237.878 387.597,236.097 386.279,234.576 C384.961,233.055 383.24,232.295 381.115,232.295 C378.032,232.295 375.594,234.097 373.803,237.701 L372.115,237.701 M401.678,246.326 C401.678,240.451 402.977,235.503 405.576,231.482 C408.175,227.461 411.396,225.451 415.24,225.451 C419.115,225.451 422.344,227.461 424.928,231.482 C427.511,235.503 428.803,240.514 428.803,246.514 C428.803,252.555 427.521,257.566 424.959,261.545 C422.396,265.524 419.178,267.514 415.303,267.514 C411.303,267.514 408.032,265.534 405.49,261.576 C402.948,257.618 401.678,252.534 401.678,246.326 M415.303,265.826 C416.626,265.826 417.626,264.928 418.303,263.131 C418.98,261.334 419.318,258.097 419.318,253.42 L419.318,239.67 C419.318,235.232 418.998,232.034 418.357,230.076 C417.717,228.118 416.657,227.139 415.178,227.139 C413.74,227.139 412.711,228.097 412.092,230.014 C411.472,231.93 411.162,235.149 411.162,239.67 L411.162,253.42 C411.162,257.857 411.482,261.034 412.123,262.951 C412.764,264.868 413.823,265.826 415.303,265.826"/>
</svg>
