<?xml version="1.0" encoding="UTF-8" standalone="no"?>
<svg width="2976.38px" height="4209.45px" viewBox="0 0 2976.38 4209.45"
 xmlns="http://www.w3.org/2000/svg" xmlns:xlink="http://www.w3.org/1999/xlink" version="1.2" baseProfile="tiny">
<title>gamme_do_majeur</title>
<desc>Generated by MuseScore 3.2.3</desc>
<polyline class="StaffLines" fill="none" stroke="#000000" stroke-width="2.00" stroke-linejoin="bevel" points="141.732,316.732 2834.65,316.732"/>
<polyline class="StaffLines" fill="none" stroke="#000000" stroke-width="2.00" stroke-linejoin="bevel" points="141.732,341.732 2834.65,341.732"/>
<polyline class="StaffLines" fill="none" stroke="#000000" stroke-width="2.00" stroke-linejoin="bevel" points="141.732,366.732 2834.65,366.732"/>
<polyline class="StaffLines" fill="none" stroke="#000000" stroke-width="2.00" stroke-linejoin="bevel" points="141.732,391.732 2834.65,391.732"/>
<polyline class="StaffLines" fill="none" stroke="#000000" stroke-width="2.00" stroke-linejoin="bevel" points="141.732,416.732 2834.65,416.732"/>
<polyline class="BarLine" fill="none" stroke="#000000" stroke-width="4.00" stroke-linejoin="bevel" points="950.016,315.732 950.016,417.732"/>
<polyline class="BarLine" fill="none" stroke="#000000" stroke-width="4.00" stroke-linejoin="bevel" points="1566.26,315.732 1566.26,417.732"/>
<polyline class="BarLine" fill="none" stroke="#000000" stroke-width="4.00" stroke-linejoin="bevel" points="2182.5,315.732 2182.5,417.732"/>
<polyline class="BarLine" fill="none" stroke="#000000" stroke-width="4.00" stroke-linejoin="bevel" points="2810.15,315.732 2810.15,417.732"/>
<polyline class="BarLine" fill="none" stroke="#000000" stroke-width="12.50" stroke-linejoin="bevel" points="2828.4,315.732 2828.4,417.732"/>
<polyline class="LedgerLine" fill="none" stroke="#000000" stroke-width="4.00" stroke-linecap="square" stroke-linejoin="bevel" points="341.873,441.732 389.787,441.732"/>
<polyline class="LedgerLine" fill="none" stroke="#000000" stroke-width="4.00" stroke-linecap="square" stroke-linejoin="bevel" points="2650.98,441.732 2698.9,441.732"/>
<polyline class="Stem" fill="none" stroke="#000000" stroke-width="3.25" stroke-linecap="round" stroke-linejoin="bevel" points="380.662,437.037 380.662,354.232"/>
<polyline class="Stem" fill="none" stroke="#000000" stroke-width="3.25" stroke-linecap="round" stroke-linejoin="bevel" points="530.323,424.537 530.323,341.732"/>
<polyline class="Stem" fill="none" stroke="#000000" stroke-width="3.25" stroke-linecap="round" stroke-linejoin="bevel" points="679.984,412.037 679.984,329.232"/>
<polyline class="Stem" fill="none" stroke="#000000" stroke-width="3.25" stroke-linecap="round" stroke-linejoin="bevel" points="829.644,399.537 829.644,316.732"/>
<polyline class="Stem" fill="none" stroke="#000000" stroke-width="3.25" stroke-linecap="round" stroke-linejoin="bevel" points="1008.31,387.037 1008.31,307.357"/>
<polyline class="Stem" fill="none" stroke="#000000" stroke-width="3.25" stroke-linecap="round" stroke-linejoin="bevel" points="1155.12,374.537 1155.12,297.982"/>
<polyline class="Stem" fill="none" stroke="#000000" stroke-width="3.25" stroke-linecap="round" stroke-linejoin="bevel" points="1272.26,371.428 1272.26,444.857"/>
<polyline class="Stem" fill="none" stroke="#000000" stroke-width="3.25" stroke-linecap="round" stroke-linejoin="bevel" points="1419.07,358.928 1419.07,435.482"/>
<polyline class="Stem" fill="none" stroke="#000000" stroke-width="3.25" stroke-linecap="round" stroke-linejoin="bevel" points="1594.88,358.928 1594.88,435.482"/>
<polyline class="Stem" fill="none" stroke="#000000" stroke-width="3.25" stroke-linecap="round" stroke-linejoin="bevel" points="1741.7,371.428 1741.7,444.857"/>
<polyline class="Stem" fill="none" stroke="#000000" stroke-width="3.25" stroke-linecap="round" stroke-linejoin="bevel" points="1918.17,374.537 1918.17,297.982"/>
<polyline class="Stem" fill="none" stroke="#000000" stroke-width="3.25" stroke-linecap="round" stroke-linejoin="bevel" points="2064.98,387.037 2064.98,307.357"/>
<polyline class="Stem" fill="none" stroke="#000000" stroke-width="3.25" stroke-linecap="round" stroke-linejoin="bevel" points="2240.79,399.537 2240.79,316.732"/>
<polyline class="Stem" fill="none" stroke="#000000" stroke-width="3.25" stroke-linecap="round" stroke-linejoin="bevel" points="2390.45,412.037 2390.45,329.232"/>
<polyline class="Stem" fill="none" stroke="#000000" stroke-width="3.25" stroke-linecap="round" stroke-linejoin="bevel" points="2540.11,424.537 2540.11,341.732"/>
<polyline class="Stem" fill="none" stroke="#000000" stroke-width="3.25" stroke-linecap="round" stroke-linejoin="bevel" points="2689.77,437.037 2689.77,354.232"/>
<path class="Note" d="M371.342,427.967 C374.467,427.967 377.071,428.748 379.154,430.31 C381.237,431.873 382.279,434.118 382.279,437.045 C382.279,441.534 379.954,445.732 375.303,449.639 C370.652,453.545 365.654,455.498 360.31,455.498 C357.185,455.498 354.55,454.685 352.404,453.06 C350.383,451.3 349.373,449.086 349.373,446.42 C349.373,442.055 351.685,437.889 356.31,433.92 C360.935,429.951 365.946,427.967 371.342,427.967"/>
<path class="Note" d="M521.002,415.467 C524.127,415.467 526.732,416.248 528.815,417.81 C530.898,419.373 531.94,421.618 531.94,424.545 C531.94,429.034 529.614,433.232 524.963,437.139 C520.312,441.045 515.315,442.998 509.971,442.998 C506.846,442.998 504.211,442.185 502.065,440.56 C500.044,438.8 499.034,436.586 499.034,433.92 C499.034,429.555 501.346,425.389 505.971,421.42 C510.596,417.451 515.607,415.467 521.002,415.467"/>
<path class="Note" d="M670.663,402.967 C673.788,402.967 676.392,403.748 678.476,405.31 C680.559,406.873 681.601,409.118 681.601,412.045 C681.601,416.534 679.275,420.732 674.624,424.639 C669.973,428.545 664.976,430.498 659.632,430.498 C656.507,430.498 653.872,429.685 651.726,428.06 C649.705,426.3 648.695,424.086 648.695,421.42 C648.695,417.055 651.007,412.889 655.632,408.92 C660.257,404.951 665.267,402.967 670.663,402.967"/>
<path class="Note" d="M820.324,390.467 C823.449,390.467 826.053,391.248 828.137,392.81 C830.22,394.373 831.262,396.618 831.262,399.545 C831.262,404.034 828.936,408.232 824.285,412.139 C819.634,416.045 814.637,417.998 809.293,417.998 C806.168,417.998 803.532,417.185 801.387,415.56 C799.366,413.8 798.355,411.586 798.355,408.92 C798.355,404.555 800.668,400.389 805.293,396.42 C809.918,392.451 814.928,390.467 820.324,390.467"/>
<path class="Note" d="M998.985,377.967 C1002.11,377.967 1004.71,378.748 1006.8,380.31 C1008.88,381.873 1009.92,384.118 1009.92,387.045 C1009.92,391.534 1007.6,395.732 1002.95,399.639 C998.295,403.545 993.297,405.498 987.954,405.498 C984.829,405.498 982.193,404.685 980.047,403.06 C978.027,401.3 977.016,399.086 977.016,396.42 C977.016,392.055 979.329,387.889 983.954,383.92 C988.579,379.951 993.589,377.967 998.985,377.967"/>
<path class="Note" d="M1145.8,365.467 C1148.92,365.467 1151.52,366.248 1153.61,367.81 C1155.69,369.373 1156.73,371.618 1156.73,374.545 C1156.73,379.034 1154.41,383.232 1149.76,387.139 C1145.11,391.045 1140.11,392.998 1134.76,392.998 C1131.64,392.998 1129,392.185 1126.86,390.56 C1124.84,388.8 1123.83,386.586 1123.83,383.92 C1123.83,379.555 1126.14,375.389 1130.76,371.42 C1135.39,367.451 1140.4,365.467 1145.8,365.467"/>
<path class="Note" d="M1292.61,352.967 C1295.73,352.967 1298.34,353.748 1300.42,355.31 C1302.5,356.873 1303.54,359.118 1303.54,362.045 C1303.54,366.534 1301.22,370.732 1296.57,374.639 C1291.92,378.545 1286.92,380.498 1281.58,380.498 C1278.45,380.498 1275.81,379.685 1273.67,378.06 C1271.65,376.3 1270.64,374.086 1270.64,371.42 C1270.64,367.055 1272.95,362.889 1277.58,358.92 C1282.2,354.951 1287.21,352.967 1292.61,352.967"/>
<path class="Note" d="M1439.42,340.467 C1442.54,340.467 1445.15,341.248 1447.23,342.81 C1449.31,344.373 1450.35,346.618 1450.35,349.545 C1450.35,354.034 1448.03,358.232 1443.38,362.139 C1438.73,366.045 1433.73,367.998 1428.39,367.998 C1425.26,367.998 1422.63,367.185 1420.48,365.56 C1418.46,363.8 1417.45,361.586 1417.45,358.92 C1417.45,354.555 1419.76,350.389 1424.39,346.42 C1429.01,342.451 1434.02,340.467 1439.42,340.467"/>
<path class="Note" d="M1615.23,340.467 C1618.35,340.467 1620.96,341.248 1623.04,342.81 C1625.12,344.373 1626.17,346.618 1626.17,349.545 C1626.17,354.034 1623.84,358.232 1619.19,362.139 C1614.54,366.045 1609.54,367.998 1604.2,367.998 C1601.07,367.998 1598.44,367.185 1596.29,365.56 C1594.27,363.8 1593.26,361.586 1593.26,358.92 C1593.26,354.555 1595.57,350.389 1600.2,346.42 C1604.82,342.451 1609.83,340.467 1615.23,340.467"/>
<path class="Note" d="M1762.04,352.967 C1765.16,352.967 1767.77,353.748 1769.85,355.31 C1771.93,356.873 1772.98,359.118 1772.98,362.045 C1772.98,366.534 1770.65,370.732 1766,374.639 C1761.35,378.545 1756.35,380.498 1751.01,380.498 C1747.88,380.498 1745.25,379.685 1743.1,378.06 C1741.08,376.3 1740.07,374.086 1740.07,371.42 C1740.07,367.055 1742.38,362.889 1747.01,358.92 C1751.63,354.951 1756.64,352.967 1762.04,352.967"/>
<path class="Note" d="M1908.85,365.467 C1911.97,365.467 1914.58,366.248 1916.66,367.81 C1918.75,369.373 1919.79,371.618 1919.79,374.545 C1919.79,379.034 1917.46,383.232 1912.81,387.139 C1908.16,391.045 1903.16,392.998 1897.82,392.998 C1894.69,392.998 1892.06,392.185 1889.91,390.56 C1887.89,388.8 1886.88,386.586 1886.88,383.92 C1886.88,379.555 1889.19,375.389 1893.82,371.42 C1898.44,367.451 1903.45,365.467 1908.85,365.467"/>
<path class="Note" d="M2055.66,377.967 C2058.79,377.967 2061.39,378.748 2063.47,380.31 C2065.56,381.873 2066.6,384.118 2066.6,387.045 C2066.6,391.534 2064.27,395.732 2059.62,399.639 C2054.97,403.545 2049.97,405.498 2044.63,405.498 C2041.5,405.498 2038.87,404.685 2036.72,403.06 C2034.7,401.3 2033.69,399.086 2033.69,396.42 C2033.69,392.055 2036,387.889 2040.63,383.92 C2045.25,379.951 2050.26,377.967 2055.66,377.967"/>
<path class="Note" d="M2231.47,390.467 C2234.6,390.467 2237.2,391.248 2239.28,392.81 C2241.37,394.373 2242.41,396.618 2242.41,399.545 C2242.41,404.034 2240.08,408.232 2235.43,412.139 C2230.78,416.045 2225.78,417.998 2220.44,417.998 C2217.31,417.998 2214.68,417.185 2212.53,415.56 C2210.51,413.8 2209.5,411.586 2209.5,408.92 C2209.5,404.555 2211.81,400.389 2216.44,396.42 C2221.06,392.451 2226.08,390.467 2231.47,390.467"/>
<path class="Note" d="M2381.13,402.967 C2384.26,402.967 2386.86,403.748 2388.94,405.31 C2391.03,406.873 2392.07,409.118 2392.07,412.045 C2392.07,416.534 2389.74,420.732 2385.09,424.639 C2380.44,428.545 2375.44,430.498 2370.1,430.498 C2366.98,430.498 2364.34,429.685 2362.19,428.06 C2360.17,426.3 2359.16,424.086 2359.16,421.42 C2359.16,417.055 2361.48,412.889 2366.1,408.92 C2370.73,404.951 2375.74,402.967 2381.13,402.967"/>
<path class="Note" d="M2530.79,415.467 C2533.92,415.467 2536.52,416.248 2538.61,417.81 C2540.69,419.373 2541.73,421.618 2541.73,424.545 C2541.73,429.034 2539.4,433.232 2534.75,437.139 C2530.1,441.045 2525.11,442.998 2519.76,442.998 C2516.64,442.998 2514,442.185 2511.86,440.56 C2509.83,438.8 2508.82,436.586 2508.82,433.92 C2508.82,429.555 2511.14,425.389 2515.76,421.42 C2520.39,417.451 2525.4,415.467 2530.79,415.467"/>
<path class="Note" d="M2680.45,427.967 C2683.58,427.967 2686.18,428.748 2688.27,430.31 C2690.35,431.873 2691.39,434.118 2691.39,437.045 C2691.39,441.534 2689.07,445.732 2684.41,449.639 C2679.76,453.545 2674.77,455.498 2669.42,455.498 C2666.3,455.498 2663.66,454.685 2661.52,453.06 C2659.5,451.3 2658.48,449.086 2658.48,446.42 C2658.48,442.055 2660.8,437.889 2665.42,433.92 C2670.05,429.951 2675.06,427.967 2680.45,427.967"/>
<path class="Clef" d="M203.623,423.857 L203.623,421.717 C203.56,420.612 203.399,418.889 203.139,416.545 C199.889,417.066 196.993,417.326 194.451,417.326 C185.336,417.326 177.605,413.727 171.256,406.529 C164.907,399.331 161.732,390.753 161.732,380.795 C161.732,378.128 162.253,374.922 163.295,371.178 C164.336,367.433 165.297,364.925 166.178,363.654 C167.058,362.383 168.378,360.154 170.139,356.967 C170.659,355.987 172.352,353.836 175.217,350.514 C175.737,349.805 176.193,349.222 176.584,348.764 C176.974,348.305 177.607,347.49 178.482,346.318 C179.357,345.146 180.3,344.055 181.31,343.045 C182.321,342.034 183.217,341.058 183.998,340.115 C184.779,339.172 185.498,338.378 186.154,337.732 C183.81,329.982 182.378,324.024 181.857,319.857 C181.336,315.691 181.076,310.579 181.076,304.521 C181.076,298.464 182.378,292.961 184.982,288.014 C187.514,282.878 191.06,278.68 195.623,275.42 C195.883,275.222 196.224,275.123 196.646,275.123 C197.068,275.123 197.378,275.222 197.576,275.42 C201.086,279.649 204.128,285.149 206.701,291.92 C209.274,298.691 210.56,305.024 210.56,310.92 C210.56,316.816 209.066,322.498 206.076,327.967 C202.691,333.758 198.326,339.748 192.982,345.935 C194.347,350.227 196.17,356.961 198.451,366.139 L199.045,366.139 C199.305,366.076 199.529,366.045 199.717,366.045 C207.081,366.045 213.089,368.633 217.74,373.81 C222.391,378.987 224.717,384.961 224.717,391.732 C224.717,400.128 221.237,406.899 214.279,412.045 C212.258,413.545 209.878,414.717 207.139,415.56 C207.472,419.79 207.639,422.605 207.639,424.006 C207.639,425.407 207.571,427.899 207.435,431.482 C207.373,437.597 205.29,442.836 201.185,447.201 C197.081,451.566 192.394,453.748 187.123,453.748 C181.852,453.748 177.36,451.876 173.646,448.131 C169.933,444.386 168.076,439.847 168.076,434.514 C168.076,431.711 169.154,429.331 171.31,427.373 C173.519,425.425 176.006,424.451 178.771,424.451 C181.537,424.451 183.8,425.461 185.56,427.482 C187.383,429.368 188.295,431.644 188.295,434.31 C188.295,436.977 187.383,439.222 185.56,441.045 C183.737,442.868 181.555,443.779 179.014,443.779 C177.972,443.779 176.967,443.586 175.998,443.201 C178.862,447.43 182.54,449.545 187.029,449.545 C191.519,449.545 195.36,447.691 198.553,443.982 C201.745,440.274 203.342,435.909 203.342,430.889 L203.623,423.857 M206.748,411.56 C210.133,410.321 212.821,408.123 214.81,404.967 C216.8,401.81 217.795,398.67 217.795,395.545 C217.795,390.92 216.198,386.784 213.006,383.139 C209.813,379.493 205.774,377.441 200.889,376.982 C203.691,390.722 205.644,402.248 206.748,411.56 M168.967,388.998 C168.967,395.446 171.537,401.079 176.678,405.896 C181.818,410.714 187.842,413.123 194.748,413.123 C197.477,413.123 200.144,412.925 202.748,412.529 C201.706,402.633 199.654,390.784 196.592,376.982 C192.758,377.378 189.782,378.698 187.662,380.943 C185.542,383.188 184.482,385.743 184.482,388.607 C184.482,393.555 187.123,397.56 192.404,400.623 C192.852,400.883 193.076,401.323 193.076,401.943 C193.076,402.563 192.865,403.099 192.443,403.553 C192.021,404.006 191.649,404.232 191.326,404.232 C191.003,404.232 190.581,404.17 190.06,404.045 C182.435,399.878 178.623,393.592 178.623,385.185 C178.623,381.217 180.024,377.409 182.826,373.764 C185.753,370.118 189.56,367.774 194.248,366.732 C192.425,359.441 190.93,353.743 189.764,349.639 C180.847,359.67 175.31,367.092 173.154,371.904 C170.362,378.154 168.967,383.852 168.967,388.998 M201.576,289.685 C196.691,292.092 192.834,295.573 190.006,300.131 C187.178,304.688 185.764,309.472 185.764,314.482 C185.764,319.493 186.935,325.972 189.279,333.92 C193.967,328.253 197.514,322.946 199.92,317.998 C202.326,313.05 203.529,308.152 203.529,303.303 C203.529,298.454 202.878,293.915 201.576,289.685"/>
<path class="TimeSig" d="M273.021,317.912 C274.516,317.912 275.948,317.685 277.318,317.232 C278.688,316.779 279.665,316.553 280.248,316.553 C280.831,316.553 281.222,316.907 281.42,317.615 C281.42,317.688 281.352,317.886 281.217,318.209 L252.81,351.224 L269.498,351.224 L269.498,338.131 C269.498,336.506 270.446,335.334 272.342,334.615 C274.29,333.896 276.503,331.001 278.982,325.928 C279.17,325.532 279.461,325.334 279.857,325.334 C280.639,325.334 281.092,325.792 281.217,326.709 L281.217,351.224 L288.357,351.224 C289.264,351.224 289.751,351.711 289.818,352.685 C289.886,353.659 289.399,354.146 288.357,354.146 L281.217,354.146 L281.217,354.928 C281.217,357.532 281.868,359.745 283.17,361.568 C284.67,363.391 286.43,364.303 288.451,364.303 C289.232,364.303 289.623,364.693 289.623,365.474 C289.623,366.256 289.086,366.646 288.014,366.646 C286.941,366.646 284.938,366.435 282.006,366.014 C279.073,365.592 276.81,365.381 275.217,365.381 C273.623,365.381 271.409,365.592 268.576,366.014 C265.743,366.435 263.612,366.646 262.185,366.646 C261.404,366.646 261.014,366.256 261.014,365.474 C261.014,364.693 261.404,364.303 262.185,364.303 C264.196,364.303 265.951,363.391 267.451,361.568 C268.816,359.683 269.498,357.469 269.498,354.928 L269.498,354.146 L252.81,354.146 C251.956,354.146 251.219,353.92 250.599,353.467 C249.98,353.014 249.67,352.592 249.67,352.201 C249.67,351.81 250.485,350.639 252.115,348.685 C253.745,346.732 256.073,342.972 259.099,337.404 C262.126,331.836 263.639,325.438 263.639,318.209 C263.639,317.167 264.097,316.646 265.014,316.646 C265.211,316.646 265.521,316.711 265.943,316.842 C266.365,316.972 267.277,317.183 268.678,317.474 C270.079,317.766 271.527,317.912 273.021,317.912"/>
<path class="TimeSig" d="M273.021,368.084 C274.516,368.084 275.948,367.857 277.318,367.404 C278.688,366.951 279.665,366.724 280.248,366.724 C280.831,366.724 281.222,367.079 281.42,367.787 C281.42,367.86 281.352,368.058 281.217,368.381 L252.81,401.396 L269.498,401.396 L269.498,388.303 C269.498,386.678 270.446,385.506 272.342,384.787 C274.29,384.068 276.503,381.172 278.982,376.099 C279.17,375.704 279.461,375.506 279.857,375.506 C280.639,375.506 281.092,375.964 281.217,376.881 L281.217,401.396 L288.357,401.396 C289.264,401.396 289.751,401.883 289.818,402.857 C289.886,403.831 289.399,404.318 288.357,404.318 L281.217,404.318 L281.217,405.099 C281.217,407.704 281.868,409.917 283.17,411.74 C284.67,413.563 286.43,414.474 288.451,414.474 C289.232,414.474 289.623,414.865 289.623,415.646 C289.623,416.428 289.086,416.818 288.014,416.818 C286.941,416.818 284.938,416.607 282.006,416.185 C279.073,415.764 276.81,415.553 275.217,415.553 C273.623,415.553 271.409,415.764 268.576,416.185 C265.743,416.607 263.612,416.818 262.185,416.818 C261.404,416.818 261.014,416.428 261.014,415.646 C261.014,414.865 261.404,414.474 262.185,414.474 C264.196,414.474 265.951,413.563 267.451,411.74 C268.816,409.855 269.498,407.641 269.498,405.099 L269.498,404.318 L252.81,404.318 C251.956,404.318 251.219,404.092 250.599,403.639 C249.98,403.185 249.67,402.764 249.67,402.373 C249.67,401.982 250.485,400.81 252.115,398.857 C253.745,396.904 256.073,393.144 259.099,387.576 C262.126,382.008 263.639,375.61 263.639,368.381 C263.639,367.339 264.097,366.818 265.014,366.818 C265.211,366.818 265.521,366.883 265.943,367.014 C266.365,367.144 267.277,367.355 268.678,367.646 C270.079,367.938 271.527,368.084 273.021,368.084"/>
<path class="Tempo" d="M264.389,254.014 C263.435,253.17 262.107,252.748 260.545,252.748 C254.607,252.748 249.873,257.139 249.873,261.81 C249.873,264.639 252.154,266.31 255.092,266.31 C259.889,266.31 265.826,261.81 265.826,257.248 L265.826,226.529 L264.389,226.529 L264.389,254.014 "/>
<path class="Tempo" d="M317.654,248.076 L284.529,248.076 L284.529,242.31 L317.654,242.31 L317.654,248.076 M317.654,260.795 L284.529,260.795 L284.529,255.029 L317.654,255.029 L317.654,260.795 M345.342,232.06 C344.862,232.06 344.292,232.159 343.631,232.357 C342.969,232.555 342.269,232.795 341.529,233.076 C340.79,233.357 340.362,233.519 340.248,233.56 L340.248,231.998 L355.357,225.451 L356.389,225.451 L356.389,259.654 C356.389,261.977 356.787,263.487 357.584,264.185 C358.381,264.883 360.139,265.253 362.857,265.295 L362.857,266.732 L340.357,266.732 L340.357,265.295 C343.316,265.253 345.245,264.862 346.146,264.123 C347.047,263.383 347.498,261.774 347.498,259.295 L347.498,236.201 C347.498,233.441 346.779,232.06 345.342,232.06 M368.185,237.701 C371.227,229.534 375.628,225.451 381.389,225.451 C384.628,225.451 387.287,226.482 389.365,228.545 C391.443,230.607 392.482,233.237 392.482,236.435 C392.482,240.831 390.201,245.191 385.639,249.514 L375.92,258.748 L384.982,258.748 C388.066,258.748 390.047,258.508 390.928,258.029 C391.808,257.55 392.685,256.232 393.56,254.076 L394.998,254.076 L392.31,266.732 L367.342,266.732 L367.342,265.357 C374.185,258.076 378.727,252.706 380.967,249.248 C383.206,245.79 384.326,242.68 384.326,239.92 C384.326,237.878 383.667,236.097 382.349,234.576 C381.032,233.055 379.31,232.295 377.185,232.295 C374.102,232.295 371.665,234.097 369.873,237.701 L368.185,237.701 M397.748,246.326 C397.748,240.451 399.047,235.503 401.646,231.482 C404.245,227.461 407.467,225.451 411.31,225.451 C415.185,225.451 418.415,227.461 420.998,231.482 C423.581,235.503 424.873,240.514 424.873,246.514 C424.873,252.555 423.592,257.566 421.029,261.545 C418.467,265.524 415.248,267.514 411.373,267.514 C407.373,267.514 404.102,265.534 401.56,261.576 C399.019,257.618 397.748,252.534 397.748,246.326 M411.373,265.826 C412.696,265.826 413.696,264.928 414.373,263.131 C415.05,261.334 415.389,258.097 415.389,253.42 L415.389,239.67 C415.389,235.232 415.068,232.034 414.428,230.076 C413.787,228.118 412.727,227.139 411.248,227.139 C409.81,227.139 408.782,228.097 408.162,230.014 C407.542,231.93 407.232,235.149 407.232,239.67 L407.232,253.42 C407.232,257.857 407.553,261.034 408.193,262.951 C408.834,264.868 409.894,265.826 411.373,265.826"/>
</svg>
