<?xml version="1.0" encoding="UTF-8" standalone="no"?>
<svg width="2976.38px" height="4209.45px" viewBox="0 0 2976.38 4209.45"
 xmlns="http://www.w3.org/2000/svg" xmlns:xlink="http://www.w3.org/1999/xlink" version="1.2" baseProfile="tiny">
<title>gigue</title>
<desc>Generated by MuseScore 3.2.3</desc>
<polyline class="StaffLines" fill="none" stroke="#000000" stroke-width="2.00" stroke-linejoin="bevel" points="141.732,316.732 2834.65,316.732"/>
<polyline class="StaffLines" fill="none" stroke="#000000" stroke-width="2.00" stroke-linejoin="bevel" points="141.732,341.732 2834.65,341.732"/>
<polyline class="StaffLines" fill="none" stroke="#000000" stroke-width="2.00" stroke-linejoin="bevel" points="141.732,366.732 2834.65,366.732"/>
<polyline class="StaffLines" fill="none" stroke="#000000" stroke-width="2.00" stroke-linejoin="bevel" points="141.732,391.732 2834.65,391.732"/>
<polyline class="StaffLines" fill="none" stroke="#000000" stroke-width="2.00" stroke-linejoin="bevel" points="141.732,416.732 2834.65,416.732"/>
<polyline class="StaffLines" fill="none" stroke="#000000" stroke-width="2.00" stroke-linejoin="bevel" points="141.732,791.732 2834.65,791.732"/>
<polyline class="StaffLines" fill="none" stroke="#000000" stroke-width="2.00" stroke-linejoin="bevel" points="141.732,816.732 2834.65,816.732"/>
<polyline class="StaffLines" fill="none" stroke="#000000" stroke-width="2.00" stroke-linejoin="bevel" points="141.732,841.732 2834.65,841.732"/>
<polyline class="StaffLines" fill="none" stroke="#000000" stroke-width="2.00" stroke-linejoin="bevel" points="141.732,866.732 2834.65,866.732"/>
<polyline class="StaffLines" fill="none" stroke="#000000" stroke-width="2.00" stroke-linejoin="bevel" points="141.732,891.732 2834.65,891.732"/>
<path class="MeasureNumber" d="M127.045,718.014 C126.566,718.014 125.607,718.305 124.17,718.889 L124.17,718.342 L131.373,714.701 L131.685,714.779 L131.685,738.779 C131.685,739.737 131.925,740.362 132.404,740.654 C132.883,740.946 133.909,741.107 135.482,741.139 L135.482,741.732 L124.451,741.732 L124.451,741.139 C125.941,741.076 126.946,740.852 127.467,740.467 C127.987,740.081 128.248,739.264 128.248,738.014 L128.248,719.889 C128.248,718.639 127.847,718.014 127.045,718.014 M156.271,738.451 C154.62,741.014 152.435,742.295 149.717,742.295 C146.998,742.295 144.81,740.987 143.154,738.373 C141.498,735.758 140.67,732.399 140.67,728.295 C140.67,724.43 141.498,721.198 143.154,718.599 C144.81,716.001 147.05,714.701 149.873,714.701 C152.487,714.701 154.62,715.98 156.271,718.537 C157.922,721.094 158.748,724.425 158.748,728.529 C158.748,732.581 157.922,735.889 156.271,738.451 M149.748,715.732 C146.258,715.732 144.514,720.04 144.514,728.654 C144.514,737.05 146.248,741.248 149.717,741.248 C153.185,741.248 154.92,737.034 154.92,728.607 C154.92,724.43 154.48,721.24 153.599,719.037 C152.719,716.834 151.435,715.732 149.748,715.732"/>
<path class="TieSegment" stroke="#000000" stroke-width="1.75" stroke-linecap="round" stroke-linejoin="round" fill-rule="evenodd" d="M1329.17,435.482 C1341.49,443.482 1378.44,443.482 1390.76,435.482 C1378.44,447.482 1341.49,447.482 1329.17,435.482"/>
<path class="TieSegment" stroke="#000000" stroke-width="1.75" stroke-linecap="round" stroke-linejoin="round" fill-rule="evenodd" d="M2383.1,313.232 C2394.3,301.232 2427.89,301.232 2439.09,313.232 C2427.89,305.232 2394.3,305.232 2383.1,313.232"/>
<path class="TieSegment" stroke="#000000" stroke-width="1.75" stroke-linecap="round" stroke-linejoin="round" fill-rule="evenodd" d="M1329.17,435.482 C1341.49,443.482 1378.44,443.482 1390.76,435.482 C1378.44,447.482 1341.49,447.482 1329.17,435.482"/>
<path class="TieSegment" stroke="#000000" stroke-width="1.75" stroke-linecap="round" stroke-linejoin="round" fill-rule="evenodd" d="M2383.1,313.232 C2394.3,301.232 2427.89,301.232 2439.09,313.232 C2427.89,305.232 2394.3,305.232 2383.1,313.232"/>
<path class="TieSegment" stroke="#000000" stroke-width="1.75" stroke-linecap="round" stroke-linejoin="round" fill-rule="evenodd" d="M1165.87,910.482 C1185.92,923.715 1246.05,923.715 1266.09,910.482 C1246.05,927.715 1185.92,927.715 1165.87,910.482"/>
<path class="TieSegment" stroke="#000000" stroke-width="1.75" stroke-linecap="round" stroke-linejoin="round" fill-rule="evenodd" d="M2585.18,790.219 C2601.82,775.57 2651.75,775.57 2668.39,790.219 C2651.75,779.57 2601.82,779.57 2585.18,790.219"/>
<path class="TieSegment" stroke="#000000" stroke-width="1.75" stroke-linecap="round" stroke-linejoin="round" fill-rule="evenodd" d="M1165.87,910.482 C1185.92,923.715 1246.05,923.715 1266.09,910.482 C1246.05,927.715 1185.92,927.715 1165.87,910.482"/>
<path class="TieSegment" stroke="#000000" stroke-width="1.75" stroke-linecap="round" stroke-linejoin="round" fill-rule="evenodd" d="M2585.18,790.219 C2601.82,775.57 2651.75,775.57 2668.39,790.219 C2651.75,779.57 2601.82,779.57 2585.18,790.219"/>
<polyline class="BarLine" stroke="#000000" stroke-width="4.00" stroke-linejoin="bevel" points="680.737,315.732 680.737,417.732"/>
<polyline class="BarLine" stroke="#000000" stroke-width="4.00" stroke-linejoin="bevel" points="921.535,315.732 921.535,417.732"/>
<polyline class="BarLine" stroke="#000000" stroke-width="4.00" stroke-linejoin="bevel" points="1217.59,315.732 1217.59,417.732"/>
<polyline class="BarLine" stroke="#000000" stroke-width="4.00" stroke-linejoin="bevel" points="1515.89,315.732 1515.89,417.732"/>
<polyline class="BarLine" stroke="#000000" stroke-width="4.00" stroke-linejoin="bevel" points="1811.95,315.732 1811.95,417.732"/>
<polyline class="BarLine" stroke="#000000" stroke-width="4.00" stroke-linejoin="bevel" points="2052.74,315.732 2052.74,417.732"/>
<polyline class="BarLine" stroke="#000000" stroke-width="4.00" stroke-linejoin="bevel" points="2293.54,315.732 2293.54,417.732"/>
<polyline class="BarLine" stroke="#000000" stroke-width="4.00" stroke-linejoin="bevel" points="2536.59,315.732 2536.59,417.732"/>
<polyline class="BarLine" stroke="#000000" stroke-width="4.00" stroke-linejoin="bevel" points="2832.65,315.732 2832.65,417.732"/>
<polyline class="BarLine" stroke="#000000" stroke-width="4.00" stroke-linejoin="bevel" points="664.126,790.732 664.126,892.732"/>
<polyline class="BarLine" stroke="#000000" stroke-width="4.00" stroke-linejoin="bevel" points="1048.67,790.732 1048.67,892.732"/>
<polyline class="BarLine" stroke="#000000" stroke-width="4.00" stroke-linejoin="bevel" points="1435.47,790.732 1435.47,892.732"/>
<polyline class="BarLine" stroke="#000000" stroke-width="4.00" stroke-linejoin="bevel" points="1820.02,790.732 1820.02,892.732"/>
<polyline class="BarLine" stroke="#000000" stroke-width="4.00" stroke-linejoin="bevel" points="2149.31,790.732 2149.31,892.732"/>
<polyline class="BarLine" stroke="#000000" stroke-width="4.00" stroke-linejoin="bevel" points="2478.6,790.732 2478.6,892.732"/>
<polyline class="BarLine" stroke="#000000" stroke-width="4.00" stroke-linejoin="bevel" points="2810.15,790.732 2810.15,892.732"/>
<polyline class="BarLine" stroke="#000000" stroke-width="12.50" stroke-linejoin="bevel" points="2828.4,790.732 2828.4,892.732"/>
<polyline class="Stem" stroke="#000000" stroke-width="3.25" stroke-linecap="round" stroke-linejoin="bevel" points="442.974,374.537 442.974,297.982"/>
<polyline class="Stem" stroke="#000000" stroke-width="3.25" stroke-linecap="round" stroke-linejoin="bevel" points="476.498,346.428 476.498,426.107"/>
<polyline class="Stem" stroke="#000000" stroke-width="3.25" stroke-linecap="round" stroke-linejoin="bevel" points="576.5,374.537 576.5,297.982"/>
<polyline class="Stem" stroke="#000000" stroke-width="3.25" stroke-linecap="round" stroke-linejoin="bevel" points="610.024,321.428 610.024,404.232"/>
<polyline class="Stem" stroke="#000000" stroke-width="3.25" stroke-linecap="round" stroke-linejoin="bevel" points="709.362,346.428 709.362,429.232"/>
<polyline class="Stem" stroke="#000000" stroke-width="3.25" stroke-linecap="round" stroke-linejoin="bevel" points="750.093,333.928 750.093,416.732"/>
<polyline class="Stem" stroke="#000000" stroke-width="3.25" stroke-linecap="round" stroke-linejoin="bevel" points="815.261,358.928 815.261,441.732"/>
<polyline class="Stem" stroke="#000000" stroke-width="3.25" stroke-linecap="round" stroke-linejoin="bevel" points="885.656,374.537 885.656,297.982"/>
<polyline class="Stem" stroke="#000000" stroke-width="3.25" stroke-linecap="round" stroke-linejoin="bevel" points="979.824,399.537 979.824,316.732"/>
<polyline class="Stem" stroke="#000000" stroke-width="3.25" stroke-linecap="round" stroke-linejoin="bevel" points="1043.01,387.037 1043.01,307.357"/>
<polyline class="Stem" stroke="#000000" stroke-width="3.25" stroke-linecap="round" stroke-linejoin="bevel" points="1113.35,412.037 1113.35,329.232"/>
<polyline class="Stem" stroke="#000000" stroke-width="3.25" stroke-linecap="round" stroke-linejoin="bevel" points="1176.54,399.537 1176.54,316.732"/>
<polyline class="Stem" stroke="#000000" stroke-width="3.25" stroke-linecap="round" stroke-linejoin="bevel" points="1275.88,424.537 1275.88,341.732"/>
<polyline class="Stem" stroke="#000000" stroke-width="3.25" stroke-linecap="round" stroke-linejoin="bevel" points="1339.06,412.037 1339.06,329.232"/>
<polyline class="Stem" stroke="#000000" stroke-width="3.25" stroke-linecap="round" stroke-linejoin="bevel" points="1410.53,412.037 1410.53,329.232"/>
<polyline class="Stem" stroke="#000000" stroke-width="3.25" stroke-linecap="round" stroke-linejoin="bevel" points="1473.72,399.537 1473.72,316.732"/>
<polyline class="Stem" stroke="#000000" stroke-width="3.25" stroke-linecap="round" stroke-linejoin="bevel" points="1574.18,374.537 1574.18,297.982"/>
<polyline class="Stem" stroke="#000000" stroke-width="3.25" stroke-linecap="round" stroke-linejoin="bevel" points="1607.71,346.428 1607.71,426.107"/>
<polyline class="Stem" stroke="#000000" stroke-width="3.25" stroke-linecap="round" stroke-linejoin="bevel" points="1707.71,374.537 1707.71,297.982"/>
<polyline class="Stem" stroke="#000000" stroke-width="3.25" stroke-linecap="round" stroke-linejoin="bevel" points="1741.23,321.428 1741.23,404.232"/>
<polyline class="Stem" stroke="#000000" stroke-width="3.25" stroke-linecap="round" stroke-linejoin="bevel" points="1840.57,346.428 1840.57,429.232"/>
<polyline class="Stem" stroke="#000000" stroke-width="3.25" stroke-linecap="round" stroke-linejoin="bevel" points="1881.3,333.928 1881.3,416.732"/>
<polyline class="Stem" stroke="#000000" stroke-width="3.25" stroke-linecap="round" stroke-linejoin="bevel" points="1946.47,358.928 1946.47,441.732"/>
<polyline class="Stem" stroke="#000000" stroke-width="3.25" stroke-linecap="round" stroke-linejoin="bevel" points="2016.86,374.537 2016.86,297.982"/>
<polyline class="Stem" stroke="#000000" stroke-width="3.25" stroke-linecap="round" stroke-linejoin="bevel" points="2081.37,358.928 2081.37,441.732"/>
<polyline class="Stem" stroke="#000000" stroke-width="3.25" stroke-linecap="round" stroke-linejoin="bevel" points="2122.1,346.428 2122.1,426.107"/>
<polyline class="Stem" stroke="#000000" stroke-width="3.25" stroke-linecap="round" stroke-linejoin="bevel" points="2187.27,321.428 2187.27,404.232"/>
<polyline class="Stem" stroke="#000000" stroke-width="3.25" stroke-linecap="round" stroke-linejoin="bevel" points="2228,333.928 2228,416.732"/>
<polyline class="Stem" stroke="#000000" stroke-width="3.25" stroke-linecap="round" stroke-linejoin="bevel" points="2322.17,358.928 2322.17,441.732"/>
<polyline class="Stem" stroke="#000000" stroke-width="3.25" stroke-linecap="round" stroke-linejoin="bevel" points="2363.33,346.428 2363.33,426.107"/>
<polyline class="Stem" stroke="#000000" stroke-width="3.25" stroke-linecap="round" stroke-linejoin="bevel" points="2429.19,346.428 2429.19,429.232"/>
<polyline class="Stem" stroke="#000000" stroke-width="3.25" stroke-linecap="round" stroke-linejoin="bevel" points="2470.36,346.428 2470.36,426.107"/>
<polyline class="Stem" stroke="#000000" stroke-width="3.25" stroke-linecap="round" stroke-linejoin="bevel" points="2594.88,374.537 2594.88,297.982"/>
<polyline class="Stem" stroke="#000000" stroke-width="3.25" stroke-linecap="round" stroke-linejoin="bevel" points="2628.41,346.428 2628.41,426.107"/>
<polyline class="Stem" stroke="#000000" stroke-width="3.25" stroke-linecap="round" stroke-linejoin="bevel" points="2728.41,374.537 2728.41,297.982"/>
<polyline class="Stem" stroke="#000000" stroke-width="3.25" stroke-linecap="round" stroke-linejoin="bevel" points="2761.93,321.428 2761.93,404.232"/>
<polyline class="Stem" stroke="#000000" stroke-width="3.25" stroke-linecap="round" stroke-linejoin="bevel" points="363.459,821.428 363.459,904.232"/>
<polyline class="Stem" stroke="#000000" stroke-width="3.25" stroke-linecap="round" stroke-linejoin="bevel" points="421.207,808.928 421.207,891.732"/>
<polyline class="Stem" stroke="#000000" stroke-width="3.25" stroke-linecap="round" stroke-linejoin="bevel" points="513.605,833.928 513.605,916.732"/>
<polyline class="Stem" stroke="#000000" stroke-width="3.25" stroke-linecap="round" stroke-linejoin="bevel" points="601.017,849.537 601.017,772.982"/>
<polyline class="Stem" stroke="#000000" stroke-width="3.25" stroke-linecap="round" stroke-linejoin="bevel" points="722.415,874.537 722.415,791.732"/>
<polyline class="Stem" stroke="#000000" stroke-width="3.25" stroke-linecap="round" stroke-linejoin="bevel" points="790.789,862.037 790.789,782.357"/>
<polyline class="Stem" stroke="#000000" stroke-width="3.25" stroke-linecap="round" stroke-linejoin="bevel" points="900.187,887.037 900.187,804.232"/>
<polyline class="Stem" stroke="#000000" stroke-width="3.25" stroke-linecap="round" stroke-linejoin="bevel" points="968.562,874.537 968.562,791.732"/>
<polyline class="Stem" stroke="#000000" stroke-width="3.25" stroke-linecap="round" stroke-linejoin="bevel" points="1106.96,899.537 1106.96,816.732"/>
<polyline class="Stem" stroke="#000000" stroke-width="3.25" stroke-linecap="round" stroke-linejoin="bevel" points="1175.77,887.037 1175.77,804.232"/>
<polyline class="Stem" stroke="#000000" stroke-width="3.25" stroke-linecap="round" stroke-linejoin="bevel" points="1285.86,887.037 1285.86,804.232"/>
<polyline class="Stem" stroke="#000000" stroke-width="3.25" stroke-linecap="round" stroke-linejoin="bevel" points="1354.67,874.537 1354.67,791.732"/>
<polyline class="Stem" stroke="#000000" stroke-width="3.25" stroke-linecap="round" stroke-linejoin="bevel" points="1493.76,849.537 1493.76,772.982"/>
<polyline class="Stem" stroke="#000000" stroke-width="3.25" stroke-linecap="round" stroke-linejoin="bevel" points="1532.47,821.428 1532.47,901.107"/>
<polyline class="Stem" stroke="#000000" stroke-width="3.25" stroke-linecap="round" stroke-linejoin="bevel" points="1671.53,849.537 1671.53,772.982"/>
<polyline class="Stem" stroke="#000000" stroke-width="3.25" stroke-linecap="round" stroke-linejoin="bevel" points="1710.24,796.428 1710.24,879.232"/>
<polyline class="Stem" stroke="#000000" stroke-width="3.25" stroke-linecap="round" stroke-linejoin="bevel" points="1848.64,821.428 1848.64,904.232"/>
<polyline class="Stem" stroke="#000000" stroke-width="3.25" stroke-linecap="round" stroke-linejoin="bevel" points="1906.39,808.928 1906.39,891.732"/>
<polyline class="Stem" stroke="#000000" stroke-width="3.25" stroke-linecap="round" stroke-linejoin="bevel" points="1998.79,833.928 1998.79,916.732"/>
<polyline class="Stem" stroke="#000000" stroke-width="3.25" stroke-linecap="round" stroke-linejoin="bevel" points="2086.2,849.537 2086.2,772.982"/>
<polyline class="Stem" stroke="#000000" stroke-width="3.25" stroke-linecap="round" stroke-linejoin="bevel" points="2177.93,833.928 2177.93,916.732"/>
<polyline class="Stem" stroke="#000000" stroke-width="3.25" stroke-linecap="round" stroke-linejoin="bevel" points="2235.68,821.428 2235.68,901.107"/>
<polyline class="Stem" stroke="#000000" stroke-width="3.25" stroke-linecap="round" stroke-linejoin="bevel" points="2328.08,796.428 2328.08,879.232"/>
<polyline class="Stem" stroke="#000000" stroke-width="3.25" stroke-linecap="round" stroke-linejoin="bevel" points="2385.83,808.928 2385.83,891.732"/>
<polyline class="Stem" stroke="#000000" stroke-width="3.25" stroke-linecap="round" stroke-linejoin="bevel" points="2507.22,833.928 2507.22,916.732"/>
<polyline class="Stem" stroke="#000000" stroke-width="3.25" stroke-linecap="round" stroke-linejoin="bevel" points="2565.41,821.428 2565.41,901.107"/>
<polyline class="Stem" stroke="#000000" stroke-width="3.25" stroke-linecap="round" stroke-linejoin="bevel" points="2658.5,821.428 2658.5,904.232"/>
<polyline class="Stem" stroke="#000000" stroke-width="3.25" stroke-linecap="round" stroke-linejoin="bevel" points="2716.68,821.428 2716.68,901.107"/>
<path class="Note" d="M433.654,365.467 C436.779,365.467 439.383,366.248 441.467,367.81 C443.55,369.373 444.592,371.618 444.592,374.545 C444.592,379.034 442.266,383.232 437.615,387.139 C432.964,391.045 427.967,392.998 422.623,392.998 C419.498,392.998 416.862,392.185 414.717,390.56 C412.696,388.8 411.685,386.586 411.685,383.92 C411.685,379.555 413.998,375.389 418.623,371.42 C423.248,367.451 428.258,365.467 433.654,365.467"/>
<path class="Note" d="M496.842,327.967 C499.967,327.967 502.571,328.748 504.654,330.31 C506.737,331.873 507.779,334.118 507.779,337.045 C507.779,341.534 505.454,345.732 500.803,349.639 C496.152,353.545 491.154,355.498 485.81,355.498 C482.685,355.498 480.05,354.685 477.904,353.06 C475.883,351.3 474.873,349.086 474.873,346.42 C474.873,342.055 477.185,337.889 481.81,333.92 C486.435,329.951 491.446,327.967 496.842,327.967"/>
<path class="Note" d="M567.18,365.467 C570.305,365.467 572.909,366.248 574.993,367.81 C577.076,369.373 578.118,371.618 578.118,374.545 C578.118,379.034 575.792,383.232 571.141,387.139 C566.49,391.045 561.493,392.998 556.149,392.998 C553.024,392.998 550.388,392.185 548.243,390.56 C546.222,388.8 545.211,386.586 545.211,383.92 C545.211,379.555 547.524,375.389 552.149,371.42 C556.774,367.451 561.784,365.467 567.18,365.467"/>
<path class="Note" d="M630.368,302.967 C633.493,302.967 636.097,303.748 638.18,305.31 C640.263,306.873 641.305,309.118 641.305,312.045 C641.305,316.534 638.98,320.732 634.329,324.639 C629.678,328.545 624.68,330.498 619.336,330.498 C616.211,330.498 613.576,329.685 611.43,328.06 C609.409,326.3 608.399,324.086 608.399,321.42 C608.399,317.055 610.711,312.889 615.336,308.92 C619.961,304.951 624.972,302.967 630.368,302.967"/>
<path class="Note" d="M729.706,327.967 C732.831,327.967 735.435,328.748 737.519,330.31 C739.602,331.873 740.644,334.118 740.644,337.045 C740.644,341.534 738.318,345.732 733.667,349.639 C729.016,353.545 724.019,355.498 718.675,355.498 C715.55,355.498 712.914,354.685 710.769,353.06 C708.748,351.3 707.737,349.086 707.737,346.42 C707.737,342.055 710.05,337.889 714.675,333.92 C719.3,329.951 724.31,327.967 729.706,327.967"/>
<path class="Note" d="M770.436,315.467 C773.561,315.467 776.166,316.248 778.249,317.81 C780.332,319.373 781.374,321.618 781.374,324.545 C781.374,329.034 779.048,333.232 774.397,337.139 C769.746,341.045 764.749,342.998 759.405,342.998 C756.28,342.998 753.645,342.185 751.499,340.56 C749.478,338.8 748.468,336.586 748.468,333.92 C748.468,329.555 750.78,325.389 755.405,321.42 C760.03,317.451 765.041,315.467 770.436,315.467"/>
<path class="Note" d="M835.605,340.467 C838.73,340.467 841.334,341.248 843.418,342.81 C845.501,344.373 846.543,346.618 846.543,349.545 C846.543,354.034 844.217,358.232 839.566,362.139 C834.915,366.045 829.918,367.998 824.574,367.998 C821.449,367.998 818.813,367.185 816.668,365.56 C814.647,363.8 813.636,361.586 813.636,358.92 C813.636,354.555 815.949,350.389 820.574,346.42 C825.199,342.451 830.209,340.467 835.605,340.467"/>
<path class="Note" d="M876.336,365.467 C879.461,365.467 882.065,366.248 884.148,367.81 C886.231,369.373 887.273,371.618 887.273,374.545 C887.273,379.034 884.947,383.232 880.296,387.139 C875.645,391.045 870.648,392.998 865.304,392.998 C862.179,392.998 859.544,392.185 857.398,390.56 C855.377,388.8 854.367,386.586 854.367,383.92 C854.367,379.555 856.679,375.389 861.304,371.42 C865.929,367.451 870.94,365.467 876.336,365.467"/>
<path class="Note" d="M970.504,390.467 C973.629,390.467 976.233,391.248 978.317,392.81 C980.4,394.373 981.442,396.618 981.442,399.545 C981.442,404.034 979.116,408.232 974.465,412.139 C969.814,416.045 964.817,417.998 959.473,417.998 C956.348,417.998 953.712,417.185 951.567,415.56 C949.546,413.8 948.535,411.586 948.535,408.92 C948.535,404.555 950.848,400.389 955.473,396.42 C960.098,392.451 965.108,390.467 970.504,390.467"/>
<path class="Note" d="M1033.69,377.967 C1036.82,377.967 1039.42,378.748 1041.5,380.31 C1043.59,381.873 1044.63,384.118 1044.63,387.045 C1044.63,391.534 1042.3,395.732 1037.65,399.639 C1033,403.545 1028,405.498 1022.66,405.498 C1019.54,405.498 1016.9,404.685 1014.75,403.06 C1012.73,401.3 1011.72,399.086 1011.72,396.42 C1011.72,392.055 1014.04,387.889 1018.66,383.92 C1023.29,379.951 1028.3,377.967 1033.69,377.967"/>
<path class="Note" d="M1104.03,402.967 C1107.16,402.967 1109.76,403.748 1111.84,405.31 C1113.93,406.873 1114.97,409.118 1114.97,412.045 C1114.97,416.534 1112.64,420.732 1107.99,424.639 C1103.34,428.545 1098.34,430.498 1093,430.498 C1089.87,430.498 1087.24,429.685 1085.09,428.06 C1083.07,426.3 1082.06,424.086 1082.06,421.42 C1082.06,417.055 1084.37,412.889 1089,408.92 C1093.62,404.951 1098.63,402.967 1104.03,402.967"/>
<path class="Note" d="M1167.22,390.467 C1170.34,390.467 1172.95,391.248 1175.03,392.81 C1177.11,394.373 1178.16,396.618 1178.16,399.545 C1178.16,404.034 1175.83,408.232 1171.18,412.139 C1166.53,416.045 1161.53,417.998 1156.19,417.998 C1153.06,417.998 1150.43,417.185 1148.28,415.56 C1146.26,413.8 1145.25,411.586 1145.25,408.92 C1145.25,404.555 1147.56,400.389 1152.19,396.42 C1156.81,392.451 1161.82,390.467 1167.22,390.467"/>
<path class="Note" d="M1266.56,415.467 C1269.68,415.467 1272.29,416.248 1274.37,417.81 C1276.45,419.373 1277.49,421.618 1277.49,424.545 C1277.49,429.034 1275.17,433.232 1270.52,437.139 C1265.87,441.045 1260.87,442.998 1255.52,442.998 C1252.4,442.998 1249.76,442.185 1247.62,440.56 C1245.6,438.8 1244.59,436.586 1244.59,433.92 C1244.59,429.555 1246.9,425.389 1251.52,421.42 C1256.15,417.451 1261.16,415.467 1266.56,415.467"/>
<path class="Note" d="M1329.74,402.967 C1332.87,402.967 1335.47,403.748 1337.56,405.31 C1339.64,406.873 1340.68,409.118 1340.68,412.045 C1340.68,416.534 1338.36,420.732 1333.7,424.639 C1329.05,428.545 1324.06,430.498 1318.71,430.498 C1315.59,430.498 1312.95,429.685 1310.81,428.06 C1308.79,426.3 1307.77,424.086 1307.77,421.42 C1307.77,417.055 1310.09,412.889 1314.71,408.92 C1319.34,404.951 1324.35,402.967 1329.74,402.967"/>
<path class="Note" d="M1401.21,402.967 C1404.33,402.967 1406.94,403.748 1409.02,405.31 C1411.1,406.873 1412.15,409.118 1412.15,412.045 C1412.15,416.534 1409.82,420.732 1405.17,424.639 C1400.52,428.545 1395.52,430.498 1390.18,430.498 C1387.05,430.498 1384.42,429.685 1382.27,428.06 C1380.25,426.3 1379.24,424.086 1379.24,421.42 C1379.24,417.055 1381.55,412.889 1386.18,408.92 C1390.8,404.951 1395.81,402.967 1401.21,402.967"/>
<path class="Note" d="M1464.4,390.467 C1467.52,390.467 1470.13,391.248 1472.21,392.81 C1474.29,394.373 1475.33,396.618 1475.33,399.545 C1475.33,404.034 1473.01,408.232 1468.36,412.139 C1463.71,416.045 1458.71,417.998 1453.37,417.998 C1450.24,417.998 1447.6,417.185 1445.46,415.56 C1443.44,413.8 1442.43,411.586 1442.43,408.92 C1442.43,404.555 1444.74,400.389 1449.37,396.42 C1453.99,392.451 1459,390.467 1464.4,390.467"/>
<path class="Note" d="M1564.86,365.467 C1567.99,365.467 1570.59,366.248 1572.67,367.81 C1574.76,369.373 1575.8,371.618 1575.8,374.545 C1575.8,379.034 1573.47,383.232 1568.82,387.139 C1564.17,391.045 1559.17,392.998 1553.83,392.998 C1550.71,392.998 1548.07,392.185 1545.92,390.56 C1543.9,388.8 1542.89,386.586 1542.89,383.92 C1542.89,379.555 1545.21,375.389 1549.83,371.42 C1554.46,367.451 1559.47,365.467 1564.86,365.467"/>
<path class="Note" d="M1628.05,327.967 C1631.17,327.967 1633.78,328.748 1635.86,330.31 C1637.95,331.873 1638.99,334.118 1638.99,337.045 C1638.99,341.534 1636.66,345.732 1632.01,349.639 C1627.36,353.545 1622.36,355.498 1617.02,355.498 C1613.89,355.498 1611.26,354.685 1609.11,353.06 C1607.09,351.3 1606.08,349.086 1606.08,346.42 C1606.08,342.055 1608.39,337.889 1613.02,333.92 C1617.64,329.951 1622.65,327.967 1628.05,327.967"/>
<path class="Note" d="M1698.39,365.467 C1701.51,365.467 1704.12,366.248 1706.2,367.81 C1708.28,369.373 1709.33,371.618 1709.33,374.545 C1709.33,379.034 1707,383.232 1702.35,387.139 C1697.7,391.045 1692.7,392.998 1687.36,392.998 C1684.23,392.998 1681.6,392.185 1679.45,390.56 C1677.43,388.8 1676.42,386.586 1676.42,383.92 C1676.42,379.555 1678.73,375.389 1683.36,371.42 C1687.98,367.451 1692.99,365.467 1698.39,365.467"/>
<path class="Note" d="M1761.58,302.967 C1764.7,302.967 1767.3,303.748 1769.39,305.31 C1771.47,306.873 1772.51,309.118 1772.51,312.045 C1772.51,316.534 1770.19,320.732 1765.54,324.639 C1760.89,328.545 1755.89,330.498 1750.54,330.498 C1747.42,330.498 1744.78,329.685 1742.64,328.06 C1740.62,326.3 1739.61,324.086 1739.61,321.42 C1739.61,317.055 1741.92,312.889 1746.54,308.92 C1751.17,304.951 1756.18,302.967 1761.58,302.967"/>
<path class="Note" d="M1860.91,327.967 C1864.04,327.967 1866.64,328.748 1868.73,330.31 C1870.81,331.873 1871.85,334.118 1871.85,337.045 C1871.85,341.534 1869.53,345.732 1864.88,349.639 C1860.22,353.545 1855.23,355.498 1849.88,355.498 C1846.76,355.498 1844.12,354.685 1841.98,353.06 C1839.96,351.3 1838.95,349.086 1838.95,346.42 C1838.95,342.055 1841.26,337.889 1845.88,333.92 C1850.51,329.951 1855.52,327.967 1860.91,327.967"/>
<path class="Note" d="M1901.64,315.467 C1904.77,315.467 1907.37,316.248 1909.46,317.81 C1911.54,319.373 1912.58,321.618 1912.58,324.545 C1912.58,329.034 1910.26,333.232 1905.61,337.139 C1900.95,341.045 1895.96,342.998 1890.61,342.998 C1887.49,342.998 1884.85,342.185 1882.71,340.56 C1880.69,338.8 1879.68,336.586 1879.68,333.92 C1879.68,329.555 1881.99,325.389 1886.61,321.42 C1891.24,317.451 1896.25,315.467 1901.64,315.467"/>
<path class="Note" d="M1966.81,340.467 C1969.94,340.467 1972.54,341.248 1974.63,342.81 C1976.71,344.373 1977.75,346.618 1977.75,349.545 C1977.75,354.034 1975.43,358.232 1970.77,362.139 C1966.12,366.045 1961.13,367.998 1955.78,367.998 C1952.66,367.998 1950.02,367.185 1947.88,365.56 C1945.85,363.8 1944.84,361.586 1944.84,358.92 C1944.84,354.555 1947.16,350.389 1951.78,346.42 C1956.41,342.451 1961.42,340.467 1966.81,340.467"/>
<path class="Note" d="M2007.54,365.467 C2010.67,365.467 2013.27,366.248 2015.36,367.81 C2017.44,369.373 2018.48,371.618 2018.48,374.545 C2018.48,379.034 2016.16,383.232 2011.5,387.139 C2006.85,391.045 2001.86,392.998 1996.51,392.998 C1993.39,392.998 1990.75,392.185 1988.61,390.56 C1986.59,388.8 1985.57,386.586 1985.57,383.92 C1985.57,379.555 1987.89,375.389 1992.51,371.42 C1997.14,367.451 2002.15,365.467 2007.54,365.467"/>
<path class="Note" d="M2101.71,340.467 C2104.84,340.467 2107.44,341.248 2109.52,342.81 C2111.61,344.373 2112.65,346.618 2112.65,349.545 C2112.65,354.034 2110.32,358.232 2105.67,362.139 C2101.02,366.045 2096.02,367.998 2090.68,367.998 C2087.56,367.998 2084.92,367.185 2082.77,365.56 C2080.75,363.8 2079.74,361.586 2079.74,358.92 C2079.74,354.555 2082.06,350.389 2086.68,346.42 C2091.31,342.451 2096.32,340.467 2101.71,340.467"/>
<path class="Note" d="M2142.44,327.967 C2145.57,327.967 2148.17,328.748 2150.26,330.31 C2152.34,331.873 2153.38,334.118 2153.38,337.045 C2153.38,341.534 2151.05,345.732 2146.4,349.639 C2141.75,353.545 2136.76,355.498 2131.41,355.498 C2128.29,355.498 2125.65,354.685 2123.51,353.06 C2121.48,351.3 2120.47,349.086 2120.47,346.42 C2120.47,342.055 2122.79,337.889 2127.41,333.92 C2132.04,329.951 2137.05,327.967 2142.44,327.967"/>
<path class="Note" d="M2207.61,302.967 C2210.74,302.967 2213.34,303.748 2215.42,305.31 C2217.51,306.873 2218.55,309.118 2218.55,312.045 C2218.55,316.534 2216.22,320.732 2211.57,324.639 C2206.92,328.545 2201.92,330.498 2196.58,330.498 C2193.45,330.498 2190.82,329.685 2188.67,328.06 C2186.65,326.3 2185.64,324.086 2185.64,321.42 C2185.64,317.055 2187.95,312.889 2192.58,308.92 C2197.2,304.951 2202.22,302.967 2207.61,302.967"/>
<path class="Note" d="M2248.34,315.467 C2251.47,315.467 2254.07,316.248 2256.15,317.81 C2258.24,319.373 2259.28,321.618 2259.28,324.545 C2259.28,329.034 2256.95,333.232 2252.3,337.139 C2247.65,341.045 2242.65,342.998 2237.31,342.998 C2234.19,342.998 2231.55,342.185 2229.4,340.56 C2227.38,338.8 2226.37,336.586 2226.37,333.92 C2226.37,329.555 2228.69,325.389 2233.31,321.42 C2237.94,317.451 2242.95,315.467 2248.34,315.467"/>
<path class="Note" d="M2342.51,340.467 C2345.64,340.467 2348.24,341.248 2350.32,342.81 C2352.41,344.373 2353.45,346.618 2353.45,349.545 C2353.45,354.034 2351.12,358.232 2346.47,362.139 C2341.82,366.045 2336.82,367.998 2331.48,367.998 C2328.35,367.998 2325.72,367.185 2323.57,365.56 C2321.55,363.8 2320.54,361.586 2320.54,358.92 C2320.54,354.555 2322.85,350.389 2327.48,346.42 C2332.1,342.451 2337.11,340.467 2342.51,340.467"/>
<path class="Note" d="M2383.67,327.967 C2386.8,327.967 2389.4,328.748 2391.49,330.31 C2393.57,331.873 2394.61,334.118 2394.61,337.045 C2394.61,341.534 2392.29,345.732 2387.64,349.639 C2382.98,353.545 2377.99,355.498 2372.64,355.498 C2369.52,355.498 2366.88,354.685 2364.74,353.06 C2362.72,351.3 2361.71,349.086 2361.71,346.42 C2361.71,342.055 2364.02,337.889 2368.64,333.92 C2373.27,329.951 2378.28,327.967 2383.67,327.967"/>
<path class="Note" d="M2449.54,327.967 C2452.66,327.967 2455.27,328.748 2457.35,330.31 C2459.43,331.873 2460.47,334.118 2460.47,337.045 C2460.47,341.534 2458.15,345.732 2453.5,349.639 C2448.85,353.545 2443.85,355.498 2438.51,355.498 C2435.38,355.498 2432.74,354.685 2430.6,353.06 C2428.58,351.3 2427.57,349.086 2427.57,346.42 C2427.57,342.055 2429.88,337.889 2434.51,333.92 C2439.13,329.951 2444.14,327.967 2449.54,327.967"/>
<path class="Note" d="M2490.7,327.967 C2493.83,327.967 2496.43,328.748 2498.51,330.31 C2500.6,331.873 2501.64,334.118 2501.64,337.045 C2501.64,341.534 2499.31,345.732 2494.66,349.639 C2490.01,353.545 2485.01,355.498 2479.67,355.498 C2476.54,355.498 2473.91,354.685 2471.76,353.06 C2469.74,351.3 2468.73,349.086 2468.73,346.42 C2468.73,342.055 2471.04,337.889 2475.67,333.92 C2480.29,329.951 2485.3,327.967 2490.7,327.967"/>
<path class="Note" d="M2585.56,365.467 C2588.69,365.467 2591.29,366.248 2593.37,367.81 C2595.46,369.373 2596.5,371.618 2596.5,374.545 C2596.5,379.034 2594.17,383.232 2589.52,387.139 C2584.87,391.045 2579.87,392.998 2574.53,392.998 C2571.41,392.998 2568.77,392.185 2566.62,390.56 C2564.6,388.8 2563.59,386.586 2563.59,383.92 C2563.59,379.555 2565.91,375.389 2570.53,371.42 C2575.16,367.451 2580.17,365.467 2585.56,365.467"/>
<path class="Note" d="M2648.75,327.967 C2651.87,327.967 2654.48,328.748 2656.56,330.31 C2658.65,331.873 2659.69,334.118 2659.69,337.045 C2659.69,341.534 2657.36,345.732 2652.71,349.639 C2648.06,353.545 2643.06,355.498 2637.72,355.498 C2634.59,355.498 2631.96,354.685 2629.81,353.06 C2627.79,351.3 2626.78,349.086 2626.78,346.42 C2626.78,342.055 2629.09,337.889 2633.72,333.92 C2638.34,329.951 2643.35,327.967 2648.75,327.967"/>
<path class="Note" d="M2719.09,365.467 C2722.21,365.467 2724.82,366.248 2726.9,367.81 C2728.98,369.373 2730.03,371.618 2730.03,374.545 C2730.03,379.034 2727.7,383.232 2723.05,387.139 C2718.4,391.045 2713.4,392.998 2708.06,392.998 C2704.93,392.998 2702.3,392.185 2700.15,390.56 C2698.13,388.8 2697.12,386.586 2697.12,383.92 C2697.12,379.555 2699.43,375.389 2704.06,371.42 C2708.68,367.451 2713.69,365.467 2719.09,365.467"/>
<path class="Note" d="M2782.28,302.967 C2785.4,302.967 2788.01,303.748 2790.09,305.31 C2792.17,306.873 2793.21,309.118 2793.21,312.045 C2793.21,316.534 2790.89,320.732 2786.24,324.639 C2781.59,328.545 2776.59,330.498 2771.24,330.498 C2768.12,330.498 2765.48,329.685 2763.34,328.06 C2761.32,326.3 2760.31,324.086 2760.31,321.42 C2760.31,317.055 2762.62,312.889 2767.24,308.92 C2771.87,304.951 2776.88,302.967 2782.28,302.967"/>
<path class="Note" d="M383.803,802.967 C386.928,802.967 389.532,803.748 391.615,805.31 C393.698,806.873 394.74,809.118 394.74,812.045 C394.74,816.534 392.415,820.732 387.764,824.639 C383.112,828.545 378.115,830.498 372.771,830.498 C369.646,830.498 367.011,829.685 364.865,828.06 C362.844,826.3 361.834,824.086 361.834,821.42 C361.834,817.055 364.146,812.889 368.771,808.92 C373.396,804.951 378.407,802.967 383.803,802.967"/>
<path class="Note" d="M441.551,790.467 C444.676,790.467 447.28,791.248 449.363,792.81 C451.447,794.373 452.488,796.618 452.488,799.545 C452.488,804.034 450.163,808.232 445.512,812.139 C440.861,816.045 435.863,817.998 430.52,817.998 C427.395,817.998 424.759,817.185 422.613,815.56 C420.593,813.8 419.582,811.586 419.582,808.92 C419.582,804.555 421.895,800.389 426.52,796.42 C431.145,792.451 436.155,790.467 441.551,790.467"/>
<path class="Note" d="M533.948,815.467 C537.073,815.467 539.678,816.248 541.761,817.81 C543.844,819.373 544.886,821.618 544.886,824.545 C544.886,829.034 542.56,833.232 537.909,837.139 C533.258,841.045 528.261,842.998 522.917,842.998 C519.792,842.998 517.157,842.185 515.011,840.56 C512.99,838.8 511.98,836.586 511.98,833.92 C511.98,829.555 514.292,825.389 518.917,821.42 C523.542,817.451 528.553,815.467 533.948,815.467"/>
<path class="Note" d="M591.697,840.467 C594.822,840.467 597.426,841.248 599.509,842.81 C601.593,844.373 602.634,846.618 602.634,849.545 C602.634,854.034 600.309,858.232 595.658,862.139 C591.007,866.045 586.009,867.998 580.666,867.998 C577.541,867.998 574.905,867.185 572.759,865.56 C570.739,863.8 569.728,861.586 569.728,858.92 C569.728,854.555 572.041,850.389 576.666,846.42 C581.291,842.451 586.301,840.467 591.697,840.467"/>
<path class="Note" d="M713.094,865.467 C716.219,865.467 718.823,866.248 720.907,867.81 C722.99,869.373 724.032,871.618 724.032,874.545 C724.032,879.034 721.706,883.232 717.055,887.139 C712.404,891.045 707.407,892.998 702.063,892.998 C698.938,892.998 696.303,892.185 694.157,890.56 C692.136,888.8 691.126,886.586 691.126,883.92 C691.126,879.555 693.438,875.389 698.063,871.42 C702.688,867.451 707.698,865.467 713.094,865.467"/>
<path class="Note" d="M781.468,852.967 C784.593,852.967 787.198,853.748 789.281,855.31 C791.364,856.873 792.406,859.118 792.406,862.045 C792.406,866.534 790.08,870.732 785.429,874.639 C780.778,878.545 775.781,880.498 770.437,880.498 C767.312,880.498 764.677,879.685 762.531,878.06 C760.51,876.3 759.5,874.086 759.5,871.42 C759.5,867.055 761.812,862.889 766.437,858.92 C771.062,854.951 776.073,852.967 781.468,852.967"/>
<path class="Note" d="M890.867,877.967 C893.992,877.967 896.596,878.748 898.68,880.31 C900.763,881.873 901.805,884.118 901.805,887.045 C901.805,891.534 899.479,895.732 894.828,899.639 C890.177,903.545 885.18,905.498 879.836,905.498 C876.711,905.498 874.075,904.685 871.93,903.06 C869.909,901.3 868.898,899.086 868.898,896.42 C868.898,892.055 871.211,887.889 875.836,883.92 C880.461,879.951 885.471,877.967 890.867,877.967"/>
<path class="Note" d="M959.241,865.467 C962.366,865.467 964.97,866.248 967.054,867.81 C969.137,869.373 970.179,871.618 970.179,874.545 C970.179,879.034 967.853,883.232 963.202,887.139 C958.551,891.045 953.554,892.998 948.21,892.998 C945.085,892.998 942.45,892.185 940.304,890.56 C938.283,888.8 937.272,886.586 937.272,883.92 C937.272,879.555 939.585,875.389 944.21,871.42 C948.835,867.451 953.845,865.467 959.241,865.467"/>
<path class="Note" d="M1097.64,890.467 C1100.76,890.467 1103.37,891.248 1105.45,892.81 C1107.54,894.373 1108.58,896.618 1108.58,899.545 C1108.58,904.034 1106.25,908.232 1101.6,912.139 C1096.95,916.045 1091.95,917.998 1086.61,917.998 C1083.48,917.998 1080.85,917.185 1078.7,915.56 C1076.68,913.8 1075.67,911.586 1075.67,908.92 C1075.67,904.555 1077.98,900.389 1082.61,896.42 C1087.23,892.451 1092.24,890.467 1097.64,890.467"/>
<path class="Note" d="M1166.45,877.967 C1169.57,877.967 1172.18,878.748 1174.26,880.31 C1176.34,881.873 1177.39,884.118 1177.39,887.045 C1177.39,891.534 1175.06,895.732 1170.41,899.639 C1165.76,903.545 1160.76,905.498 1155.42,905.498 C1152.29,905.498 1149.66,904.685 1147.51,903.06 C1145.49,901.3 1144.48,899.086 1144.48,896.42 C1144.48,892.055 1146.79,887.889 1151.42,883.92 C1156.04,879.951 1161.05,877.967 1166.45,877.967"/>
<path class="Note" d="M1276.54,877.967 C1279.66,877.967 1282.27,878.748 1284.35,880.31 C1286.44,881.873 1287.48,884.118 1287.48,887.045 C1287.48,891.534 1285.15,895.732 1280.5,899.639 C1275.85,903.545 1270.85,905.498 1265.51,905.498 C1262.38,905.498 1259.75,904.685 1257.6,903.06 C1255.58,901.3 1254.57,899.086 1254.57,896.42 C1254.57,892.055 1256.88,887.889 1261.51,883.92 C1266.13,879.951 1271.14,877.967 1276.54,877.967"/>
<path class="Note" d="M1345.35,865.467 C1348.47,865.467 1351.08,866.248 1353.16,867.81 C1355.24,869.373 1356.28,871.618 1356.28,874.545 C1356.28,879.034 1353.96,883.232 1349.31,887.139 C1344.66,891.045 1339.66,892.998 1334.32,892.998 C1331.19,892.998 1328.56,892.185 1326.41,890.56 C1324.39,888.8 1323.38,886.586 1323.38,883.92 C1323.38,879.555 1325.69,875.389 1330.32,871.42 C1334.94,867.451 1339.95,865.467 1345.35,865.467"/>
<path class="Note" d="M1484.44,840.467 C1487.56,840.467 1490.17,841.248 1492.25,842.81 C1494.34,844.373 1495.38,846.618 1495.38,849.545 C1495.38,854.034 1493.05,858.232 1488.4,862.139 C1483.75,866.045 1478.75,867.998 1473.41,867.998 C1470.28,867.998 1467.65,867.185 1465.5,865.56 C1463.48,863.8 1462.47,861.586 1462.47,858.92 C1462.47,854.555 1464.78,850.389 1469.41,846.42 C1474.03,842.451 1479.04,840.467 1484.44,840.467"/>
<path class="Note" d="M1552.81,802.967 C1555.94,802.967 1558.54,803.748 1560.63,805.31 C1562.71,806.873 1563.75,809.118 1563.75,812.045 C1563.75,816.534 1561.43,820.732 1556.77,824.639 C1552.12,828.545 1547.13,830.498 1541.78,830.498 C1538.66,830.498 1536.02,829.685 1533.88,828.06 C1531.86,826.3 1530.85,824.086 1530.85,821.42 C1530.85,817.055 1533.16,812.889 1537.78,808.92 C1542.41,804.951 1547.42,802.967 1552.81,802.967"/>
<path class="Note" d="M1662.21,840.467 C1665.34,840.467 1667.94,841.248 1670.02,842.81 C1672.11,844.373 1673.15,846.618 1673.15,849.545 C1673.15,854.034 1670.82,858.232 1666.17,862.139 C1661.52,866.045 1656.52,867.998 1651.18,867.998 C1648.06,867.998 1645.42,867.185 1643.27,865.56 C1641.25,863.8 1640.24,861.586 1640.24,858.92 C1640.24,854.555 1642.56,850.389 1647.18,846.42 C1651.81,842.451 1656.82,840.467 1662.21,840.467"/>
<path class="Note" d="M1730.59,777.967 C1733.71,777.967 1736.32,778.748 1738.4,780.31 C1740.48,781.873 1741.52,784.118 1741.52,787.045 C1741.52,791.534 1739.2,795.732 1734.55,799.639 C1729.9,803.545 1724.9,805.498 1719.56,805.498 C1716.43,805.498 1713.79,804.685 1711.65,803.06 C1709.63,801.3 1708.62,799.086 1708.62,796.42 C1708.62,792.055 1710.93,787.889 1715.56,783.92 C1720.18,779.951 1725.19,777.967 1730.59,777.967"/>
<path class="Note" d="M1868.99,802.967 C1872.11,802.967 1874.71,803.748 1876.8,805.31 C1878.88,806.873 1879.92,809.118 1879.92,812.045 C1879.92,816.534 1877.6,820.732 1872.95,824.639 C1868.3,828.545 1863.3,830.498 1857.95,830.498 C1854.83,830.498 1852.19,829.685 1850.05,828.06 C1848.03,826.3 1847.02,824.086 1847.02,821.42 C1847.02,817.055 1849.33,812.889 1853.95,808.92 C1858.58,804.951 1863.59,802.967 1868.99,802.967"/>
<path class="Note" d="M1926.73,790.467 C1929.86,790.467 1932.46,791.248 1934.55,792.81 C1936.63,794.373 1937.67,796.618 1937.67,799.545 C1937.67,804.034 1935.35,808.232 1930.69,812.139 C1926.04,816.045 1921.05,817.998 1915.7,817.998 C1912.58,817.998 1909.94,817.185 1907.8,815.56 C1905.78,813.8 1904.76,811.586 1904.76,808.92 C1904.76,804.555 1907.08,800.389 1911.7,796.42 C1916.33,792.451 1921.34,790.467 1926.73,790.467"/>
<path class="Note" d="M2019.13,815.467 C2022.26,815.467 2024.86,816.248 2026.94,817.81 C2029.03,819.373 2030.07,821.618 2030.07,824.545 C2030.07,829.034 2027.74,833.232 2023.09,837.139 C2018.44,841.045 2013.44,842.998 2008.1,842.998 C2004.97,842.998 2002.34,842.185 2000.19,840.56 C1998.17,838.8 1997.16,836.586 1997.16,833.92 C1997.16,829.555 1999.47,825.389 2004.1,821.42 C2008.72,817.451 2013.74,815.467 2019.13,815.467"/>
<path class="Note" d="M2076.88,840.467 C2080,840.467 2082.61,841.248 2084.69,842.81 C2086.78,844.373 2087.82,846.618 2087.82,849.545 C2087.82,854.034 2085.49,858.232 2080.84,862.139 C2076.19,866.045 2071.19,867.998 2065.85,867.998 C2062.72,867.998 2060.09,867.185 2057.94,865.56 C2055.92,863.8 2054.91,861.586 2054.91,858.92 C2054.91,854.555 2057.22,850.389 2061.85,846.42 C2066.47,842.451 2071.48,840.467 2076.88,840.467"/>
<path class="Note" d="M2198.28,815.467 C2201.4,815.467 2204.01,816.248 2206.09,817.81 C2208.17,819.373 2209.21,821.618 2209.21,824.545 C2209.21,829.034 2206.89,833.232 2202.24,837.139 C2197.59,841.045 2192.59,842.998 2187.25,842.998 C2184.12,842.998 2181.49,842.185 2179.34,840.56 C2177.32,838.8 2176.31,836.586 2176.31,833.92 C2176.31,829.555 2178.62,825.389 2183.25,821.42 C2187.87,817.451 2192.88,815.467 2198.28,815.467"/>
<path class="Note" d="M2256.03,802.967 C2259.15,802.967 2261.75,803.748 2263.84,805.31 C2265.92,806.873 2266.96,809.118 2266.96,812.045 C2266.96,816.534 2264.64,820.732 2259.99,824.639 C2255.34,828.545 2250.34,830.498 2244.99,830.498 C2241.87,830.498 2239.23,829.685 2237.09,828.06 C2235.07,826.3 2234.06,824.086 2234.06,821.42 C2234.06,817.055 2236.37,812.889 2240.99,808.92 C2245.62,804.951 2250.63,802.967 2256.03,802.967"/>
<path class="Note" d="M2348.42,777.967 C2351.55,777.967 2354.15,778.748 2356.24,780.31 C2358.32,781.873 2359.36,784.118 2359.36,787.045 C2359.36,791.534 2357.03,795.732 2352.38,799.639 C2347.73,803.545 2342.74,805.498 2337.39,805.498 C2334.27,805.498 2331.63,804.685 2329.49,803.06 C2327.46,801.3 2326.45,799.086 2326.45,796.42 C2326.45,792.055 2328.77,787.889 2333.39,783.92 C2338.02,779.951 2343.03,777.967 2348.42,777.967"/>
<path class="Note" d="M2406.17,790.467 C2409.3,790.467 2411.9,791.248 2413.98,792.81 C2416.07,794.373 2417.11,796.618 2417.11,799.545 C2417.11,804.034 2414.78,808.232 2410.13,812.139 C2405.48,816.045 2400.48,817.998 2395.14,817.998 C2392.01,817.998 2389.38,817.185 2387.23,815.56 C2385.21,813.8 2384.2,811.586 2384.2,808.92 C2384.2,804.555 2386.51,800.389 2391.14,796.42 C2395.76,792.451 2400.78,790.467 2406.17,790.467"/>
<path class="Note" d="M2527.57,815.467 C2530.69,815.467 2533.3,816.248 2535.38,817.81 C2537.46,819.373 2538.51,821.618 2538.51,824.545 C2538.51,829.034 2536.18,833.232 2531.53,837.139 C2526.88,841.045 2521.88,842.998 2516.54,842.998 C2513.41,842.998 2510.78,842.185 2508.63,840.56 C2506.61,838.8 2505.6,836.586 2505.6,833.92 C2505.6,829.555 2507.91,825.389 2512.54,821.42 C2517.16,817.451 2522.17,815.467 2527.57,815.467"/>
<path class="Note" d="M2585.75,802.967 C2588.88,802.967 2591.48,803.748 2593.56,805.31 C2595.65,806.873 2596.69,809.118 2596.69,812.045 C2596.69,816.534 2594.36,820.732 2589.71,824.639 C2585.06,828.545 2580.06,830.498 2574.72,830.498 C2571.59,830.498 2568.96,829.685 2566.81,828.06 C2564.79,826.3 2563.78,824.086 2563.78,821.42 C2563.78,817.055 2566.09,812.889 2570.72,808.92 C2575.34,804.951 2580.35,802.967 2585.75,802.967"/>
<path class="Note" d="M2678.84,802.967 C2681.97,802.967 2684.57,803.748 2686.65,805.31 C2688.74,806.873 2689.78,809.118 2689.78,812.045 C2689.78,816.534 2687.45,820.732 2682.8,824.639 C2678.15,828.545 2673.15,830.498 2667.81,830.498 C2664.69,830.498 2662.05,829.685 2659.9,828.06 C2657.88,826.3 2656.87,824.086 2656.87,821.42 C2656.87,817.055 2659.19,812.889 2663.81,808.92 C2668.44,804.951 2673.45,802.967 2678.84,802.967"/>
<path class="Note" d="M2737.02,802.967 C2740.15,802.967 2742.75,803.748 2744.84,805.31 C2746.92,806.873 2747.96,809.118 2747.96,812.045 C2747.96,816.534 2745.64,820.732 2740.98,824.639 C2736.33,828.545 2731.34,830.498 2725.99,830.498 C2722.87,830.498 2720.23,829.685 2718.09,828.06 C2716.07,826.3 2715.05,824.086 2715.05,821.42 C2715.05,817.055 2717.37,812.889 2721.99,808.92 C2726.62,804.951 2731.63,802.967 2737.02,802.967"/>
<path class="Clef" d="M203.623,423.857 L203.623,421.717 C203.56,420.612 203.399,418.889 203.139,416.545 C199.889,417.066 196.993,417.326 194.451,417.326 C185.336,417.326 177.605,413.727 171.256,406.529 C164.907,399.331 161.732,390.753 161.732,380.795 C161.732,378.128 162.253,374.922 163.295,371.178 C164.336,367.433 165.297,364.925 166.178,363.654 C167.058,362.383 168.378,360.154 170.139,356.967 C170.659,355.987 172.352,353.836 175.217,350.514 C175.737,349.805 176.193,349.222 176.584,348.764 C176.974,348.305 177.607,347.49 178.482,346.318 C179.357,345.146 180.3,344.055 181.31,343.045 C182.321,342.034 183.217,341.058 183.998,340.115 C184.779,339.172 185.498,338.378 186.154,337.732 C183.81,329.982 182.378,324.024 181.857,319.857 C181.336,315.691 181.076,310.579 181.076,304.521 C181.076,298.464 182.378,292.961 184.982,288.014 C187.514,282.878 191.06,278.68 195.623,275.42 C195.883,275.222 196.224,275.123 196.646,275.123 C197.068,275.123 197.378,275.222 197.576,275.42 C201.086,279.649 204.128,285.149 206.701,291.92 C209.274,298.691 210.56,305.024 210.56,310.92 C210.56,316.816 209.066,322.498 206.076,327.967 C202.691,333.758 198.326,339.748 192.982,345.935 C194.347,350.227 196.17,356.961 198.451,366.139 L199.045,366.139 C199.305,366.076 199.529,366.045 199.717,366.045 C207.081,366.045 213.089,368.633 217.74,373.81 C222.391,378.987 224.717,384.961 224.717,391.732 C224.717,400.128 221.237,406.899 214.279,412.045 C212.258,413.545 209.878,414.717 207.139,415.56 C207.472,419.79 207.639,422.605 207.639,424.006 C207.639,425.407 207.571,427.899 207.435,431.482 C207.373,437.597 205.29,442.836 201.185,447.201 C197.081,451.566 192.394,453.748 187.123,453.748 C181.852,453.748 177.36,451.876 173.646,448.131 C169.933,444.386 168.076,439.847 168.076,434.514 C168.076,431.711 169.154,429.331 171.31,427.373 C173.519,425.425 176.006,424.451 178.771,424.451 C181.537,424.451 183.8,425.461 185.56,427.482 C187.383,429.368 188.295,431.644 188.295,434.31 C188.295,436.977 187.383,439.222 185.56,441.045 C183.737,442.868 181.555,443.779 179.014,443.779 C177.972,443.779 176.967,443.586 175.998,443.201 C178.862,447.43 182.54,449.545 187.029,449.545 C191.519,449.545 195.36,447.691 198.553,443.982 C201.745,440.274 203.342,435.909 203.342,430.889 L203.623,423.857 M206.748,411.56 C210.133,410.321 212.821,408.123 214.81,404.967 C216.8,401.81 217.795,398.67 217.795,395.545 C217.795,390.92 216.198,386.784 213.006,383.139 C209.813,379.493 205.774,377.441 200.889,376.982 C203.691,390.722 205.644,402.248 206.748,411.56 M168.967,388.998 C168.967,395.446 171.537,401.079 176.678,405.896 C181.818,410.714 187.842,413.123 194.748,413.123 C197.477,413.123 200.144,412.925 202.748,412.529 C201.706,402.633 199.654,390.784 196.592,376.982 C192.758,377.378 189.782,378.698 187.662,380.943 C185.542,383.188 184.482,385.743 184.482,388.607 C184.482,393.555 187.123,397.56 192.404,400.623 C192.852,400.883 193.076,401.323 193.076,401.943 C193.076,402.563 192.865,403.099 192.443,403.553 C192.021,404.006 191.649,404.232 191.326,404.232 C191.003,404.232 190.581,404.17 190.06,404.045 C182.435,399.878 178.623,393.592 178.623,385.185 C178.623,381.217 180.024,377.409 182.826,373.764 C185.753,370.118 189.56,367.774 194.248,366.732 C192.425,359.441 190.93,353.743 189.764,349.639 C180.847,359.67 175.31,367.092 173.154,371.904 C170.362,378.154 168.967,383.852 168.967,388.998 M201.576,289.685 C196.691,292.092 192.834,295.573 190.006,300.131 C187.178,304.688 185.764,309.472 185.764,314.482 C185.764,319.493 186.935,325.972 189.279,333.92 C193.967,328.253 197.514,322.946 199.92,317.998 C202.326,313.05 203.529,308.152 203.529,303.303 C203.529,298.454 202.878,293.915 201.576,289.685"/>
<path class="Clef" d="M203.623,898.857 L203.623,896.717 C203.56,895.612 203.399,893.889 203.139,891.545 C199.889,892.066 196.993,892.326 194.451,892.326 C185.336,892.326 177.605,888.727 171.256,881.529 C164.907,874.331 161.732,865.753 161.732,855.795 C161.732,853.128 162.253,849.922 163.295,846.178 C164.336,842.433 165.297,839.925 166.178,838.654 C167.058,837.383 168.378,835.154 170.139,831.967 C170.659,830.987 172.352,828.836 175.217,825.514 C175.737,824.805 176.193,824.222 176.584,823.764 C176.974,823.305 177.607,822.49 178.482,821.318 C179.357,820.146 180.3,819.055 181.31,818.045 C182.321,817.034 183.217,816.058 183.998,815.115 C184.779,814.172 185.498,813.378 186.154,812.732 C183.81,804.982 182.378,799.024 181.857,794.857 C181.336,790.691 181.076,785.579 181.076,779.521 C181.076,773.464 182.378,767.961 184.982,763.014 C187.514,757.878 191.06,753.68 195.623,750.42 C195.883,750.222 196.224,750.123 196.646,750.123 C197.068,750.123 197.378,750.222 197.576,750.42 C201.086,754.649 204.128,760.149 206.701,766.92 C209.274,773.691 210.56,780.024 210.56,785.92 C210.56,791.816 209.066,797.498 206.076,802.967 C202.691,808.758 198.326,814.748 192.982,820.935 C194.347,825.227 196.17,831.961 198.451,841.139 L199.045,841.139 C199.305,841.076 199.529,841.045 199.717,841.045 C207.081,841.045 213.089,843.633 217.74,848.81 C222.391,853.987 224.717,859.961 224.717,866.732 C224.717,875.128 221.237,881.899 214.279,887.045 C212.258,888.545 209.878,889.717 207.139,890.56 C207.472,894.79 207.639,897.605 207.639,899.006 C207.639,900.407 207.571,902.899 207.435,906.482 C207.373,912.597 205.29,917.836 201.185,922.201 C197.081,926.566 192.394,928.748 187.123,928.748 C181.852,928.748 177.36,926.876 173.646,923.131 C169.933,919.386 168.076,914.847 168.076,909.514 C168.076,906.711 169.154,904.331 171.31,902.373 C173.519,900.425 176.006,899.451 178.771,899.451 C181.537,899.451 183.8,900.461 185.56,902.482 C187.383,904.368 188.295,906.644 188.295,909.31 C188.295,911.977 187.383,914.222 185.56,916.045 C183.737,917.868 181.555,918.779 179.014,918.779 C177.972,918.779 176.967,918.586 175.998,918.201 C178.862,922.43 182.54,924.545 187.029,924.545 C191.519,924.545 195.36,922.691 198.553,918.982 C201.745,915.274 203.342,910.909 203.342,905.889 L203.623,898.857 M206.748,886.56 C210.133,885.321 212.821,883.123 214.81,879.967 C216.8,876.81 217.795,873.67 217.795,870.545 C217.795,865.92 216.198,861.784 213.006,858.139 C209.813,854.493 205.774,852.441 200.889,851.982 C203.691,865.722 205.644,877.248 206.748,886.56 M168.967,863.998 C168.967,870.446 171.537,876.079 176.678,880.896 C181.818,885.714 187.842,888.123 194.748,888.123 C197.477,888.123 200.144,887.925 202.748,887.529 C201.706,877.633 199.654,865.784 196.592,851.982 C192.758,852.378 189.782,853.698 187.662,855.943 C185.542,858.188 184.482,860.743 184.482,863.607 C184.482,868.555 187.123,872.56 192.404,875.623 C192.852,875.883 193.076,876.323 193.076,876.943 C193.076,877.563 192.865,878.099 192.443,878.553 C192.021,879.006 191.649,879.232 191.326,879.232 C191.003,879.232 190.581,879.17 190.06,879.045 C182.435,874.878 178.623,868.592 178.623,860.185 C178.623,856.217 180.024,852.409 182.826,848.764 C185.753,845.118 189.56,842.774 194.248,841.732 C192.425,834.441 190.93,828.743 189.764,824.639 C180.847,834.67 175.31,842.092 173.154,846.904 C170.362,853.154 168.967,858.852 168.967,863.998 M201.576,764.685 C196.691,767.092 192.834,770.573 190.006,775.131 C187.178,779.688 185.764,784.472 185.764,789.482 C185.764,794.493 186.935,800.972 189.279,808.92 C193.967,803.253 197.514,797.946 199.92,792.998 C202.326,788.05 203.529,783.152 203.529,778.303 C203.529,773.454 202.878,768.915 201.576,764.685"/>
<path class="KeySig" d="M297.412,332.264 C298.849,331.868 299.568,332.222 299.568,333.326 L299.568,341.139 C299.568,341.92 298.948,342.54 297.709,342.998 L294.49,344.264 L294.49,358.435 L297.412,357.264 C298.849,356.868 299.568,357.227 299.568,358.342 L299.568,366.154 C299.568,366.935 298.948,367.55 297.709,367.998 L294.49,369.279 L294.49,385.482 C294.49,386.722 294.001,387.342 293.021,387.342 C292.042,387.342 291.553,386.722 291.553,385.482 L291.553,370.451 L282.271,374.154 L282.271,390.264 C282.271,391.503 281.784,392.123 280.81,392.123 C279.836,392.123 279.349,391.503 279.349,390.264 L279.349,375.326 L276.803,376.404 C275.438,376.987 274.756,376.597 274.756,375.232 L274.756,367.514 C274.756,366.868 275.344,366.284 276.521,365.764 L279.349,364.592 L279.349,350.326 L276.803,351.404 C275.438,351.987 274.756,351.597 274.756,350.232 L274.756,342.514 C274.756,341.857 275.344,341.269 276.521,340.748 L279.349,339.576 L279.349,323.467 C279.349,322.227 279.836,321.607 280.81,321.607 C281.784,321.607 282.271,322.227 282.271,323.467 L282.271,338.404 L291.553,334.607 L291.553,318.685 C291.553,317.446 292.042,316.826 293.021,316.826 C294.001,316.826 294.49,317.446 294.49,318.685 L294.49,333.435 L297.412,332.264 M282.271,349.154 L282.271,363.42 L291.553,359.607 L291.553,345.435 L282.271,349.154 "/>
<path class="KeySig" d="M272.412,294.764 C273.849,294.368 274.568,294.722 274.568,295.826 L274.568,303.639 C274.568,304.42 273.948,305.04 272.709,305.498 L269.49,306.764 L269.49,320.935 L272.412,319.764 C273.849,319.368 274.568,319.727 274.568,320.842 L274.568,328.654 C274.568,329.435 273.948,330.05 272.709,330.498 L269.49,331.779 L269.49,347.982 C269.49,349.222 269.001,349.842 268.021,349.842 C267.042,349.842 266.553,349.222 266.553,347.982 L266.553,332.951 L257.271,336.654 L257.271,352.764 C257.271,354.003 256.784,354.623 255.81,354.623 C254.836,354.623 254.349,354.003 254.349,352.764 L254.349,337.826 L251.803,338.904 C250.438,339.487 249.756,339.097 249.756,337.732 L249.756,330.014 C249.756,329.368 250.344,328.784 251.521,328.264 L254.349,327.092 L254.349,312.826 L251.803,313.904 C250.438,314.487 249.756,314.097 249.756,312.732 L249.756,305.014 C249.756,304.357 250.344,303.769 251.521,303.248 L254.349,302.076 L254.349,285.967 C254.349,284.727 254.836,284.107 255.81,284.107 C256.784,284.107 257.271,284.727 257.271,285.967 L257.271,300.904 L266.553,297.107 L266.553,281.185 C266.553,279.946 267.042,279.326 268.021,279.326 C269.001,279.326 269.49,279.946 269.49,281.185 L269.49,295.935 L272.412,294.764 M257.271,311.654 L257.271,325.92 L266.553,322.107 L266.553,307.935 L257.271,311.654 "/>
<path class="KeySig" d="M297.412,807.264 C298.849,806.868 299.568,807.222 299.568,808.326 L299.568,816.139 C299.568,816.92 298.948,817.54 297.709,817.998 L294.49,819.264 L294.49,833.435 L297.412,832.264 C298.849,831.868 299.568,832.227 299.568,833.342 L299.568,841.154 C299.568,841.935 298.948,842.55 297.709,842.998 L294.49,844.279 L294.49,860.482 C294.49,861.722 294.001,862.342 293.021,862.342 C292.042,862.342 291.553,861.722 291.553,860.482 L291.553,845.451 L282.271,849.154 L282.271,865.264 C282.271,866.503 281.784,867.123 280.81,867.123 C279.836,867.123 279.349,866.503 279.349,865.264 L279.349,850.326 L276.803,851.404 C275.438,851.987 274.756,851.597 274.756,850.232 L274.756,842.514 C274.756,841.868 275.344,841.284 276.521,840.764 L279.349,839.592 L279.349,825.326 L276.803,826.404 C275.438,826.987 274.756,826.597 274.756,825.232 L274.756,817.514 C274.756,816.857 275.344,816.269 276.521,815.748 L279.349,814.576 L279.349,798.467 C279.349,797.227 279.836,796.607 280.81,796.607 C281.784,796.607 282.271,797.227 282.271,798.467 L282.271,813.404 L291.553,809.607 L291.553,793.685 C291.553,792.446 292.042,791.826 293.021,791.826 C294.001,791.826 294.49,792.446 294.49,793.685 L294.49,808.435 L297.412,807.264 M282.271,824.154 L282.271,838.42 L291.553,834.607 L291.553,820.435 L282.271,824.154 "/>
<path class="KeySig" d="M272.412,769.764 C273.849,769.368 274.568,769.722 274.568,770.826 L274.568,778.639 C274.568,779.42 273.948,780.04 272.709,780.498 L269.49,781.764 L269.49,795.935 L272.412,794.764 C273.849,794.368 274.568,794.727 274.568,795.842 L274.568,803.654 C274.568,804.435 273.948,805.05 272.709,805.498 L269.49,806.779 L269.49,822.982 C269.49,824.222 269.001,824.842 268.021,824.842 C267.042,824.842 266.553,824.222 266.553,822.982 L266.553,807.951 L257.271,811.654 L257.271,827.764 C257.271,829.003 256.784,829.623 255.81,829.623 C254.836,829.623 254.349,829.003 254.349,827.764 L254.349,812.826 L251.803,813.904 C250.438,814.487 249.756,814.097 249.756,812.732 L249.756,805.014 C249.756,804.368 250.344,803.784 251.521,803.264 L254.349,802.092 L254.349,787.826 L251.803,788.904 C250.438,789.487 249.756,789.097 249.756,787.732 L249.756,780.014 C249.756,779.357 250.344,778.769 251.521,778.248 L254.349,777.076 L254.349,760.967 C254.349,759.727 254.836,759.107 255.81,759.107 C256.784,759.107 257.271,759.727 257.271,760.967 L257.271,775.904 L266.553,772.107 L266.553,756.185 C266.553,754.946 267.042,754.326 268.021,754.326 C269.001,754.326 269.49,754.946 269.49,756.185 L269.49,770.935 L272.412,769.764 M257.271,786.654 L257.271,800.92 L266.553,797.107 L266.553,782.935 L257.271,786.654 "/>
<path class="TimeSig" d="M348.084,344.076 C347.303,342.118 345.641,341.139 343.099,341.139 C340.558,341.139 338.995,342.118 338.412,344.076 C337.954,345.514 337.724,347.925 337.724,351.31 L337.724,354.232 C337.724,357.618 337.954,360.029 338.412,361.467 C338.995,363.415 340.589,364.389 343.193,364.389 C345.797,364.389 347.441,363.282 348.123,361.068 C348.805,358.855 349.146,355.959 349.146,352.381 C349.146,348.803 348.792,346.034 348.084,344.076 M337.724,340.17 C339.683,339.389 341.443,338.93 343.006,338.795 C348.214,338.795 352.381,339.972 355.506,342.326 C358.495,344.732 359.99,348.198 359.99,352.724 C359.99,357.251 358.461,360.717 355.404,363.123 C352.347,365.529 348.18,366.732 342.904,366.732 C337.628,366.732 333.493,364.258 330.498,359.31 C327.503,354.362 326.006,348.534 326.006,341.826 C326.006,335.118 327.766,329.227 331.287,324.154 C334.86,319.206 339.448,316.732 345.053,316.732 C348.698,316.732 351.904,317.675 354.67,319.56 C357.435,321.446 358.818,323.92 358.818,326.982 C358.818,328.868 358.167,330.43 356.865,331.67 C355.698,332.972 354.204,333.623 352.381,333.623 C350.558,333.623 348.995,332.972 347.693,331.67 C346.391,330.368 345.74,328.805 345.74,326.982 C345.74,326.264 346.391,325.451 347.693,324.545 C348.995,323.764 349.646,322.933 349.646,322.053 C349.646,321.172 349.188,320.441 348.271,319.857 C347.23,319.336 346.157,319.076 345.053,319.076 C342.053,319.076 340.068,320.279 339.099,322.685 C338.058,325.029 337.537,328.446 337.537,332.935 C337.537,334.237 337.568,335.443 337.631,336.553 C337.693,337.662 337.724,338.868 337.724,340.17"/>
<path class="TimeSig" d="M350.209,387.92 C353.469,384.336 355.099,381.081 355.099,378.154 C355.099,375.227 353.977,372.982 351.732,371.42 C349.487,369.857 346.98,369.076 344.209,369.076 C341.438,369.076 339.37,369.792 338.006,371.224 C336.641,372.657 335.959,374.399 335.959,376.451 C335.959,378.503 336.969,380.144 338.99,381.373 L350.209,387.92 M325.803,380.592 C325.803,376.685 327.396,373.399 330.584,370.732 C333.771,368.066 337.774,366.732 342.592,366.732 C347.409,366.732 351.415,367.693 354.607,369.615 C357.8,371.537 359.396,374.237 359.396,377.717 C359.396,381.196 357.344,385.149 353.24,389.576 C358.771,392.774 361.537,397.04 361.537,402.373 C361.537,406.352 359.878,409.74 356.56,412.537 C353.243,415.334 348.816,416.732 343.279,416.732 C337.743,416.732 333.251,415.43 329.803,412.826 C326.157,410.222 324.334,406.868 324.334,402.764 C324.334,401.274 324.792,399.748 325.709,398.185 C326.49,396.425 328.573,393.946 331.959,390.748 C327.855,387.883 325.803,384.498 325.803,380.592 M334.974,392.514 C330.881,396.159 328.834,399.626 328.834,402.912 C328.834,406.198 330.183,408.933 332.881,411.115 C335.579,413.297 338.54,414.389 341.764,414.389 C344.987,414.389 347.349,413.545 348.849,411.857 C350.412,410.295 351.193,408.243 351.193,405.701 C351.193,403.159 350.053,401.237 347.771,399.935 L334.974,392.514 "/>
<path class="Hook" d="M441.349,322.982 L441.349,297.982 L444.474,297.982 C444.474,301.691 445.224,305.482 446.724,309.357 C448.224,313.232 449.787,316.456 451.412,319.029 C453.037,321.602 455.053,324.842 457.459,328.748 C462.74,337.279 465.381,344.865 465.381,351.506 C465.381,358.146 463.98,364.982 461.178,372.014 C460.657,372.795 460.055,373.185 459.373,373.185 C458.691,373.185 458.12,372.956 457.662,372.498 C457.204,372.04 456.974,371.519 456.974,370.935 L456.974,370.451 C459.777,364.003 461.178,357.623 461.178,351.31 C461.178,348.05 460.185,344.501 458.201,340.662 C456.217,336.823 454.165,333.683 452.045,331.24 C449.925,328.797 447.402,326.045 444.474,322.982 L441.349,322.982 "/>
<path class="Hook" d="M574.875,322.982 L574.875,297.982 L578,297.982 C578,301.691 578.75,305.482 580.25,309.357 C581.75,313.232 583.313,316.456 584.938,319.029 C586.563,321.602 588.579,324.842 590.985,328.748 C596.266,337.279 598.907,344.865 598.907,351.506 C598.907,358.146 597.506,364.982 594.704,372.014 C594.183,372.795 593.581,373.185 592.899,373.185 C592.217,373.185 591.646,372.956 591.188,372.498 C590.73,372.04 590.5,371.519 590.5,370.935 L590.5,370.451 C593.303,364.003 594.704,357.623 594.704,351.31 C594.704,348.05 593.711,344.501 591.727,340.662 C589.743,336.823 587.691,333.683 585.571,331.24 C583.451,328.797 580.928,326.045 578,322.982 L574.875,322.982 "/>
<path class="Hook" d="M730.487,356.873 C731.987,356.873 733.568,359.297 735.23,364.146 C736.891,368.995 737.722,373.438 737.722,377.474 C737.722,381.511 736.795,385.417 734.94,389.193 C733.086,392.969 730.857,396.29 728.253,399.154 L720.237,408.139 C717.769,411.003 715.589,414.29 713.698,417.998 C711.808,421.706 710.862,425.451 710.862,429.232 L707.737,429.232 L707.737,404.232 L710.862,404.232 C721.8,397.326 728.67,391.206 731.472,385.873 C732.836,383.269 733.519,380.633 733.519,377.967 C733.519,371.779 731.727,365.623 728.144,359.498 L728.144,359.107 C728.144,358.524 728.373,358.006 728.831,357.553 C729.289,357.099 729.842,356.873 730.487,356.873"/>
<path class="Hook" d="M836.386,369.373 C837.886,369.373 839.467,371.797 841.129,376.646 C842.79,381.495 843.621,385.938 843.621,389.974 C843.621,394.011 842.694,397.917 840.84,401.693 C838.985,405.469 836.756,408.79 834.152,411.654 L826.136,420.639 C823.668,423.503 821.488,426.79 819.597,430.498 C817.707,434.206 816.761,437.951 816.761,441.732 L813.636,441.732 L813.636,416.732 L816.761,416.732 C827.699,409.826 834.569,403.706 837.371,398.373 C838.735,395.769 839.418,393.133 839.418,390.467 C839.418,384.279 837.626,378.123 834.043,371.998 L834.043,371.607 C834.043,371.024 834.272,370.506 834.73,370.053 C835.188,369.599 835.741,369.373 836.386,369.373"/>
<path class="Hook" d="M978.199,341.732 L978.199,316.732 L981.324,316.732 C981.324,320.441 982.074,324.232 983.574,328.107 C985.074,331.982 986.637,335.206 988.262,337.779 C989.887,340.352 991.903,343.592 994.309,347.498 C999.59,356.029 1002.23,363.615 1002.23,370.256 C1002.23,376.896 1000.83,383.732 998.028,390.764 C997.507,391.545 996.905,391.935 996.223,391.935 C995.541,391.935 994.97,391.706 994.512,391.248 C994.054,390.79 993.824,390.269 993.824,389.685 L993.824,389.201 C996.627,382.753 998.028,376.373 998.028,370.06 C998.028,366.8 997.035,363.251 995.051,359.412 C993.067,355.573 991.015,352.433 988.895,349.99 C986.775,347.547 984.252,344.795 981.324,341.732 L978.199,341.732 "/>
<path class="Hook" d="M1111.73,354.232 L1111.73,329.232 L1114.85,329.232 C1114.85,332.941 1115.6,336.732 1117.1,340.607 C1118.6,344.482 1120.16,347.706 1121.79,350.279 C1123.41,352.852 1125.43,356.092 1127.83,359.998 C1133.12,368.529 1135.76,376.115 1135.76,382.756 C1135.76,389.396 1134.36,396.232 1131.55,403.264 C1131.03,404.045 1130.43,404.435 1129.75,404.435 C1129.07,404.435 1128.5,404.206 1128.04,403.748 C1127.58,403.29 1127.35,402.769 1127.35,402.185 L1127.35,401.701 C1130.15,395.253 1131.55,388.873 1131.55,382.56 C1131.55,379.3 1130.56,375.751 1128.58,371.912 C1126.59,368.073 1124.54,364.933 1122.42,362.49 C1120.3,360.047 1117.78,357.295 1114.85,354.232 L1111.73,354.232 "/>
<path class="Hook" d="M1274.25,366.732 L1274.25,341.732 L1277.38,341.732 C1277.38,345.441 1278.13,349.232 1279.63,353.107 C1281.13,356.982 1282.69,360.206 1284.31,362.779 C1285.94,365.352 1287.95,368.592 1290.36,372.498 C1295.64,381.029 1298.28,388.615 1298.28,395.256 C1298.28,401.896 1296.88,408.732 1294.08,415.764 C1293.56,416.545 1292.96,416.935 1292.27,416.935 C1291.59,416.935 1291.02,416.706 1290.56,416.248 C1290.11,415.79 1289.88,415.269 1289.88,414.685 L1289.88,414.201 C1292.68,407.753 1294.08,401.373 1294.08,395.06 C1294.08,391.8 1293.09,388.251 1291.1,384.412 C1289.12,380.573 1287.07,377.433 1284.95,374.99 C1282.83,372.547 1280.3,369.795 1277.38,366.732 L1274.25,366.732 "/>
<path class="Hook" d="M1408.9,354.232 L1408.9,329.232 L1412.03,329.232 C1412.03,332.941 1412.78,336.732 1414.28,340.607 C1415.78,344.482 1417.34,347.706 1418.97,350.279 C1420.59,352.852 1422.61,356.092 1425.01,359.998 C1430.3,368.529 1432.94,376.115 1432.94,382.756 C1432.94,389.396 1431.53,396.232 1428.73,403.264 C1428.21,404.045 1427.61,404.435 1426.93,404.435 C1426.25,404.435 1425.68,404.206 1425.22,403.748 C1424.76,403.29 1424.53,402.769 1424.53,402.185 L1424.53,401.701 C1427.33,395.253 1428.73,388.873 1428.73,382.56 C1428.73,379.3 1427.74,375.751 1425.76,371.912 C1423.77,368.073 1421.72,364.933 1419.6,362.49 C1417.48,360.047 1414.96,357.295 1412.03,354.232 L1408.9,354.232 "/>
<path class="Hook" d="M1572.56,322.982 L1572.56,297.982 L1575.68,297.982 C1575.68,301.691 1576.43,305.482 1577.93,309.357 C1579.43,313.232 1581,316.456 1582.62,319.029 C1584.25,321.602 1586.26,324.842 1588.67,328.748 C1593.95,337.279 1596.59,344.865 1596.59,351.506 C1596.59,358.146 1595.19,364.982 1592.39,372.014 C1591.86,372.795 1591.26,373.185 1590.58,373.185 C1589.9,373.185 1589.33,372.956 1588.87,372.498 C1588.41,372.04 1588.18,371.519 1588.18,370.935 L1588.18,370.451 C1590.98,364.003 1592.39,357.623 1592.39,351.31 C1592.39,348.05 1591.39,344.501 1589.41,340.662 C1587.42,336.823 1585.37,333.683 1583.25,331.24 C1581.13,328.797 1578.61,326.045 1575.68,322.982 L1572.56,322.982 "/>
<path class="Hook" d="M1706.08,322.982 L1706.08,297.982 L1709.21,297.982 C1709.21,301.691 1709.96,305.482 1711.46,309.357 C1712.96,313.232 1714.52,316.456 1716.15,319.029 C1717.77,321.602 1719.79,324.842 1722.19,328.748 C1727.47,337.279 1730.11,344.865 1730.11,351.506 C1730.11,358.146 1728.71,364.982 1725.91,372.014 C1725.39,372.795 1724.79,373.185 1724.11,373.185 C1723.42,373.185 1722.85,372.956 1722.4,372.498 C1721.94,372.04 1721.71,371.519 1721.71,370.935 L1721.71,370.451 C1724.51,364.003 1725.91,357.623 1725.91,351.31 C1725.91,348.05 1724.92,344.501 1722.94,340.662 C1720.95,336.823 1718.9,333.683 1716.78,331.24 C1714.66,328.797 1712.14,326.045 1709.21,322.982 L1706.08,322.982 "/>
<path class="Hook" d="M1861.7,356.873 C1863.2,356.873 1864.78,359.297 1866.44,364.146 C1868.1,368.995 1868.93,373.438 1868.93,377.474 C1868.93,381.511 1868,385.417 1866.15,389.193 C1864.29,392.969 1862.07,396.29 1859.46,399.154 L1851.45,408.139 C1848.98,411.003 1846.8,414.29 1844.91,417.998 C1843.02,421.706 1842.07,425.451 1842.07,429.232 L1838.95,429.232 L1838.95,404.232 L1842.07,404.232 C1853.01,397.326 1859.88,391.206 1862.68,385.873 C1864.04,383.269 1864.73,380.633 1864.73,377.967 C1864.73,371.779 1862.94,365.623 1859.35,359.498 L1859.35,359.107 C1859.35,358.524 1859.58,358.006 1860.04,357.553 C1860.5,357.099 1861.05,356.873 1861.7,356.873"/>
<path class="Hook" d="M1967.59,369.373 C1969.09,369.373 1970.68,371.797 1972.34,376.646 C1974,381.495 1974.83,385.938 1974.83,389.974 C1974.83,394.011 1973.9,397.917 1972.05,401.693 C1970.19,405.469 1967.96,408.79 1965.36,411.654 L1957.34,420.639 C1954.88,423.503 1952.7,426.79 1950.81,430.498 C1948.91,434.206 1947.97,437.951 1947.97,441.732 L1944.84,441.732 L1944.84,416.732 L1947.97,416.732 C1958.91,409.826 1965.78,403.706 1968.58,398.373 C1969.94,395.769 1970.63,393.133 1970.63,390.467 C1970.63,384.279 1968.83,378.123 1965.25,371.998 L1965.25,371.607 C1965.25,371.024 1965.48,370.506 1965.94,370.053 C1966.4,369.599 1966.95,369.373 1967.59,369.373"/>
<path class="Hook" d="M2102.49,369.373 C2103.99,369.373 2105.57,371.797 2107.24,376.646 C2108.9,381.495 2109.73,385.938 2109.73,389.974 C2109.73,394.011 2108.8,397.917 2106.95,401.693 C2105.09,405.469 2102.86,408.79 2100.26,411.654 L2092.24,420.639 C2089.77,423.503 2087.6,426.79 2085.7,430.498 C2083.81,434.206 2082.87,437.951 2082.87,441.732 L2079.74,441.732 L2079.74,416.732 L2082.87,416.732 C2093.81,409.826 2100.68,403.706 2103.48,398.373 C2104.84,395.769 2105.52,393.133 2105.52,390.467 C2105.52,384.279 2103.73,378.123 2100.15,371.998 L2100.15,371.607 C2100.15,371.024 2100.38,370.506 2100.84,370.053 C2101.3,369.599 2101.85,369.373 2102.49,369.373"/>
<path class="Hook" d="M2208.39,331.873 C2209.89,331.873 2211.47,334.297 2213.13,339.146 C2214.8,343.995 2215.63,348.438 2215.63,352.474 C2215.63,356.511 2214.7,360.417 2212.85,364.193 C2210.99,367.969 2208.76,371.29 2206.16,374.154 L2198.14,383.139 C2195.67,386.003 2193.49,389.29 2191.6,392.998 C2189.71,396.706 2188.77,400.451 2188.77,404.232 L2185.64,404.232 L2185.64,379.232 L2188.77,379.232 C2199.7,372.326 2206.57,366.206 2209.38,360.873 C2210.74,358.269 2211.42,355.633 2211.42,352.967 C2211.42,346.779 2209.63,340.623 2206.05,334.498 L2206.05,334.107 C2206.05,333.524 2206.28,333.006 2206.74,332.553 C2207.19,332.099 2207.75,331.873 2208.39,331.873"/>
<path class="Hook" d="M2343.29,369.373 C2344.79,369.373 2346.37,371.797 2348.03,376.646 C2349.7,381.495 2350.53,385.938 2350.53,389.974 C2350.53,394.011 2349.6,397.917 2347.74,401.693 C2345.89,405.469 2343.66,408.79 2341.06,411.654 L2333.04,420.639 C2330.57,423.503 2328.39,426.79 2326.5,430.498 C2324.61,434.206 2323.67,437.951 2323.67,441.732 L2320.54,441.732 L2320.54,416.732 L2323.67,416.732 C2334.6,409.826 2341.47,403.706 2344.28,398.373 C2345.64,395.769 2346.32,393.133 2346.32,390.467 C2346.32,384.279 2344.53,378.123 2340.95,371.998 L2340.95,371.607 C2340.95,371.024 2341.18,370.506 2341.64,370.053 C2342.09,369.599 2342.65,369.373 2343.29,369.373"/>
<path class="Hook" d="M2450.32,356.873 C2451.82,356.873 2453.4,359.297 2455.06,364.146 C2456.72,368.995 2457.55,373.438 2457.55,377.474 C2457.55,381.511 2456.62,385.417 2454.77,389.193 C2452.92,392.969 2450.69,396.29 2448.08,399.154 L2440.07,408.139 C2437.6,411.003 2435.42,414.29 2433.53,417.998 C2431.64,421.706 2430.69,425.451 2430.69,429.232 L2427.57,429.232 L2427.57,404.232 L2430.69,404.232 C2441.63,397.326 2448.5,391.206 2451.3,385.873 C2452.67,383.269 2453.35,380.633 2453.35,377.967 C2453.35,371.779 2451.56,365.623 2447.97,359.498 L2447.97,359.107 C2447.97,358.524 2448.2,358.006 2448.66,357.553 C2449.12,357.099 2449.67,356.873 2450.32,356.873"/>
<path class="Hook" d="M2593.26,322.982 L2593.26,297.982 L2596.38,297.982 C2596.38,301.691 2597.13,305.482 2598.63,309.357 C2600.13,313.232 2601.7,316.456 2603.32,319.029 C2604.95,321.602 2606.96,324.842 2609.37,328.748 C2614.65,337.279 2617.29,344.865 2617.29,351.506 C2617.29,358.146 2615.89,364.982 2613.09,372.014 C2612.57,372.795 2611.96,373.185 2611.28,373.185 C2610.6,373.185 2610.03,372.956 2609.57,372.498 C2609.11,372.04 2608.88,371.519 2608.88,370.935 L2608.88,370.451 C2611.68,364.003 2613.09,357.623 2613.09,351.31 C2613.09,348.05 2612.09,344.501 2610.11,340.662 C2608.12,336.823 2606.07,333.683 2603.95,331.24 C2601.83,328.797 2599.31,326.045 2596.38,322.982 L2593.26,322.982 "/>
<path class="Hook" d="M2726.78,322.982 L2726.78,297.982 L2729.91,297.982 C2729.91,301.691 2730.66,305.482 2732.16,309.357 C2733.66,313.232 2735.22,316.456 2736.85,319.029 C2738.47,321.602 2740.49,324.842 2742.89,328.748 C2748.17,337.279 2750.82,344.865 2750.82,351.506 C2750.82,358.146 2749.41,364.982 2746.61,372.014 C2746.09,372.795 2745.49,373.185 2744.81,373.185 C2744.12,373.185 2743.55,372.956 2743.1,372.498 C2742.64,372.04 2742.41,371.519 2742.41,370.935 L2742.41,370.451 C2745.21,364.003 2746.61,357.623 2746.61,351.31 C2746.61,348.05 2745.62,344.501 2743.64,340.662 C2741.65,336.823 2739.6,333.683 2737.48,331.24 C2735.36,328.797 2732.84,326.045 2729.91,322.982 L2726.78,322.982 "/>
<path class="Hook" d="M384.584,831.873 C386.084,831.873 387.665,834.297 389.326,839.146 C390.987,843.995 391.818,848.438 391.818,852.474 C391.818,856.511 390.891,860.417 389.037,864.193 C387.183,867.969 384.954,871.29 382.349,874.154 L374.334,883.139 C371.865,886.003 369.685,889.29 367.795,892.998 C365.904,896.706 364.959,900.451 364.959,904.232 L361.834,904.232 L361.834,879.232 L364.959,879.232 C375.896,872.326 382.766,866.206 385.568,860.873 C386.933,858.269 387.615,855.633 387.615,852.967 C387.615,846.779 385.823,840.623 382.24,834.498 L382.24,834.107 C382.24,833.524 382.469,833.006 382.928,832.553 C383.386,832.099 383.938,831.873 384.584,831.873"/>
<path class="Hook" d="M534.73,844.373 C536.23,844.373 537.81,846.797 539.472,851.646 C541.133,856.495 541.964,860.938 541.964,864.974 C541.964,869.011 541.037,872.917 539.183,876.693 C537.329,880.469 535.099,883.79 532.495,886.654 L524.48,895.639 C522.011,898.503 519.831,901.79 517.941,905.498 C516.05,909.206 515.105,912.951 515.105,916.732 L511.98,916.732 L511.98,891.732 L515.105,891.732 C526.042,884.826 532.912,878.706 535.714,873.373 C537.079,870.769 537.761,868.133 537.761,865.467 C537.761,859.279 535.969,853.123 532.386,846.998 L532.386,846.607 C532.386,846.024 532.615,845.506 533.073,845.053 C533.532,844.599 534.084,844.373 534.73,844.373"/>
<path class="Hook" d="M720.79,816.732 L720.79,791.732 L723.915,791.732 C723.915,795.441 724.665,799.232 726.165,803.107 C727.665,806.982 729.227,810.206 730.852,812.779 C732.477,815.352 734.493,818.592 736.899,822.498 C742.18,831.029 744.821,838.615 744.821,845.256 C744.821,851.896 743.42,858.732 740.618,865.764 C740.097,866.545 739.495,866.935 738.813,866.935 C738.131,866.935 737.56,866.706 737.102,866.248 C736.644,865.79 736.415,865.269 736.415,864.685 L736.415,864.201 C739.217,857.753 740.618,851.373 740.618,845.06 C740.618,841.8 739.626,838.251 737.641,834.412 C735.657,830.573 733.605,827.433 731.485,824.99 C729.365,822.547 726.842,819.795 723.915,816.732 L720.79,816.732 "/>
<path class="Hook" d="M898.562,829.232 L898.562,804.232 L901.687,804.232 C901.687,807.941 902.437,811.732 903.937,815.607 C905.437,819.482 907,822.706 908.625,825.279 C910.25,827.852 912.266,831.092 914.672,834.998 C919.953,843.529 922.594,851.115 922.594,857.756 C922.594,864.396 921.193,871.232 918.391,878.264 C917.87,879.045 917.268,879.435 916.586,879.435 C915.904,879.435 915.333,879.206 914.875,878.748 C914.417,878.29 914.187,877.769 914.187,877.185 L914.187,876.701 C916.989,870.253 918.391,863.873 918.391,857.56 C918.391,854.3 917.398,850.751 915.414,846.912 C913.43,843.073 911.377,839.933 909.258,837.49 C907.138,835.047 904.614,832.295 901.687,829.232 L898.562,829.232 "/>
<path class="Hook" d="M1105.34,841.732 L1105.34,816.732 L1108.46,816.732 C1108.46,820.441 1109.21,824.232 1110.71,828.107 C1112.21,831.982 1113.77,835.206 1115.4,837.779 C1117.02,840.352 1119.04,843.592 1121.44,847.498 C1126.73,856.029 1129.37,863.615 1129.37,870.256 C1129.37,876.896 1127.97,883.732 1125.16,890.764 C1124.64,891.545 1124.04,891.935 1123.36,891.935 C1122.68,891.935 1122.11,891.706 1121.65,891.248 C1121.19,890.79 1120.96,890.269 1120.96,889.685 L1120.96,889.201 C1123.76,882.753 1125.16,876.373 1125.16,870.06 C1125.16,866.8 1124.17,863.251 1122.19,859.412 C1120.2,855.573 1118.15,852.433 1116.03,849.99 C1113.91,847.547 1111.39,844.795 1108.46,841.732 L1105.34,841.732 "/>
<path class="Hook" d="M1284.24,829.232 L1284.24,804.232 L1287.36,804.232 C1287.36,807.941 1288.11,811.732 1289.61,815.607 C1291.11,819.482 1292.67,822.706 1294.3,825.279 C1295.92,827.852 1297.94,831.092 1300.34,834.998 C1305.63,843.529 1308.27,851.115 1308.27,857.756 C1308.27,864.396 1306.87,871.232 1304.06,878.264 C1303.54,879.045 1302.94,879.435 1302.26,879.435 C1301.58,879.435 1301.01,879.206 1300.55,878.748 C1300.09,878.29 1299.86,877.769 1299.86,877.185 L1299.86,876.701 C1302.66,870.253 1304.06,863.873 1304.06,857.56 C1304.06,854.3 1303.07,850.751 1301.09,846.912 C1299.1,843.073 1297.05,839.933 1294.93,837.49 C1292.81,835.047 1290.29,832.295 1287.36,829.232 L1284.24,829.232 "/>
<path class="Hook" d="M1492.13,797.982 L1492.13,772.982 L1495.26,772.982 C1495.26,776.691 1496.01,780.482 1497.51,784.357 C1499.01,788.232 1500.57,791.456 1502.2,794.029 C1503.82,796.602 1505.84,799.842 1508.24,803.748 C1513.53,812.279 1516.17,819.865 1516.17,826.506 C1516.17,833.146 1514.77,839.982 1511.96,847.014 C1511.44,847.795 1510.84,848.185 1510.16,848.185 C1509.48,848.185 1508.91,847.956 1508.45,847.498 C1507.99,847.04 1507.76,846.519 1507.76,845.935 L1507.76,845.451 C1510.56,839.003 1511.96,832.623 1511.96,826.31 C1511.96,823.05 1510.97,819.501 1508.99,815.662 C1507,811.823 1504.95,808.683 1502.83,806.24 C1500.71,803.797 1498.19,801.045 1495.26,797.982 L1492.13,797.982 "/>
<path class="Hook" d="M1669.91,797.982 L1669.91,772.982 L1673.03,772.982 C1673.03,776.691 1673.78,780.482 1675.28,784.357 C1676.78,788.232 1678.35,791.456 1679.97,794.029 C1681.6,796.602 1683.61,799.842 1686.02,803.748 C1691.3,812.279 1693.94,819.865 1693.94,826.506 C1693.94,833.146 1692.54,839.982 1689.74,847.014 C1689.22,847.795 1688.61,848.185 1687.93,848.185 C1687.25,848.185 1686.68,847.956 1686.22,847.498 C1685.76,847.04 1685.53,846.519 1685.53,845.935 L1685.53,845.451 C1688.33,839.003 1689.74,832.623 1689.74,826.31 C1689.74,823.05 1688.74,819.501 1686.76,815.662 C1684.77,811.823 1682.72,808.683 1680.6,806.24 C1678.48,803.797 1675.96,801.045 1673.03,797.982 L1669.91,797.982 "/>
<path class="Hook" d="M1869.77,831.873 C1871.27,831.873 1872.85,834.297 1874.51,839.146 C1876.17,843.995 1877,848.438 1877,852.474 C1877,856.511 1876.07,860.417 1874.22,864.193 C1872.37,867.969 1870.14,871.29 1867.53,874.154 L1859.52,883.139 C1857.05,886.003 1854.87,889.29 1852.98,892.998 C1851.09,896.706 1850.14,900.451 1850.14,904.232 L1847.02,904.232 L1847.02,879.232 L1850.14,879.232 C1861.08,872.326 1867.95,866.206 1870.75,860.873 C1872.12,858.269 1872.8,855.633 1872.8,852.967 C1872.8,846.779 1871.01,840.623 1867.42,834.498 L1867.42,834.107 C1867.42,833.524 1867.65,833.006 1868.11,832.553 C1868.57,832.099 1869.12,831.873 1869.77,831.873"/>
<path class="Hook" d="M2019.91,844.373 C2021.41,844.373 2022.99,846.797 2024.65,851.646 C2026.32,856.495 2027.15,860.938 2027.15,864.974 C2027.15,869.011 2026.22,872.917 2024.37,876.693 C2022.51,880.469 2020.28,883.79 2017.68,886.654 L2009.66,895.639 C2007.19,898.503 2005.01,901.79 2003.12,905.498 C2001.23,909.206 2000.29,912.951 2000.29,916.732 L1997.16,916.732 L1997.16,891.732 L2000.29,891.732 C2011.22,884.826 2018.09,878.706 2020.9,873.373 C2022.26,870.769 2022.94,868.133 2022.94,865.467 C2022.94,859.279 2021.15,853.123 2017.57,846.998 L2017.57,846.607 C2017.57,846.024 2017.8,845.506 2018.26,845.053 C2018.71,844.599 2019.27,844.373 2019.91,844.373"/>
<path class="Hook" d="M2199.06,844.373 C2200.56,844.373 2202.14,846.797 2203.8,851.646 C2205.46,856.495 2206.29,860.938 2206.29,864.974 C2206.29,869.011 2205.37,872.917 2203.51,876.693 C2201.66,880.469 2199.43,883.79 2196.82,886.654 L2188.81,895.639 C2186.34,898.503 2184.16,901.79 2182.27,905.498 C2180.38,909.206 2179.43,912.951 2179.43,916.732 L2176.31,916.732 L2176.31,891.732 L2179.43,891.732 C2190.37,884.826 2197.24,878.706 2200.04,873.373 C2201.41,870.769 2202.09,868.133 2202.09,865.467 C2202.09,859.279 2200.3,853.123 2196.71,846.998 L2196.71,846.607 C2196.71,846.024 2196.94,845.506 2197.4,845.053 C2197.86,844.599 2198.41,844.373 2199.06,844.373"/>
<path class="Hook" d="M2349.2,806.873 C2350.7,806.873 2352.28,809.297 2353.95,814.146 C2355.61,818.995 2356.44,823.438 2356.44,827.474 C2356.44,831.511 2355.51,835.417 2353.66,839.193 C2351.8,842.969 2349.57,846.29 2346.97,849.154 L2338.95,858.139 C2336.49,861.003 2334.31,864.29 2332.41,867.998 C2330.52,871.706 2329.58,875.451 2329.58,879.232 L2326.45,879.232 L2326.45,854.232 L2329.58,854.232 C2340.52,847.326 2347.39,841.206 2350.19,835.873 C2351.55,833.269 2352.24,830.633 2352.24,827.967 C2352.24,821.779 2350.44,815.623 2346.86,809.498 L2346.86,809.107 C2346.86,808.524 2347.09,808.006 2347.55,807.553 C2348.01,807.099 2348.56,806.873 2349.2,806.873"/>
<path class="Hook" d="M2528.35,844.373 C2529.85,844.373 2531.43,846.797 2533.09,851.646 C2534.75,856.495 2535.58,860.938 2535.58,864.974 C2535.58,869.011 2534.66,872.917 2532.8,876.693 C2530.95,880.469 2528.72,883.79 2526.12,886.654 L2518.1,895.639 C2515.63,898.503 2513.45,901.79 2511.56,905.498 C2509.67,909.206 2508.72,912.951 2508.72,916.732 L2505.6,916.732 L2505.6,891.732 L2508.72,891.732 C2519.66,884.826 2526.53,878.706 2529.33,873.373 C2530.7,870.769 2531.38,868.133 2531.38,865.467 C2531.38,859.279 2529.59,853.123 2526.01,846.998 L2526.01,846.607 C2526.01,846.024 2526.24,845.506 2526.69,845.053 C2527.15,844.599 2527.7,844.373 2528.35,844.373"/>
<path class="Hook" d="M2679.62,831.873 C2681.12,831.873 2682.7,834.297 2684.36,839.146 C2686.03,843.995 2686.86,848.438 2686.86,852.474 C2686.86,856.511 2685.93,860.417 2684.08,864.193 C2682.22,867.969 2679.99,871.29 2677.39,874.154 L2669.37,883.139 C2666.9,886.003 2664.72,889.29 2662.83,892.998 C2660.94,896.706 2660,900.451 2660,904.232 L2656.87,904.232 L2656.87,879.232 L2660,879.232 C2670.94,872.326 2677.81,866.206 2680.61,860.873 C2681.97,858.269 2682.65,855.633 2682.65,852.967 C2682.65,846.779 2680.86,840.623 2677.28,834.498 L2677.28,834.107 C2677.28,833.524 2677.51,833.006 2677.97,832.553 C2678.42,832.099 2678.98,831.873 2679.62,831.873"/>
<path class="Tempo" d="M338.849,254.014 C337.896,253.17 336.568,252.748 335.006,252.748 C329.068,252.748 324.334,257.139 324.334,261.81 C324.334,264.639 326.615,266.31 329.553,266.31 C334.349,266.31 340.287,261.81 340.287,257.248 L340.287,226.529 L338.849,226.529 L338.849,254.014 "/>
<path class="Tempo" d="M392.115,248.076 L358.99,248.076 L358.99,242.31 L392.115,242.31 L392.115,248.076 M392.115,260.795 L358.99,260.795 L358.99,255.029 L392.115,255.029 L392.115,260.795 M419.803,232.06 C419.323,232.06 418.753,232.159 418.092,232.357 C417.43,232.555 416.73,232.795 415.99,233.076 C415.251,233.357 414.823,233.519 414.709,233.56 L414.709,231.998 L429.818,225.451 L430.849,225.451 L430.849,259.654 C430.849,261.977 431.248,263.487 432.045,264.185 C432.842,264.883 434.599,265.253 437.318,265.295 L437.318,266.732 L414.818,266.732 L414.818,265.295 C417.777,265.253 419.706,264.862 420.607,264.123 C421.508,263.383 421.959,261.774 421.959,259.295 L421.959,236.201 C421.959,233.441 421.24,232.06 419.803,232.06 M442.646,237.701 C445.688,229.534 450.089,225.451 455.849,225.451 C459.089,225.451 461.748,226.482 463.826,228.545 C465.904,230.607 466.943,233.237 466.943,236.435 C466.943,240.831 464.662,245.191 460.099,249.514 L450.381,258.748 L459.443,258.748 C462.527,258.748 464.508,258.508 465.389,258.029 C466.269,257.55 467.146,256.232 468.021,254.076 L469.459,254.076 L466.771,266.732 L441.803,266.732 L441.803,265.357 C448.646,258.076 453.188,252.706 455.428,249.248 C457.667,245.79 458.787,242.68 458.787,239.92 C458.787,237.878 458.128,236.097 456.81,234.576 C455.493,233.055 453.771,232.295 451.646,232.295 C448.563,232.295 446.126,234.097 444.334,237.701 L442.646,237.701 M472.209,246.326 C472.209,240.451 473.508,235.503 476.107,231.482 C478.706,227.461 481.928,225.451 485.771,225.451 C489.646,225.451 492.876,227.461 495.459,231.482 C498.042,235.503 499.334,240.514 499.334,246.514 C499.334,252.555 498.053,257.566 495.49,261.545 C492.928,265.524 489.709,267.514 485.834,267.514 C481.834,267.514 478.563,265.534 476.021,261.576 C473.48,257.618 472.209,252.534 472.209,246.326 M485.834,265.826 C487.157,265.826 488.157,264.928 488.834,263.131 C489.511,261.334 489.849,258.097 489.849,253.42 L489.849,239.67 C489.849,235.232 489.529,232.034 488.889,230.076 C488.248,228.118 487.188,227.139 485.709,227.139 C484.271,227.139 483.243,228.097 482.623,230.014 C482.003,231.93 481.693,235.149 481.693,239.67 L481.693,253.42 C481.693,257.857 482.014,261.034 482.654,262.951 C483.295,264.868 484.355,265.826 485.834,265.826"/>
</svg>
