<?xml version="1.0" encoding="UTF-8" standalone="no"?>
<svg width="2976.38px" height="4209.45px" viewBox="0 0 2976.38 4209.45"
 xmlns="http://www.w3.org/2000/svg" xmlns:xlink="http://www.w3.org/1999/xlink" version="1.2" baseProfile="tiny">
<title>ma_chanson</title>
<desc>Generated by MuseScore 3.2.3</desc>
<polyline class="StaffLines" fill="none" stroke="#000000" stroke-width="2.00" stroke-linejoin="bevel" points="141.732,316.732 2834.65,316.732"/>
<polyline class="StaffLines" fill="none" stroke="#000000" stroke-width="2.00" stroke-linejoin="bevel" points="141.732,341.732 2834.65,341.732"/>
<polyline class="StaffLines" fill="none" stroke="#000000" stroke-width="2.00" stroke-linejoin="bevel" points="141.732,366.732 2834.65,366.732"/>
<polyline class="StaffLines" fill="none" stroke="#000000" stroke-width="2.00" stroke-linejoin="bevel" points="141.732,391.732 2834.65,391.732"/>
<polyline class="StaffLines" fill="none" stroke="#000000" stroke-width="2.00" stroke-linejoin="bevel" points="141.732,416.732 2834.65,416.732"/>
<polyline class="BarLine" fill="none" stroke="#000000" stroke-width="4.00" stroke-linejoin="bevel" points="637.857,315.732 637.857,417.732"/>
<polyline class="BarLine" fill="none" stroke="#000000" stroke-width="4.00" stroke-linejoin="bevel" points="941.941,315.732 941.941,417.732"/>
<polyline class="BarLine" fill="none" stroke="#000000" stroke-width="4.00" stroke-linejoin="bevel" points="1246.03,315.732 1246.03,417.732"/>
<polyline class="BarLine" fill="none" stroke="#000000" stroke-width="4.00" stroke-linejoin="bevel" points="1561.51,315.732 1561.51,417.732"/>
<polyline class="BarLine" fill="none" stroke="#000000" stroke-width="4.00" stroke-linejoin="bevel" points="1886.49,315.732 1886.49,417.732"/>
<polyline class="BarLine" fill="none" stroke="#000000" stroke-width="4.00" stroke-linejoin="bevel" points="2190.58,315.732 2190.58,417.732"/>
<polyline class="BarLine" fill="none" stroke="#000000" stroke-width="4.00" stroke-linejoin="bevel" points="2494.66,315.732 2494.66,417.732"/>
<polyline class="BarLine" fill="none" stroke="#000000" stroke-width="4.00" stroke-linejoin="bevel" points="2810.15,315.732 2810.15,417.732"/>
<polyline class="BarLine" fill="none" stroke="#000000" stroke-width="12.50" stroke-linejoin="bevel" points="2828.4,315.732 2828.4,417.732"/>
<polyline class="LedgerLine" fill="none" stroke="#000000" stroke-width="4.00" stroke-linecap="square" stroke-linejoin="bevel" points="341.873,441.732 389.787,441.732"/>
<polyline class="LedgerLine" fill="none" stroke="#000000" stroke-width="4.00" stroke-linecap="square" stroke-linejoin="bevel" points="1480.39,441.732 1528.3,441.732"/>
<polyline class="LedgerLine" fill="none" stroke="#000000" stroke-width="4.00" stroke-linecap="square" stroke-linejoin="bevel" points="1590.51,441.732 1638.42,441.732"/>
<polyline class="LedgerLine" fill="none" stroke="#000000" stroke-width="4.00" stroke-linecap="square" stroke-linejoin="bevel" points="2729.02,441.732 2776.94,441.732"/>
<polyline class="Stem" fill="none" stroke="#000000" stroke-width="3.25" stroke-linecap="round" stroke-linejoin="bevel" points="380.662,437.037 380.662,354.232"/>
<polyline class="Stem" fill="none" stroke="#000000" stroke-width="3.25" stroke-linecap="round" stroke-linejoin="bevel" points="452.283,424.537 452.283,341.732"/>
<polyline class="Stem" fill="none" stroke="#000000" stroke-width="3.25" stroke-linecap="round" stroke-linejoin="bevel" points="523.904,412.037 523.904,329.232"/>
<polyline class="Stem" fill="none" stroke="#000000" stroke-width="3.25" stroke-linecap="round" stroke-linejoin="bevel" points="595.525,399.537 595.525,316.732"/>
<polyline class="Stem" fill="none" stroke="#000000" stroke-width="3.25" stroke-linecap="round" stroke-linejoin="bevel" points="696.146,387.037 696.146,307.357"/>
<polyline class="Stem" fill="none" stroke="#000000" stroke-width="3.25" stroke-linecap="round" stroke-linejoin="bevel" points="764.917,374.537 764.917,297.982"/>
<polyline class="Stem" fill="none" stroke="#000000" stroke-width="3.25" stroke-linecap="round" stroke-linejoin="bevel" points="804.024,371.428 804.024,444.857"/>
<polyline class="Stem" fill="none" stroke="#000000" stroke-width="3.25" stroke-linecap="round" stroke-linejoin="bevel" points="872.795,358.928 872.795,435.482"/>
<polyline class="Stem" fill="none" stroke="#000000" stroke-width="3.25" stroke-linecap="round" stroke-linejoin="bevel" points="970.566,358.928 970.566,435.482"/>
<polyline class="Stem" fill="none" stroke="#000000" stroke-width="3.25" stroke-linecap="round" stroke-linejoin="bevel" points="1039.34,371.428 1039.34,444.857"/>
<polyline class="Stem" fill="none" stroke="#000000" stroke-width="3.25" stroke-linecap="round" stroke-linejoin="bevel" points="1137.77,374.537 1137.77,297.982"/>
<polyline class="Stem" fill="none" stroke="#000000" stroke-width="3.25" stroke-linecap="round" stroke-linejoin="bevel" points="1206.54,387.037 1206.54,307.357"/>
<polyline class="Stem" fill="none" stroke="#000000" stroke-width="3.25" stroke-linecap="round" stroke-linejoin="bevel" points="1304.31,399.537 1304.31,316.732"/>
<polyline class="Stem" fill="none" stroke="#000000" stroke-width="3.25" stroke-linecap="round" stroke-linejoin="bevel" points="1375.94,412.037 1375.94,329.232"/>
<polyline class="Stem" fill="none" stroke="#000000" stroke-width="3.25" stroke-linecap="round" stroke-linejoin="bevel" points="1447.56,424.537 1447.56,341.732"/>
<polyline class="Stem" fill="none" stroke="#000000" stroke-width="3.25" stroke-linecap="round" stroke-linejoin="bevel" points="1519.18,437.037 1519.18,354.232"/>
<polyline class="Stem" fill="none" stroke="#000000" stroke-width="3.25" stroke-linecap="round" stroke-linejoin="bevel" points="1629.3,437.037 1629.3,354.232"/>
<polyline class="Stem" fill="none" stroke="#000000" stroke-width="3.25" stroke-linecap="round" stroke-linejoin="bevel" points="1700.92,424.537 1700.92,341.732"/>
<polyline class="Stem" fill="none" stroke="#000000" stroke-width="3.25" stroke-linecap="round" stroke-linejoin="bevel" points="1772.54,412.037 1772.54,329.232"/>
<polyline class="Stem" fill="none" stroke="#000000" stroke-width="3.25" stroke-linecap="round" stroke-linejoin="bevel" points="1844.16,399.537 1844.16,316.732"/>
<polyline class="Stem" fill="none" stroke="#000000" stroke-width="3.25" stroke-linecap="round" stroke-linejoin="bevel" points="1944.78,387.037 1944.78,307.357"/>
<polyline class="Stem" fill="none" stroke="#000000" stroke-width="3.25" stroke-linecap="round" stroke-linejoin="bevel" points="2013.55,374.537 2013.55,297.982"/>
<polyline class="Stem" fill="none" stroke="#000000" stroke-width="3.25" stroke-linecap="round" stroke-linejoin="bevel" points="2052.66,371.428 2052.66,444.857"/>
<polyline class="Stem" fill="none" stroke="#000000" stroke-width="3.25" stroke-linecap="round" stroke-linejoin="bevel" points="2121.43,358.928 2121.43,435.482"/>
<polyline class="Stem" fill="none" stroke="#000000" stroke-width="3.25" stroke-linecap="round" stroke-linejoin="bevel" points="2219.2,358.928 2219.2,435.482"/>
<polyline class="Stem" fill="none" stroke="#000000" stroke-width="3.25" stroke-linecap="round" stroke-linejoin="bevel" points="2287.97,371.428 2287.97,444.857"/>
<polyline class="Stem" fill="none" stroke="#000000" stroke-width="3.25" stroke-linecap="round" stroke-linejoin="bevel" points="2386.41,374.537 2386.41,297.982"/>
<polyline class="Stem" fill="none" stroke="#000000" stroke-width="3.25" stroke-linecap="round" stroke-linejoin="bevel" points="2455.18,387.037 2455.18,307.357"/>
<polyline class="Stem" fill="none" stroke="#000000" stroke-width="3.25" stroke-linecap="round" stroke-linejoin="bevel" points="2552.95,399.537 2552.95,316.732"/>
<polyline class="Stem" fill="none" stroke="#000000" stroke-width="3.25" stroke-linecap="round" stroke-linejoin="bevel" points="2624.57,412.037 2624.57,329.232"/>
<polyline class="Stem" fill="none" stroke="#000000" stroke-width="3.25" stroke-linecap="round" stroke-linejoin="bevel" points="2696.19,424.537 2696.19,341.732"/>
<polyline class="Stem" fill="none" stroke="#000000" stroke-width="3.25" stroke-linecap="round" stroke-linejoin="bevel" points="2767.81,437.037 2767.81,354.232"/>
<path class="Note" d="M371.342,427.967 C374.467,427.967 377.071,428.748 379.154,430.31 C381.237,431.873 382.279,434.118 382.279,437.045 C382.279,441.534 379.954,445.732 375.303,449.639 C370.652,453.545 365.654,455.498 360.31,455.498 C357.185,455.498 354.55,454.685 352.404,453.06 C350.383,451.3 349.373,449.086 349.373,446.42 C349.373,442.055 351.685,437.889 356.31,433.92 C360.935,429.951 365.946,427.967 371.342,427.967"/>
<path class="Note" d="M442.963,415.467 C446.088,415.467 448.692,416.248 450.775,417.81 C452.859,419.373 453.9,421.618 453.9,424.545 C453.9,429.034 451.575,433.232 446.924,437.139 C442.273,441.045 437.275,442.998 431.931,442.998 C428.806,442.998 426.171,442.185 424.025,440.56 C422.004,438.8 420.994,436.586 420.994,433.92 C420.994,429.555 423.306,425.389 427.931,421.42 C432.556,417.451 437.567,415.467 442.963,415.467"/>
<path class="Note" d="M514.584,402.967 C517.709,402.967 520.313,403.748 522.396,405.31 C524.48,406.873 525.521,409.118 525.521,412.045 C525.521,416.534 523.196,420.732 518.545,424.639 C513.894,428.545 508.896,430.498 503.552,430.498 C500.427,430.498 497.792,429.685 495.646,428.06 C493.625,426.3 492.615,424.086 492.615,421.42 C492.615,417.055 494.927,412.889 499.552,408.92 C504.177,404.951 509.188,402.967 514.584,402.967"/>
<path class="Note" d="M586.205,390.467 C589.33,390.467 591.934,391.248 594.017,392.81 C596.101,394.373 597.142,396.618 597.142,399.545 C597.142,404.034 594.817,408.232 590.166,412.139 C585.515,416.045 580.517,417.998 575.173,417.998 C572.048,417.998 569.413,417.185 567.267,415.56 C565.246,413.8 564.236,411.586 564.236,408.92 C564.236,404.555 566.548,400.389 571.173,396.42 C575.798,392.451 580.809,390.467 586.205,390.467"/>
<path class="Note" d="M686.826,377.967 C689.951,377.967 692.555,378.748 694.638,380.31 C696.722,381.873 697.763,384.118 697.763,387.045 C697.763,391.534 695.438,395.732 690.787,399.639 C686.136,403.545 681.138,405.498 675.795,405.498 C672.67,405.498 670.034,404.685 667.888,403.06 C665.867,401.3 664.857,399.086 664.857,396.42 C664.857,392.055 667.17,387.889 671.795,383.92 C676.42,379.951 681.43,377.967 686.826,377.967"/>
<path class="Note" d="M755.597,365.467 C758.722,365.467 761.326,366.248 763.409,367.81 C765.493,369.373 766.534,371.618 766.534,374.545 C766.534,379.034 764.209,383.232 759.558,387.139 C754.907,391.045 749.909,392.998 744.566,392.998 C741.441,392.998 738.805,392.185 736.659,390.56 C734.638,388.8 733.628,386.586 733.628,383.92 C733.628,379.555 735.941,375.389 740.566,371.42 C745.191,367.451 750.201,365.467 755.597,365.467"/>
<path class="Note" d="M824.368,352.967 C827.493,352.967 830.097,353.748 832.18,355.31 C834.264,356.873 835.305,359.118 835.305,362.045 C835.305,366.534 832.98,370.732 828.329,374.639 C823.678,378.545 818.68,380.498 813.337,380.498 C810.212,380.498 807.576,379.685 805.43,378.06 C803.409,376.3 802.399,374.086 802.399,371.42 C802.399,367.055 804.712,362.889 809.337,358.92 C813.962,354.951 818.972,352.967 824.368,352.967"/>
<path class="Note" d="M893.139,340.467 C896.264,340.467 898.868,341.248 900.951,342.81 C903.035,344.373 904.076,346.618 904.076,349.545 C904.076,354.034 901.751,358.232 897.1,362.139 C892.449,366.045 887.451,367.998 882.108,367.998 C878.983,367.998 876.347,367.185 874.201,365.56 C872.18,363.8 871.17,361.586 871.17,358.92 C871.17,354.555 873.483,350.389 878.108,346.42 C882.733,342.451 887.743,340.467 893.139,340.467"/>
<path class="Note" d="M990.91,340.467 C994.035,340.467 996.639,341.248 998.722,342.81 C1000.81,344.373 1001.85,346.618 1001.85,349.545 C1001.85,354.034 999.522,358.232 994.871,362.139 C990.22,366.045 985.222,367.998 979.879,367.998 C976.754,367.998 974.118,367.185 971.972,365.56 C969.952,363.8 968.941,361.586 968.941,358.92 C968.941,354.555 971.254,350.389 975.879,346.42 C980.504,342.451 985.514,340.467 990.91,340.467"/>
<path class="Note" d="M1059.68,352.967 C1062.81,352.967 1065.41,353.748 1067.49,355.31 C1069.58,356.873 1070.62,359.118 1070.62,362.045 C1070.62,366.534 1068.29,370.732 1063.64,374.639 C1058.99,378.545 1053.99,380.498 1048.65,380.498 C1045.52,380.498 1042.89,379.685 1040.74,378.06 C1038.72,376.3 1037.71,374.086 1037.71,371.42 C1037.71,367.055 1040.02,362.889 1044.65,358.92 C1049.27,354.951 1054.29,352.967 1059.68,352.967"/>
<path class="Note" d="M1128.45,365.467 C1131.58,365.467 1134.18,366.248 1136.26,367.81 C1138.35,369.373 1139.39,371.618 1139.39,374.545 C1139.39,379.034 1137.06,383.232 1132.41,387.139 C1127.76,391.045 1122.76,392.998 1117.42,392.998 C1114.3,392.998 1111.66,392.185 1109.51,390.56 C1107.49,388.8 1106.48,386.586 1106.48,383.92 C1106.48,379.555 1108.8,375.389 1113.42,371.42 C1118.05,367.451 1123.06,365.467 1128.45,365.467"/>
<path class="Note" d="M1197.22,377.967 C1200.35,377.967 1202.95,378.748 1205.04,380.31 C1207.12,381.873 1208.16,384.118 1208.16,387.045 C1208.16,391.534 1205.83,395.732 1201.18,399.639 C1196.53,403.545 1191.54,405.498 1186.19,405.498 C1183.07,405.498 1180.43,404.685 1178.29,403.06 C1176.26,401.3 1175.25,399.086 1175.25,396.42 C1175.25,392.055 1177.57,387.889 1182.19,383.92 C1186.82,379.951 1191.83,377.967 1197.22,377.967"/>
<path class="Note" d="M1294.99,390.467 C1298.12,390.467 1300.72,391.248 1302.81,392.81 C1304.89,394.373 1305.93,396.618 1305.93,399.545 C1305.93,404.034 1303.61,408.232 1298.95,412.139 C1294.3,416.045 1289.31,417.998 1283.96,417.998 C1280.84,417.998 1278.2,417.185 1276.06,415.56 C1274.04,413.8 1273.03,411.586 1273.03,408.92 C1273.03,404.555 1275.34,400.389 1279.96,396.42 C1284.59,392.451 1289.6,390.467 1294.99,390.467"/>
<path class="Note" d="M1366.61,402.967 C1369.74,402.967 1372.34,403.748 1374.43,405.31 C1376.51,406.873 1377.55,409.118 1377.55,412.045 C1377.55,416.534 1375.23,420.732 1370.58,424.639 C1365.92,428.545 1360.93,430.498 1355.58,430.498 C1352.46,430.498 1349.82,429.685 1347.68,428.06 C1345.66,426.3 1344.65,424.086 1344.65,421.42 C1344.65,417.055 1346.96,412.889 1351.58,408.92 C1356.21,404.951 1361.22,402.967 1366.61,402.967"/>
<path class="Note" d="M1438.24,415.467 C1441.36,415.467 1443.97,416.248 1446.05,417.81 C1448.13,419.373 1449.17,421.618 1449.17,424.545 C1449.17,429.034 1446.85,433.232 1442.2,437.139 C1437.55,441.045 1432.55,442.998 1427.2,442.998 C1424.08,442.998 1421.44,442.185 1419.3,440.56 C1417.28,438.8 1416.27,436.586 1416.27,433.92 C1416.27,429.555 1418.58,425.389 1423.2,421.42 C1427.83,417.451 1432.84,415.467 1438.24,415.467"/>
<path class="Note" d="M1509.86,427.967 C1512.98,427.967 1515.59,428.748 1517.67,430.31 C1519.75,431.873 1520.79,434.118 1520.79,437.045 C1520.79,441.534 1518.47,445.732 1513.82,449.639 C1509.17,453.545 1504.17,455.498 1498.83,455.498 C1495.7,455.498 1493.07,454.685 1490.92,453.06 C1488.9,451.3 1487.89,449.086 1487.89,446.42 C1487.89,442.055 1490.2,437.889 1494.83,433.92 C1499.45,429.951 1504.46,427.967 1509.86,427.967"/>
<path class="Note" d="M1619.98,427.967 C1623.1,427.967 1625.71,428.748 1627.79,430.31 C1629.87,431.873 1630.92,434.118 1630.92,437.045 C1630.92,441.534 1628.59,445.732 1623.94,449.639 C1619.29,453.545 1614.29,455.498 1608.95,455.498 C1605.82,455.498 1603.19,454.685 1601.04,453.06 C1599.02,451.3 1598.01,449.086 1598.01,446.42 C1598.01,442.055 1600.32,437.889 1604.95,433.92 C1609.57,429.951 1614.58,427.967 1619.98,427.967"/>
<path class="Note" d="M1691.6,415.467 C1694.72,415.467 1697.33,416.248 1699.41,417.81 C1701.49,419.373 1702.54,421.618 1702.54,424.545 C1702.54,429.034 1700.21,433.232 1695.56,437.139 C1690.91,441.045 1685.91,442.998 1680.57,442.998 C1677.44,442.998 1674.81,442.185 1672.66,440.56 C1670.64,438.8 1669.63,436.586 1669.63,433.92 C1669.63,429.555 1671.94,425.389 1676.57,421.42 C1681.19,417.451 1686.2,415.467 1691.6,415.467"/>
<path class="Note" d="M1763.22,402.967 C1766.35,402.967 1768.95,403.748 1771.03,405.31 C1773.12,406.873 1774.16,409.118 1774.16,412.045 C1774.16,416.534 1771.83,420.732 1767.18,424.639 C1762.53,428.545 1757.53,430.498 1752.19,430.498 C1749.06,430.498 1746.43,429.685 1744.28,428.06 C1742.26,426.3 1741.25,424.086 1741.25,421.42 C1741.25,417.055 1743.56,412.889 1748.19,408.92 C1752.81,404.951 1757.82,402.967 1763.22,402.967"/>
<path class="Note" d="M1834.84,390.467 C1837.97,390.467 1840.57,391.248 1842.65,392.81 C1844.74,394.373 1845.78,396.618 1845.78,399.545 C1845.78,404.034 1843.45,408.232 1838.8,412.139 C1834.15,416.045 1829.15,417.998 1823.81,417.998 C1820.68,417.998 1818.05,417.185 1815.9,415.56 C1813.88,413.8 1812.87,411.586 1812.87,408.92 C1812.87,404.555 1815.18,400.389 1819.81,396.42 C1824.43,392.451 1829.45,390.467 1834.84,390.467"/>
<path class="Note" d="M1935.46,377.967 C1938.59,377.967 1941.19,378.748 1943.27,380.31 C1945.36,381.873 1946.4,384.118 1946.4,387.045 C1946.4,391.534 1944.07,395.732 1939.42,399.639 C1934.77,403.545 1929.77,405.498 1924.43,405.498 C1921.31,405.498 1918.67,404.685 1916.52,403.06 C1914.5,401.3 1913.49,399.086 1913.49,396.42 C1913.49,392.055 1915.81,387.889 1920.43,383.92 C1925.06,379.951 1930.07,377.967 1935.46,377.967"/>
<path class="Note" d="M2004.23,365.467 C2007.36,365.467 2009.96,366.248 2012.05,367.81 C2014.13,369.373 2015.17,371.618 2015.17,374.545 C2015.17,379.034 2012.85,383.232 2008.19,387.139 C2003.54,391.045 1998.55,392.998 1993.2,392.998 C1990.08,392.998 1987.44,392.185 1985.3,390.56 C1983.27,388.8 1982.26,386.586 1982.26,383.92 C1982.26,379.555 1984.58,375.389 1989.2,371.42 C1993.83,367.451 1998.84,365.467 2004.23,365.467"/>
<path class="Note" d="M2073,352.967 C2076.13,352.967 2078.73,353.748 2080.82,355.31 C2082.9,356.873 2083.94,359.118 2083.94,362.045 C2083.94,366.534 2081.62,370.732 2076.97,374.639 C2072.31,378.545 2067.32,380.498 2061.97,380.498 C2058.85,380.498 2056.21,379.685 2054.07,378.06 C2052.05,376.3 2051.04,374.086 2051.04,371.42 C2051.04,367.055 2053.35,362.889 2057.97,358.92 C2062.6,354.951 2067.61,352.967 2073,352.967"/>
<path class="Note" d="M2141.78,340.467 C2144.9,340.467 2147.5,341.248 2149.59,342.81 C2151.67,344.373 2152.71,346.618 2152.71,349.545 C2152.71,354.034 2150.39,358.232 2145.74,362.139 C2141.09,366.045 2136.09,367.998 2130.74,367.998 C2127.62,367.998 2124.98,367.185 2122.84,365.56 C2120.82,363.8 2119.81,361.586 2119.81,358.92 C2119.81,354.555 2122.12,350.389 2126.74,346.42 C2131.37,342.451 2136.38,340.467 2141.78,340.467"/>
<path class="Note" d="M2239.55,340.467 C2242.67,340.467 2245.28,341.248 2247.36,342.81 C2249.44,344.373 2250.48,346.618 2250.48,349.545 C2250.48,354.034 2248.16,358.232 2243.51,362.139 C2238.86,366.045 2233.86,367.998 2228.51,367.998 C2225.39,367.998 2222.75,367.185 2220.61,365.56 C2218.59,363.8 2217.58,361.586 2217.58,358.92 C2217.58,354.555 2219.89,350.389 2224.51,346.42 C2229.14,342.451 2234.15,340.467 2239.55,340.467"/>
<path class="Note" d="M2308.32,352.967 C2311.44,352.967 2314.05,353.748 2316.13,355.31 C2318.21,356.873 2319.25,359.118 2319.25,362.045 C2319.25,366.534 2316.93,370.732 2312.28,374.639 C2307.63,378.545 2302.63,380.498 2297.29,380.498 C2294.16,380.498 2291.53,379.685 2289.38,378.06 C2287.36,376.3 2286.35,374.086 2286.35,371.42 C2286.35,367.055 2288.66,362.889 2293.29,358.92 C2297.91,354.951 2302.92,352.967 2308.32,352.967"/>
<path class="Note" d="M2377.09,365.467 C2380.21,365.467 2382.82,366.248 2384.9,367.81 C2386.98,369.373 2388.03,371.618 2388.03,374.545 C2388.03,379.034 2385.7,383.232 2381.05,387.139 C2376.4,391.045 2371.4,392.998 2366.06,392.998 C2362.93,392.998 2360.3,392.185 2358.15,390.56 C2356.13,388.8 2355.12,386.586 2355.12,383.92 C2355.12,379.555 2357.43,375.389 2362.06,371.42 C2366.68,367.451 2371.69,365.467 2377.09,365.467"/>
<path class="Note" d="M2445.86,377.967 C2448.98,377.967 2451.59,378.748 2453.67,380.31 C2455.76,381.873 2456.8,384.118 2456.8,387.045 C2456.8,391.534 2454.47,395.732 2449.82,399.639 C2445.17,403.545 2440.17,405.498 2434.83,405.498 C2431.7,405.498 2429.07,404.685 2426.92,403.06 C2424.9,401.3 2423.89,399.086 2423.89,396.42 C2423.89,392.055 2426.2,387.889 2430.83,383.92 C2435.45,379.951 2440.46,377.967 2445.86,377.967"/>
<path class="Note" d="M2543.63,390.467 C2546.76,390.467 2549.36,391.248 2551.44,392.81 C2553.53,394.373 2554.57,396.618 2554.57,399.545 C2554.57,404.034 2552.24,408.232 2547.59,412.139 C2542.94,416.045 2537.94,417.998 2532.6,417.998 C2529.47,417.998 2526.84,417.185 2524.69,415.56 C2522.67,413.8 2521.66,411.586 2521.66,408.92 C2521.66,404.555 2523.97,400.389 2528.6,396.42 C2533.22,392.451 2538.23,390.467 2543.63,390.467"/>
<path class="Note" d="M2615.25,402.967 C2618.38,402.967 2620.98,403.748 2623.06,405.31 C2625.15,406.873 2626.19,409.118 2626.19,412.045 C2626.19,416.534 2623.86,420.732 2619.21,424.639 C2614.56,428.545 2609.56,430.498 2604.22,430.498 C2601.1,430.498 2598.46,429.685 2596.31,428.06 C2594.29,426.3 2593.28,424.086 2593.28,421.42 C2593.28,417.055 2595.6,412.889 2600.22,408.92 C2604.85,404.951 2609.86,402.967 2615.25,402.967"/>
<path class="Note" d="M2686.87,415.467 C2690,415.467 2692.6,416.248 2694.68,417.81 C2696.77,419.373 2697.81,421.618 2697.81,424.545 C2697.81,429.034 2695.48,433.232 2690.83,437.139 C2686.18,441.045 2681.18,442.998 2675.84,442.998 C2672.72,442.998 2670.08,442.185 2667.93,440.56 C2665.91,438.8 2664.9,436.586 2664.9,433.92 C2664.9,429.555 2667.22,425.389 2671.84,421.42 C2676.47,417.451 2681.48,415.467 2686.87,415.467"/>
<path class="Note" d="M2758.49,427.967 C2761.62,427.967 2764.22,428.748 2766.31,430.31 C2768.39,431.873 2769.43,434.118 2769.43,437.045 C2769.43,441.534 2767.11,445.732 2762.45,449.639 C2757.8,453.545 2752.81,455.498 2747.46,455.498 C2744.34,455.498 2741.7,454.685 2739.56,453.06 C2737.54,451.3 2736.52,449.086 2736.52,446.42 C2736.52,442.055 2738.84,437.889 2743.46,433.92 C2748.09,429.951 2753.1,427.967 2758.49,427.967"/>
<path class="Clef" d="M203.623,423.857 L203.623,421.717 C203.56,420.612 203.399,418.889 203.139,416.545 C199.889,417.066 196.993,417.326 194.451,417.326 C185.336,417.326 177.605,413.727 171.256,406.529 C164.907,399.331 161.732,390.753 161.732,380.795 C161.732,378.128 162.253,374.922 163.295,371.178 C164.336,367.433 165.297,364.925 166.178,363.654 C167.058,362.383 168.378,360.154 170.139,356.967 C170.659,355.987 172.352,353.836 175.217,350.514 C175.737,349.805 176.193,349.222 176.584,348.764 C176.974,348.305 177.607,347.49 178.482,346.318 C179.357,345.146 180.3,344.055 181.31,343.045 C182.321,342.034 183.217,341.058 183.998,340.115 C184.779,339.172 185.498,338.378 186.154,337.732 C183.81,329.982 182.378,324.024 181.857,319.857 C181.336,315.691 181.076,310.579 181.076,304.521 C181.076,298.464 182.378,292.961 184.982,288.014 C187.514,282.878 191.06,278.68 195.623,275.42 C195.883,275.222 196.224,275.123 196.646,275.123 C197.068,275.123 197.378,275.222 197.576,275.42 C201.086,279.649 204.128,285.149 206.701,291.92 C209.274,298.691 210.56,305.024 210.56,310.92 C210.56,316.816 209.066,322.498 206.076,327.967 C202.691,333.758 198.326,339.748 192.982,345.935 C194.347,350.227 196.17,356.961 198.451,366.139 L199.045,366.139 C199.305,366.076 199.529,366.045 199.717,366.045 C207.081,366.045 213.089,368.633 217.74,373.81 C222.391,378.987 224.717,384.961 224.717,391.732 C224.717,400.128 221.237,406.899 214.279,412.045 C212.258,413.545 209.878,414.717 207.139,415.56 C207.472,419.79 207.639,422.605 207.639,424.006 C207.639,425.407 207.571,427.899 207.435,431.482 C207.373,437.597 205.29,442.836 201.185,447.201 C197.081,451.566 192.394,453.748 187.123,453.748 C181.852,453.748 177.36,451.876 173.646,448.131 C169.933,444.386 168.076,439.847 168.076,434.514 C168.076,431.711 169.154,429.331 171.31,427.373 C173.519,425.425 176.006,424.451 178.771,424.451 C181.537,424.451 183.8,425.461 185.56,427.482 C187.383,429.368 188.295,431.644 188.295,434.31 C188.295,436.977 187.383,439.222 185.56,441.045 C183.737,442.868 181.555,443.779 179.014,443.779 C177.972,443.779 176.967,443.586 175.998,443.201 C178.862,447.43 182.54,449.545 187.029,449.545 C191.519,449.545 195.36,447.691 198.553,443.982 C201.745,440.274 203.342,435.909 203.342,430.889 L203.623,423.857 M206.748,411.56 C210.133,410.321 212.821,408.123 214.81,404.967 C216.8,401.81 217.795,398.67 217.795,395.545 C217.795,390.92 216.198,386.784 213.006,383.139 C209.813,379.493 205.774,377.441 200.889,376.982 C203.691,390.722 205.644,402.248 206.748,411.56 M168.967,388.998 C168.967,395.446 171.537,401.079 176.678,405.896 C181.818,410.714 187.842,413.123 194.748,413.123 C197.477,413.123 200.144,412.925 202.748,412.529 C201.706,402.633 199.654,390.784 196.592,376.982 C192.758,377.378 189.782,378.698 187.662,380.943 C185.542,383.188 184.482,385.743 184.482,388.607 C184.482,393.555 187.123,397.56 192.404,400.623 C192.852,400.883 193.076,401.323 193.076,401.943 C193.076,402.563 192.865,403.099 192.443,403.553 C192.021,404.006 191.649,404.232 191.326,404.232 C191.003,404.232 190.581,404.17 190.06,404.045 C182.435,399.878 178.623,393.592 178.623,385.185 C178.623,381.217 180.024,377.409 182.826,373.764 C185.753,370.118 189.56,367.774 194.248,366.732 C192.425,359.441 190.93,353.743 189.764,349.639 C180.847,359.67 175.31,367.092 173.154,371.904 C170.362,378.154 168.967,383.852 168.967,388.998 M201.576,289.685 C196.691,292.092 192.834,295.573 190.006,300.131 C187.178,304.688 185.764,309.472 185.764,314.482 C185.764,319.493 186.935,325.972 189.279,333.92 C193.967,328.253 197.514,322.946 199.92,317.998 C202.326,313.05 203.529,308.152 203.529,303.303 C203.529,298.454 202.878,293.915 201.576,289.685"/>
<path class="TimeSig" d="M273.021,317.912 C274.516,317.912 275.948,317.685 277.318,317.232 C278.688,316.779 279.665,316.553 280.248,316.553 C280.831,316.553 281.222,316.907 281.42,317.615 C281.42,317.688 281.352,317.886 281.217,318.209 L252.81,351.224 L269.498,351.224 L269.498,338.131 C269.498,336.506 270.446,335.334 272.342,334.615 C274.29,333.896 276.503,331.001 278.982,325.928 C279.17,325.532 279.461,325.334 279.857,325.334 C280.639,325.334 281.092,325.792 281.217,326.709 L281.217,351.224 L288.357,351.224 C289.264,351.224 289.751,351.711 289.818,352.685 C289.886,353.659 289.399,354.146 288.357,354.146 L281.217,354.146 L281.217,354.928 C281.217,357.532 281.868,359.745 283.17,361.568 C284.67,363.391 286.43,364.303 288.451,364.303 C289.232,364.303 289.623,364.693 289.623,365.474 C289.623,366.256 289.086,366.646 288.014,366.646 C286.941,366.646 284.938,366.435 282.006,366.014 C279.073,365.592 276.81,365.381 275.217,365.381 C273.623,365.381 271.409,365.592 268.576,366.014 C265.743,366.435 263.612,366.646 262.185,366.646 C261.404,366.646 261.014,366.256 261.014,365.474 C261.014,364.693 261.404,364.303 262.185,364.303 C264.196,364.303 265.951,363.391 267.451,361.568 C268.816,359.683 269.498,357.469 269.498,354.928 L269.498,354.146 L252.81,354.146 C251.956,354.146 251.219,353.92 250.599,353.467 C249.98,353.014 249.67,352.592 249.67,352.201 C249.67,351.81 250.485,350.639 252.115,348.685 C253.745,346.732 256.073,342.972 259.099,337.404 C262.126,331.836 263.639,325.438 263.639,318.209 C263.639,317.167 264.097,316.646 265.014,316.646 C265.211,316.646 265.521,316.711 265.943,316.842 C266.365,316.972 267.277,317.183 268.678,317.474 C270.079,317.766 271.527,317.912 273.021,317.912"/>
<path class="TimeSig" d="M273.021,368.084 C274.516,368.084 275.948,367.857 277.318,367.404 C278.688,366.951 279.665,366.724 280.248,366.724 C280.831,366.724 281.222,367.079 281.42,367.787 C281.42,367.86 281.352,368.058 281.217,368.381 L252.81,401.396 L269.498,401.396 L269.498,388.303 C269.498,386.678 270.446,385.506 272.342,384.787 C274.29,384.068 276.503,381.172 278.982,376.099 C279.17,375.704 279.461,375.506 279.857,375.506 C280.639,375.506 281.092,375.964 281.217,376.881 L281.217,401.396 L288.357,401.396 C289.264,401.396 289.751,401.883 289.818,402.857 C289.886,403.831 289.399,404.318 288.357,404.318 L281.217,404.318 L281.217,405.099 C281.217,407.704 281.868,409.917 283.17,411.74 C284.67,413.563 286.43,414.474 288.451,414.474 C289.232,414.474 289.623,414.865 289.623,415.646 C289.623,416.428 289.086,416.818 288.014,416.818 C286.941,416.818 284.938,416.607 282.006,416.185 C279.073,415.764 276.81,415.553 275.217,415.553 C273.623,415.553 271.409,415.764 268.576,416.185 C265.743,416.607 263.612,416.818 262.185,416.818 C261.404,416.818 261.014,416.428 261.014,415.646 C261.014,414.865 261.404,414.474 262.185,414.474 C264.196,414.474 265.951,413.563 267.451,411.74 C268.816,409.855 269.498,407.641 269.498,405.099 L269.498,404.318 L252.81,404.318 C251.956,404.318 251.219,404.092 250.599,403.639 C249.98,403.185 249.67,402.764 249.67,402.373 C249.67,401.982 250.485,400.81 252.115,398.857 C253.745,396.904 256.073,393.144 259.099,387.576 C262.126,382.008 263.639,375.61 263.639,368.381 C263.639,367.339 264.097,366.818 265.014,366.818 C265.211,366.818 265.521,366.883 265.943,367.014 C266.365,367.144 267.277,367.355 268.678,367.646 C270.079,367.938 271.527,368.084 273.021,368.084"/>
<path class="Tempo" d="M264.389,254.014 C263.435,253.17 262.107,252.748 260.545,252.748 C254.607,252.748 249.873,257.139 249.873,261.81 C249.873,264.639 252.154,266.31 255.092,266.31 C259.889,266.31 265.826,261.81 265.826,257.248 L265.826,226.529 L264.389,226.529 L264.389,254.014 "/>
<path class="Tempo" d="M317.654,248.076 L284.529,248.076 L284.529,242.31 L317.654,242.31 L317.654,248.076 M317.654,260.795 L284.529,260.795 L284.529,255.029 L317.654,255.029 L317.654,260.795 M345.342,232.06 C344.862,232.06 344.292,232.159 343.631,232.357 C342.969,232.555 342.269,232.795 341.529,233.076 C340.79,233.357 340.362,233.519 340.248,233.56 L340.248,231.998 L355.357,225.451 L356.389,225.451 L356.389,259.654 C356.389,261.977 356.787,263.487 357.584,264.185 C358.381,264.883 360.139,265.253 362.857,265.295 L362.857,266.732 L340.357,266.732 L340.357,265.295 C343.316,265.253 345.245,264.862 346.146,264.123 C347.047,263.383 347.498,261.774 347.498,259.295 L347.498,236.201 C347.498,233.441 346.779,232.06 345.342,232.06 M368.185,237.701 C371.227,229.534 375.628,225.451 381.389,225.451 C384.628,225.451 387.287,226.482 389.365,228.545 C391.443,230.607 392.482,233.237 392.482,236.435 C392.482,240.831 390.201,245.191 385.639,249.514 L375.92,258.748 L384.982,258.748 C388.066,258.748 390.047,258.508 390.928,258.029 C391.808,257.55 392.685,256.232 393.56,254.076 L394.998,254.076 L392.31,266.732 L367.342,266.732 L367.342,265.357 C374.185,258.076 378.727,252.706 380.967,249.248 C383.206,245.79 384.326,242.68 384.326,239.92 C384.326,237.878 383.667,236.097 382.349,234.576 C381.032,233.055 379.31,232.295 377.185,232.295 C374.102,232.295 371.665,234.097 369.873,237.701 L368.185,237.701 M397.748,246.326 C397.748,240.451 399.047,235.503 401.646,231.482 C404.245,227.461 407.467,225.451 411.31,225.451 C415.185,225.451 418.415,227.461 420.998,231.482 C423.581,235.503 424.873,240.514 424.873,246.514 C424.873,252.555 423.592,257.566 421.029,261.545 C418.467,265.524 415.248,267.514 411.373,267.514 C407.373,267.514 404.102,265.534 401.56,261.576 C399.019,257.618 397.748,252.534 397.748,246.326 M411.373,265.826 C412.696,265.826 413.696,264.928 414.373,263.131 C415.05,261.334 415.389,258.097 415.389,253.42 L415.389,239.67 C415.389,235.232 415.068,232.034 414.428,230.076 C413.787,228.118 412.727,227.139 411.248,227.139 C409.81,227.139 408.782,228.097 408.162,230.014 C407.542,231.93 407.232,235.149 407.232,239.67 L407.232,253.42 C407.232,257.857 407.553,261.034 408.193,262.951 C408.834,264.868 409.894,265.826 411.373,265.826"/>
</svg>
